M48
; DRILL file {KiCad 8.0.6} date 2025-03-23T20:06:33-0400
; FORMAT={-:-/ absolute / inch / decimal}
; #@! TF.CreationDate,2025-03-23T20:06:33-04:00
; #@! TF.GenerationSoftware,Kicad,Pcbnew,8.0.6
; #@! TF.FileFunction,Plated,1,4,PTH
FMAT,2
INCH
; #@! TA.AperFunction,Plated,PTH,ViaDrill
T1C0.0118
; #@! TA.AperFunction,Plated,PTH,ComponentDrill
T2C0.0295
; #@! TA.AperFunction,Plated,PTH,ComponentDrill
T3C0.0299
; #@! TA.AperFunction,Plated,PTH,ComponentDrill
T4C0.0300
; #@! TA.AperFunction,Plated,PTH,ComponentDrill
T5C0.0315
; #@! TA.AperFunction,Plated,PTH,ComponentDrill
T6C0.0394
; #@! TA.AperFunction,Plated,PTH,ComponentDrill
T7C0.0402
%
G90
G05
T1
X2.6181Y-2.2441
X2.681Y-1.7298
X2.7109Y-1.7448
X2.7165Y-1.4173
X2.7178Y-1.7763
X2.7559Y-1.6142
X2.7559Y-1.6535
X2.7671Y-1.7435
X2.8565Y-1.5528
X2.874Y-1.7126
X2.9134Y-1.4173
X2.9134Y-1.9685
X2.9528Y-1.8504
X2.9528Y-1.9291
X3.0709Y-1.4567
X3.0709Y-1.8898
X3.1102Y-2.0079
X3.1102Y-2.0472
X3.1496Y-1.7323
X3.248Y-1.8701
X3.3836Y-1.9313
X3.3939Y-1.1191
X3.4331Y-1.122
X3.5039Y-1.7323
X3.5039Y-1.8898
X3.5433Y-1.6535
X3.5433Y-1.811
X3.7008Y-1.7738
X3.7008Y-1.9685
X3.7402Y-1.8898
X3.7795Y-1.9685
X4.1732Y-2.2835
X4.2323Y-2.3228
X4.3898Y-2.2244
X4.4488Y-1.3976
X4.4882Y-1.1614
X4.4882Y-1.3189
X4.4882Y-1.437
X4.5142Y-2.1303
X4.5169Y-1.4744
X4.5276Y-1.378
X4.5472Y-1.063
X4.5616Y-1.36
X4.5866Y-2.126
X4.6063Y-1.2795
X4.6417Y-1.4567
X4.6847Y-1.2783
X4.685Y-1.8898
X4.7638Y-1.378
X4.7697Y-1.264
X4.7854Y-1.6142
X4.8263Y-2.2343
X4.8425Y-1.5748
X4.8543Y-1.4291
X4.8583Y-1.4685
X4.8819Y-1.8898
X4.9006Y-1.1073
X4.9331Y-1.3543
X4.9409Y-2.1063
X4.9803Y-1.122
X5.0197Y-1.5945
T2
X4.0335Y-1.3488
X4.0335Y-1.3988
X4.0335Y-1.4488
X4.0335Y-1.5941
X4.0335Y-1.6441
X4.0335Y-1.6941
X4.0335Y-1.8409
X4.0335Y-1.8909
X4.0335Y-1.9409
T4
X2.0181Y-1.485
X2.0181Y-1.585
X2.0181Y-1.685
X2.0181Y-1.785
X2.0181Y-1.885
X2.0181Y-1.985
X2.6181Y-1.485
X2.6181Y-1.685
X2.6181Y-1.785
X2.6181Y-1.885
X2.6181Y-1.985
X2.6181Y-2.085
X2.6181Y-2.185
X2.8256Y-1.485
X2.8256Y-1.585
X2.8256Y-1.685
X2.8256Y-1.785
X2.8256Y-1.885
X2.8256Y-1.985
X3.4256Y-1.485
X3.4256Y-1.685
X3.4256Y-1.785
X3.4256Y-1.885
X3.4256Y-1.985
X3.4256Y-2.085
X3.4256Y-2.185
X3.6362Y-1.485
X3.6362Y-1.585
X3.6362Y-1.685
X3.6362Y-1.785
X3.6362Y-1.885
X3.6362Y-1.985
X4.2362Y-1.485
X4.2362Y-1.685
X4.2362Y-1.785
X4.2362Y-1.885
X4.2362Y-1.985
X4.2362Y-2.085
X4.2362Y-2.185
X4.4492Y-1.485
X4.4492Y-1.585
X4.4492Y-1.685
X4.4492Y-1.785
X4.4492Y-1.885
X4.4492Y-1.985
X5.0492Y-1.485
X5.0492Y-1.685
X5.0492Y-1.785
X5.0492Y-1.885
X5.0492Y-1.985
X5.0492Y-2.085
X5.0492Y-2.185
T5
X3.013Y-1.1181
X3.013Y-1.2181
X3.013Y-1.3181
X3.013Y-1.4181
X3.013Y-1.5181
X3.013Y-1.6181
X3.013Y-1.7181
X3.013Y-1.8181
X3.013Y-1.9181
X3.013Y-2.0181
X3.013Y-2.1181
X3.013Y-2.2181
X3.313Y-1.1181
X3.313Y-1.2181
X3.313Y-1.3181
X3.313Y-1.4181
X3.313Y-1.5181
X3.313Y-1.6181
X3.313Y-1.7181
X3.313Y-1.8181
X3.313Y-1.9181
X3.313Y-2.0181
X3.313Y-2.1181
X3.313Y-2.2181
X4.0433Y-1.0866
X4.0433Y-1.2205
T6
X2.2173Y-1.1606
X2.3173Y-1.1606
X2.4173Y-1.1606
X2.5173Y-1.1606
X2.6173Y-1.1606
X4.2183Y-1.0959
X4.2183Y-1.1959
X4.3183Y-1.0959
X4.3183Y-1.1959
X4.4183Y-1.0959
X4.4183Y-1.1959
X5.0472Y-1.0998
X5.0472Y-1.1998
T3
G00X2.2296Y-2.2388
M15
G01X2.2296Y-2.1486
M16
G05
G00X2.3125Y-2.0091
M15
G01X2.4027Y-2.0091
M16
G05
T7
G00X2.4641Y-2.2437
M15
G01X2.4641Y-2.1437
M16
G05
M30
