%TF.GenerationSoftware,KiCad,Pcbnew,8.0.6*%
%TF.CreationDate,2025-03-23T20:06:33-04:00*%
%TF.ProjectId,co2_7seg,636f325f-3773-4656-972e-6b696361645f,rev?*%
%TF.SameCoordinates,Original*%
%TF.FileFunction,Paste,Bot*%
%TF.FilePolarity,Positive*%
%FSLAX46Y46*%
G04 Gerber Fmt 4.6, Leading zero omitted, Abs format (unit mm)*
G04 Created by KiCad (PCBNEW 8.0.6) date 2025-03-23 20:06:33*
%MOMM*%
%LPD*%
G01*
G04 APERTURE LIST*
G04 Aperture macros list*
%AMRoundRect*
0 Rectangle with rounded corners*
0 $1 Rounding radius*
0 $2 $3 $4 $5 $6 $7 $8 $9 X,Y pos of 4 corners*
0 Add a 4 corners polygon primitive as box body*
4,1,4,$2,$3,$4,$5,$6,$7,$8,$9,$2,$3,0*
0 Add four circle primitives for the rounded corners*
1,1,$1+$1,$2,$3*
1,1,$1+$1,$4,$5*
1,1,$1+$1,$6,$7*
1,1,$1+$1,$8,$9*
0 Add four rect primitives between the rounded corners*
20,1,$1+$1,$2,$3,$4,$5,0*
20,1,$1+$1,$4,$5,$6,$7,0*
20,1,$1+$1,$6,$7,$8,$9,0*
20,1,$1+$1,$8,$9,$2,$3,0*%
G04 Aperture macros list end*
%ADD10R,1.800000X1.100000*%
%ADD11R,1.900000X2.400000*%
%ADD12RoundRect,0.100000X-0.225000X-0.100000X0.225000X-0.100000X0.225000X0.100000X-0.225000X0.100000X0*%
%ADD13RoundRect,0.150000X-0.512500X-0.150000X0.512500X-0.150000X0.512500X0.150000X-0.512500X0.150000X0*%
%ADD14R,1.600000X0.550000*%
%ADD15R,0.550000X1.600000*%
%ADD16RoundRect,0.250000X-0.350000X-0.450000X0.350000X-0.450000X0.350000X0.450000X-0.350000X0.450000X0*%
%ADD17RoundRect,0.250000X-0.450000X0.350000X-0.450000X-0.350000X0.450000X-0.350000X0.450000X0.350000X0*%
%ADD18RoundRect,0.250000X0.450000X-0.350000X0.450000X0.350000X-0.450000X0.350000X-0.450000X-0.350000X0*%
%ADD19RoundRect,0.250000X0.350000X0.450000X-0.350000X0.450000X-0.350000X-0.450000X0.350000X-0.450000X0*%
%ADD20RoundRect,0.250000X0.475000X-0.337500X0.475000X0.337500X-0.475000X0.337500X-0.475000X-0.337500X0*%
%ADD21RoundRect,0.250000X-0.475000X0.337500X-0.475000X-0.337500X0.475000X-0.337500X0.475000X0.337500X0*%
%ADD22RoundRect,0.250000X0.337500X0.475000X-0.337500X0.475000X-0.337500X-0.475000X0.337500X-0.475000X0*%
%ADD23RoundRect,0.250000X-0.337500X-0.475000X0.337500X-0.475000X0.337500X0.475000X-0.337500X0.475000X0*%
G04 APERTURE END LIST*
D10*
%TO.C,SW1*%
X123700000Y-31050000D03*
X117500000Y-27350000D03*
X123700000Y-27350000D03*
X117500000Y-31050000D03*
%TD*%
D11*
%TO.C,Y1*%
X121050000Y-45800000D03*
X116550000Y-45800000D03*
%TD*%
D12*
%TO.C,U5*%
X120050000Y-56750000D03*
X120050000Y-56100000D03*
X120050000Y-55450000D03*
X121950000Y-55450000D03*
X121950000Y-56750000D03*
%TD*%
D13*
%TO.C,U4*%
X113792500Y-55080000D03*
X113792500Y-54130000D03*
X113792500Y-53180000D03*
X116067500Y-53180000D03*
X116067500Y-55080000D03*
%TD*%
D14*
%TO.C,U1*%
X124850000Y-40800000D03*
X124850000Y-40000000D03*
X124850000Y-39200000D03*
X124850000Y-38400000D03*
X124850000Y-37600000D03*
X124850000Y-36800000D03*
X124850000Y-36000000D03*
X124850000Y-35200000D03*
D15*
X123400000Y-33750000D03*
X122600000Y-33750000D03*
X121800000Y-33750000D03*
X121000000Y-33750000D03*
X120200000Y-33750000D03*
X119400000Y-33750000D03*
X118600000Y-33750000D03*
X117800000Y-33750000D03*
D14*
X116350000Y-35200000D03*
X116350000Y-36000000D03*
X116350000Y-36800000D03*
X116350000Y-37600000D03*
X116350000Y-38400000D03*
X116350000Y-39200000D03*
X116350000Y-40000000D03*
X116350000Y-40800000D03*
D15*
X117800000Y-42250000D03*
X118600000Y-42250000D03*
X119400000Y-42250000D03*
X120200000Y-42250000D03*
X121000000Y-42250000D03*
X121800000Y-42250000D03*
X122600000Y-42250000D03*
X123400000Y-42250000D03*
%TD*%
D16*
%TO.C,R12*%
X120200000Y-51100000D03*
X122200000Y-51100000D03*
%TD*%
D17*
%TO.C,R11*%
X98600000Y-30600000D03*
X98600000Y-28600000D03*
%TD*%
D18*
%TO.C,R10*%
X98600000Y-46600000D03*
X98600000Y-44600000D03*
%TD*%
D17*
%TO.C,R9*%
X98600000Y-34600000D03*
X98600000Y-32600000D03*
%TD*%
D19*
%TO.C,R8*%
X86600000Y-57400000D03*
X88600000Y-57400000D03*
%TD*%
D17*
%TO.C,R6*%
X98600000Y-40600000D03*
X98600000Y-42600000D03*
%TD*%
D18*
%TO.C,R5*%
X98600000Y-36600000D03*
X98600000Y-38600000D03*
%TD*%
D20*
%TO.C,C15*%
X123800000Y-55537500D03*
X123800000Y-53462500D03*
%TD*%
%TO.C,C14*%
X118200000Y-57137500D03*
X118200000Y-55062500D03*
%TD*%
%TO.C,C13*%
X118200000Y-53137500D03*
X118200000Y-51062500D03*
%TD*%
D21*
%TO.C,C12*%
X111600000Y-55337500D03*
X111600000Y-53262500D03*
%TD*%
D20*
%TO.C,C11*%
X65000000Y-56962500D03*
X65000000Y-59037500D03*
%TD*%
%TO.C,C10*%
X74000000Y-40737500D03*
X74000000Y-38662500D03*
%TD*%
D21*
%TO.C,C9*%
X74000000Y-42487500D03*
X74000000Y-44562500D03*
%TD*%
%TO.C,C8*%
X123400000Y-46837500D03*
X123400000Y-44762500D03*
%TD*%
%TO.C,C4*%
X125400000Y-46837500D03*
X125400000Y-44762500D03*
%TD*%
D22*
%TO.C,C2*%
X122237500Y-49000000D03*
X120162500Y-49000000D03*
%TD*%
D23*
%TO.C,C1*%
X116162500Y-49000000D03*
X118237500Y-49000000D03*
%TD*%
M02*
