%TF.GenerationSoftware,KiCad,Pcbnew,8.0.6*%
%TF.CreationDate,2025-03-23T20:06:32-04:00*%
%TF.ProjectId,co2_7seg,636f325f-3773-4656-972e-6b696361645f,rev?*%
%TF.SameCoordinates,Original*%
%TF.FileFunction,Copper,L1,Top*%
%TF.FilePolarity,Positive*%
%FSLAX46Y46*%
G04 Gerber Fmt 4.6, Leading zero omitted, Abs format (unit mm)*
G04 Created by KiCad (PCBNEW 8.0.6) date 2025-03-23 20:06:32*
%MOMM*%
%LPD*%
G01*
G04 APERTURE LIST*
G04 Aperture macros list*
%AMRoundRect*
0 Rectangle with rounded corners*
0 $1 Rounding radius*
0 $2 $3 $4 $5 $6 $7 $8 $9 X,Y pos of 4 corners*
0 Add a 4 corners polygon primitive as box body*
4,1,4,$2,$3,$4,$5,$6,$7,$8,$9,$2,$3,0*
0 Add four circle primitives for the rounded corners*
1,1,$1+$1,$2,$3*
1,1,$1+$1,$4,$5*
1,1,$1+$1,$6,$7*
1,1,$1+$1,$8,$9*
0 Add four rect primitives between the rounded corners*
20,1,$1+$1,$2,$3,$4,$5,0*
20,1,$1+$1,$4,$5,$6,$7,0*
20,1,$1+$1,$6,$7,$8,$9,0*
20,1,$1+$1,$8,$9,$2,$3,0*%
G04 Aperture macros list end*
%TA.AperFunction,ComponentPad*%
%ADD10C,1.500000*%
%TD*%
%TA.AperFunction,ComponentPad*%
%ADD11C,1.270000*%
%TD*%
%TA.AperFunction,ComponentPad*%
%ADD12O,1.700000X1.700000*%
%TD*%
%TA.AperFunction,ComponentPad*%
%ADD13R,1.700000X1.700000*%
%TD*%
%TA.AperFunction,ComponentPad*%
%ADD14O,1.600000X1.600000*%
%TD*%
%TA.AperFunction,ComponentPad*%
%ADD15R,1.600000X1.600000*%
%TD*%
%TA.AperFunction,SMDPad,CuDef*%
%ADD16RoundRect,0.250000X0.450000X-0.350000X0.450000X0.350000X-0.450000X0.350000X-0.450000X-0.350000X0*%
%TD*%
%TA.AperFunction,SMDPad,CuDef*%
%ADD17RoundRect,0.250000X-0.450000X0.350000X-0.450000X-0.350000X0.450000X-0.350000X0.450000X0.350000X0*%
%TD*%
%TA.AperFunction,SMDPad,CuDef*%
%ADD18RoundRect,0.250000X-0.350000X-0.450000X0.350000X-0.450000X0.350000X0.450000X-0.350000X0.450000X0*%
%TD*%
%TA.AperFunction,ComponentPad*%
%ADD19O,1.500000X1.050000*%
%TD*%
%TA.AperFunction,ComponentPad*%
%ADD20R,1.500000X1.050000*%
%TD*%
%TA.AperFunction,ComponentPad*%
%ADD21O,3.800000X1.900000*%
%TD*%
%TA.AperFunction,ComponentPad*%
%ADD22O,1.900000X3.800000*%
%TD*%
%TA.AperFunction,ComponentPad*%
%ADD23O,2.200000X4.400000*%
%TD*%
%TA.AperFunction,SMDPad,CuDef*%
%ADD24RoundRect,0.250000X0.475000X-0.337500X0.475000X0.337500X-0.475000X0.337500X-0.475000X-0.337500X0*%
%TD*%
%TA.AperFunction,SMDPad,CuDef*%
%ADD25RoundRect,0.250000X-0.337500X-0.475000X0.337500X-0.475000X0.337500X0.475000X-0.337500X0.475000X0*%
%TD*%
%TA.AperFunction,ViaPad*%
%ADD26C,0.600000*%
%TD*%
%TA.AperFunction,Conductor*%
%ADD27C,0.200000*%
%TD*%
%TA.AperFunction,Conductor*%
%ADD28C,0.400000*%
%TD*%
G04 APERTURE END LIST*
D10*
%TO.P,R7,2*%
%TO.N,Net-(R11-Pad1)*%
X102700000Y-31000000D03*
%TO.P,R7,1*%
%TO.N,+3V3*%
X102700000Y-27600000D03*
%TD*%
D11*
%TO.P,LED4,1,1*%
%TO.N,/SEG_A*%
X113010000Y-37720000D03*
%TO.P,LED4,2,2*%
%TO.N,/SEG_F*%
X113010000Y-40260000D03*
%TO.P,LED4,3,3*%
%TO.N,/DIG_3*%
X113010000Y-42800000D03*
%TO.P,LED4,4,4*%
%TO.N,/SEG_E*%
X113010000Y-45340000D03*
%TO.P,LED4,5,5*%
%TO.N,/DIG_3*%
X113010000Y-47880000D03*
%TO.P,LED4,6,6*%
%TO.N,/SEG_LDP*%
X113010000Y-50420000D03*
%TO.P,LED4,9,9*%
%TO.N,GND*%
X128250000Y-55500000D03*
%TO.P,LED4,10,10*%
%TO.N,/SEG_D*%
X128250000Y-52960000D03*
%TO.P,LED4,11,11*%
%TO.N,/DIG_3*%
X128250000Y-50420000D03*
%TO.P,LED4,12,12*%
%TO.N,/SEG_C*%
X128250000Y-47880000D03*
%TO.P,LED4,13,13*%
%TO.N,/SEG_G*%
X128250000Y-45340000D03*
%TO.P,LED4,14,14*%
%TO.N,/SEG_B*%
X128250000Y-42800000D03*
%TO.P,LED4,16,16*%
%TO.N,/DIG_3*%
X128250000Y-37720000D03*
%TD*%
%TO.P,LED3,1,1*%
%TO.N,/SEG_A*%
X92360400Y-37720000D03*
%TO.P,LED3,2,2*%
%TO.N,/SEG_F*%
X92360400Y-40260000D03*
%TO.P,LED3,3,3*%
%TO.N,/DIG_2*%
X92360400Y-42800000D03*
%TO.P,LED3,4,4*%
%TO.N,/SEG_E*%
X92360400Y-45340000D03*
%TO.P,LED3,5,5*%
%TO.N,/DIG_2*%
X92360400Y-47880000D03*
%TO.P,LED3,6,6*%
%TO.N,/SEG_LDP*%
X92360400Y-50420000D03*
%TO.P,LED3,9,9*%
%TO.N,GND*%
X107600400Y-55500000D03*
%TO.P,LED3,10,10*%
%TO.N,/SEG_D*%
X107600400Y-52960000D03*
%TO.P,LED3,11,11*%
%TO.N,/DIG_2*%
X107600400Y-50420000D03*
%TO.P,LED3,12,12*%
%TO.N,/SEG_C*%
X107600400Y-47880000D03*
%TO.P,LED3,13,13*%
%TO.N,/SEG_G*%
X107600400Y-45340000D03*
%TO.P,LED3,14,14*%
%TO.N,/SEG_B*%
X107600400Y-42800000D03*
%TO.P,LED3,16,16*%
%TO.N,/DIG_2*%
X107600400Y-37720000D03*
%TD*%
%TO.P,LED2,1,1*%
%TO.N,/SEG_A*%
X71770000Y-37720000D03*
%TO.P,LED2,2,2*%
%TO.N,/SEG_F*%
X71770000Y-40260000D03*
%TO.P,LED2,3,3*%
%TO.N,/DIG_1*%
X71770000Y-42800000D03*
%TO.P,LED2,4,4*%
%TO.N,/SEG_E*%
X71770000Y-45340000D03*
%TO.P,LED2,5,5*%
%TO.N,/DIG_1*%
X71770000Y-47880000D03*
%TO.P,LED2,6,6*%
%TO.N,/SEG_LDP*%
X71770000Y-50420000D03*
%TO.P,LED2,9,9*%
%TO.N,GND*%
X87010000Y-55500000D03*
%TO.P,LED2,10,10*%
%TO.N,/SEG_D*%
X87010000Y-52960000D03*
%TO.P,LED2,11,11*%
%TO.N,/DIG_1*%
X87010000Y-50420000D03*
%TO.P,LED2,12,12*%
%TO.N,/SEG_C*%
X87010000Y-47880000D03*
%TO.P,LED2,13,13*%
%TO.N,/SEG_G*%
X87010000Y-45340000D03*
%TO.P,LED2,14,14*%
%TO.N,/SEG_B*%
X87010000Y-42800000D03*
%TO.P,LED2,16,16*%
%TO.N,/DIG_1*%
X87010000Y-37720000D03*
%TD*%
%TO.P,LED1,1,1*%
%TO.N,/SEG_A*%
X51260000Y-37720000D03*
%TO.P,LED1,2,2*%
%TO.N,/SEG_F*%
X51260000Y-40260000D03*
%TO.P,LED1,3,3*%
%TO.N,/DIG_0*%
X51260000Y-42800000D03*
%TO.P,LED1,4,4*%
%TO.N,/SEG_E*%
X51260000Y-45340000D03*
%TO.P,LED1,5,5*%
%TO.N,/DIG_0*%
X51260000Y-47880000D03*
%TO.P,LED1,6,6*%
%TO.N,/SEG_LDP*%
X51260000Y-50420000D03*
%TO.P,LED1,9,9*%
%TO.N,GND*%
X66500000Y-55500000D03*
%TO.P,LED1,10,10*%
%TO.N,/SEG_D*%
X66500000Y-52960000D03*
%TO.P,LED1,11,11*%
%TO.N,/DIG_0*%
X66500000Y-50420000D03*
%TO.P,LED1,12,12*%
%TO.N,/SEG_C*%
X66500000Y-47880000D03*
%TO.P,LED1,13,13*%
%TO.N,/SEG_G*%
X66500000Y-45340000D03*
%TO.P,LED1,14,14*%
%TO.N,/SEG_B*%
X66500000Y-42800000D03*
%TO.P,LED1,16,16*%
%TO.N,/DIG_0*%
X66500000Y-37720000D03*
%TD*%
D12*
%TO.P,U2,5,SDA*%
%TO.N,/i2c_sda*%
X66480000Y-29480000D03*
%TO.P,U2,4,SCL*%
%TO.N,/i2c_scl*%
X63940000Y-29480000D03*
%TO.P,U2,3,GND*%
%TO.N,GND*%
X61400000Y-29480000D03*
%TO.P,U2,2,3Vo*%
%TO.N,unconnected-(U2-3Vo-Pad2)*%
X58860000Y-29480000D03*
D13*
%TO.P,U2,1,vin*%
%TO.N,+5V*%
X56320000Y-29480000D03*
%TD*%
D14*
%TO.P,U3,24,DOUT*%
%TO.N,unconnected-(U3-DOUT-Pad24)*%
X76530000Y-28400000D03*
%TO.P,U3,23,SEG_D*%
%TO.N,/SEG_D*%
X76530000Y-30940000D03*
%TO.P,U3,22,SEG_DP*%
%TO.N,/SEG_LDP*%
X76530000Y-33480000D03*
%TO.P,U3,21,SEG_E*%
%TO.N,/SEG_E*%
X76530000Y-36020000D03*
%TO.P,U3,20,SEG_C*%
%TO.N,/SEG_C*%
X76530000Y-38560000D03*
%TO.P,U3,19,V+*%
%TO.N,+3V3*%
X76530000Y-41100000D03*
%TO.P,U3,18,ISET*%
%TO.N,/iset*%
X76530000Y-43640000D03*
%TO.P,U3,17,SEG_G*%
%TO.N,/SEG_G*%
X76530000Y-46180000D03*
%TO.P,U3,16,SEG_B*%
%TO.N,/SEG_B*%
X76530000Y-48720000D03*
%TO.P,U3,15,SEG_F*%
%TO.N,/SEG_F*%
X76530000Y-51260000D03*
%TO.P,U3,14,SEG_A*%
%TO.N,/SEG_A*%
X76530000Y-53800000D03*
%TO.P,U3,13,CLK*%
%TO.N,/spi_clk*%
X76530000Y-56340000D03*
%TO.P,U3,12,~{CS}*%
%TO.N,/spi_cs_max*%
X84150000Y-56340000D03*
%TO.P,U3,11,DIG_1*%
%TO.N,/DIG_1*%
X84150000Y-53800000D03*
%TO.P,U3,10,DIG_5*%
%TO.N,unconnected-(U3-DIG_5-Pad10)*%
X84150000Y-51260000D03*
%TO.P,U3,9,GND*%
%TO.N,GND*%
X84150000Y-48720000D03*
%TO.P,U3,8,DIG_7*%
%TO.N,unconnected-(U3-DIG_7-Pad8)*%
X84150000Y-46180000D03*
%TO.P,U3,7,DIG_3*%
%TO.N,/DIG_3*%
X84150000Y-43640000D03*
%TO.P,U3,6,DIG_2*%
%TO.N,/DIG_2*%
X84150000Y-41100000D03*
%TO.P,U3,5,DIG_6*%
%TO.N,unconnected-(U3-DIG_6-Pad5)*%
X84150000Y-38560000D03*
%TO.P,U3,4,GND*%
%TO.N,GND*%
X84150000Y-36020000D03*
%TO.P,U3,3,DIG_4*%
%TO.N,unconnected-(U3-DIG_4-Pad3)*%
X84150000Y-33480000D03*
%TO.P,U3,2,DIG_0*%
%TO.N,/DIG_0*%
X84150000Y-30940000D03*
D15*
%TO.P,U3,1,DIN*%
%TO.N,/spi_mosi*%
X84150000Y-28400000D03*
%TD*%
D16*
%TO.P,R4,2*%
%TO.N,GND*%
X115200000Y-29300000D03*
%TO.P,R4,1*%
%TO.N,/spi_miso*%
X115200000Y-31300000D03*
%TD*%
D17*
%TO.P,R3,1*%
%TO.N,+5V*%
X125200000Y-29300000D03*
%TO.P,R3,2*%
%TO.N,/i2c_sda*%
X125200000Y-31300000D03*
%TD*%
%TO.P,R2,2*%
%TO.N,/i2c_scl*%
X123200000Y-31300000D03*
%TO.P,R2,1*%
%TO.N,+5V*%
X123200000Y-29300000D03*
%TD*%
D18*
%TO.P,R1,1*%
%TO.N,+5V*%
X117600000Y-27200000D03*
%TO.P,R1,2*%
%TO.N,/mcu_reset*%
X119600000Y-27200000D03*
%TD*%
D19*
%TO.P,Q3,3,C*%
%TO.N,Net-(Q3-C)*%
X102450000Y-36800000D03*
%TO.P,Q3,2,B*%
%TO.N,Net-(Q3-B)*%
X102450000Y-35530000D03*
D20*
%TO.P,Q3,1,E*%
%TO.N,GND*%
X102450000Y-34260000D03*
%TD*%
D19*
%TO.P,Q2,3,C*%
%TO.N,Net-(Q2-C)*%
X102450000Y-49300000D03*
%TO.P,Q2,2,B*%
%TO.N,Net-(Q1-B)*%
X102450000Y-48030000D03*
D20*
%TO.P,Q2,1,E*%
%TO.N,+3V3*%
X102450000Y-46760000D03*
%TD*%
%TO.P,Q1,1,E*%
%TO.N,+3V3*%
X102450000Y-40490000D03*
D19*
%TO.P,Q1,2,B*%
%TO.N,Net-(Q1-B)*%
X102450000Y-41760000D03*
%TO.P,Q1,3,C*%
X102450000Y-43030000D03*
%TD*%
D21*
%TO.P,J3,3,Pin_3*%
%TO.N,GND*%
X59882500Y-51030000D03*
D22*
%TO.P,J3,2,Pin_2*%
X56632500Y-55720000D03*
D23*
%TO.P,J3,1,Pin_1*%
%TO.N,/v_in_raw*%
X62587500Y-55720000D03*
%TD*%
D13*
%TO.P,J2,1,Pin_1*%
%TO.N,/spi_miso*%
X112225000Y-30375000D03*
D12*
%TO.P,J2,2,Pin_2*%
%TO.N,+5V*%
X112225000Y-27835000D03*
%TO.P,J2,3,Pin_3*%
%TO.N,/spi_clk*%
X109685000Y-30375000D03*
%TO.P,J2,4,Pin_4*%
%TO.N,/spi_mosi*%
X109685000Y-27835000D03*
%TO.P,J2,5,Pin_5*%
%TO.N,/mcu_reset*%
X107145000Y-30375000D03*
%TO.P,J2,6,Pin_6*%
%TO.N,GND*%
X107145000Y-27835000D03*
%TD*%
%TO.P,J1,2,Pin_2*%
%TO.N,/uart_txd*%
X128200000Y-27935000D03*
D13*
%TO.P,J1,1,Pin_1*%
%TO.N,/uart_rxd*%
X128200000Y-30475000D03*
%TD*%
D24*
%TO.P,C7,1*%
%TO.N,+5V*%
X121200000Y-31337500D03*
%TO.P,C7,2*%
%TO.N,GND*%
X121200000Y-29262500D03*
%TD*%
%TO.P,C6,2*%
%TO.N,GND*%
X117200000Y-29262500D03*
%TO.P,C6,1*%
%TO.N,+5V*%
X117200000Y-31337500D03*
%TD*%
%TO.P,C5,2*%
%TO.N,GND*%
X119200000Y-29262500D03*
%TO.P,C5,1*%
%TO.N,+5V*%
X119200000Y-31337500D03*
%TD*%
D25*
%TO.P,C3,2*%
%TO.N,GND*%
X123387500Y-27200000D03*
%TO.P,C3,1*%
%TO.N,/mcu_reset*%
X121312500Y-27200000D03*
%TD*%
D26*
%TO.N,GND*%
X113000000Y-35500000D03*
X115000000Y-35000000D03*
%TO.N,+5V*%
X115500000Y-27000000D03*
%TO.N,GND*%
X114000000Y-29500000D03*
%TO.N,+5V*%
X126500000Y-28500000D03*
X121149319Y-32105080D03*
X118991178Y-32468240D03*
X117000000Y-32500000D03*
%TO.N,GND*%
X114000000Y-36500000D03*
X121000000Y-35000000D03*
%TO.N,+5V*%
X127500000Y-40500000D03*
X123000000Y-40000000D03*
%TO.N,GND*%
X121550000Y-41000000D03*
X124000000Y-48000000D03*
X119000000Y-48000000D03*
%TO.N,+3V3*%
X122587500Y-56750000D03*
%TO.N,GND*%
X73000000Y-43500000D03*
X72556250Y-39441439D03*
%TO.N,+5V*%
X107500000Y-59000000D03*
X106000000Y-58000000D03*
%TO.N,GND*%
X66500000Y-57000000D03*
X125500000Y-53500000D03*
X116500000Y-54000000D03*
X114661036Y-54108964D03*
X111500000Y-56500000D03*
%TO.N,/SEG_C*%
X89000000Y-48000000D03*
X94000000Y-50000000D03*
X96000000Y-50000000D03*
%TO.N,/SEG_G*%
X95000000Y-48000000D03*
%TO.N,/SEG_B*%
X90000000Y-46000000D03*
X85944103Y-49055633D03*
X94000000Y-45055000D03*
%TO.N,/SEG_LDP*%
X79000000Y-52000000D03*
%TO.N,/DIG_1*%
X70285000Y-44285000D03*
X69000000Y-36000000D03*
X74000000Y-36000000D03*
%TO.N,/DIG_3*%
X89000000Y-44000000D03*
%TO.N,/DIG_2*%
X90000000Y-42000000D03*
%TO.N,/SEG_F*%
X82500000Y-47500000D03*
X79000000Y-51000000D03*
%TO.N,/SEG_G*%
X80000000Y-44000000D03*
%TO.N,/SEG_A*%
X78000000Y-37000000D03*
X78000000Y-48000000D03*
%TO.N,/SEG_F*%
X74000000Y-50000000D03*
X75000000Y-49000000D03*
%TO.N,/SEG_LDP*%
X70000000Y-42000000D03*
X68856775Y-44319159D03*
%TO.N,/DIG_1*%
X69031430Y-45117213D03*
%TO.N,/SEG_C*%
X75000000Y-47000000D03*
%TO.N,/SEG_D*%
X70000000Y-41000000D03*
X68097860Y-43936338D03*
%TO.N,/i2c_scl*%
X87200000Y-28500000D03*
%TO.N,/i2c_sda*%
X86205038Y-28424278D03*
%TO.N,/spi_clk*%
X114728905Y-37450000D03*
X117900000Y-37000000D03*
%TO.N,/i2c_sda*%
X123300000Y-36300000D03*
%TO.N,/mcu_reset*%
X124475000Y-28125000D03*
%TO.N,/i2c_scl*%
X123400000Y-37300000D03*
%TO.N,/i2c_sda*%
X125300008Y-34400000D03*
%TO.N,/spi_miso*%
X115863797Y-34544557D03*
%TO.N,GND*%
X114000000Y-33500000D03*
%TD*%
D27*
%TO.N,+5V*%
X121200000Y-32054399D02*
X121149319Y-32105080D01*
X121200000Y-31337500D02*
X121200000Y-32054399D01*
%TO.N,GND*%
X113000000Y-35500000D02*
X114000000Y-36500000D01*
%TO.N,/i2c_scl*%
X114900075Y-36385000D02*
X122485000Y-36385000D01*
X111615075Y-33100000D02*
X114900075Y-36385000D01*
X97583703Y-28500000D02*
X102183703Y-33100000D01*
X122485000Y-36385000D02*
X123400000Y-37300000D01*
X87200000Y-28500000D02*
X97583703Y-28500000D01*
%TO.N,/i2c_sda*%
X86779316Y-27850000D02*
X86205038Y-28424278D01*
X97499389Y-27850000D02*
X86779316Y-27850000D01*
X114730761Y-35650000D02*
X111780761Y-32700000D01*
X123300000Y-36300000D02*
X122650000Y-35650000D01*
%TO.N,/i2c_scl*%
X102183703Y-33100000D02*
X111615075Y-33100000D01*
%TO.N,/i2c_sda*%
X102349389Y-32700000D02*
X97499389Y-27850000D01*
X111780761Y-32700000D02*
X102349389Y-32700000D01*
%TO.N,GND*%
X114500000Y-34000000D02*
X114500000Y-34500000D01*
%TO.N,/i2c_sda*%
X122650000Y-35650000D02*
X114730761Y-35650000D01*
%TO.N,GND*%
X114000000Y-33500000D02*
X114500000Y-34000000D01*
X114500000Y-34500000D02*
X115000000Y-35000000D01*
%TO.N,+5V*%
X117300000Y-27500000D02*
X116000000Y-27500000D01*
X116000000Y-27500000D02*
X115500000Y-27000000D01*
X112560000Y-27500000D02*
X112225000Y-27835000D01*
X117300000Y-27500000D02*
X112560000Y-27500000D01*
X117600000Y-27200000D02*
X117300000Y-27500000D01*
%TO.N,/mcu_reset*%
X108420000Y-29100000D02*
X107145000Y-30375000D01*
X114680761Y-27900000D02*
X113480761Y-29100000D01*
X116134314Y-28200000D02*
X115834314Y-27900000D01*
X119600000Y-27200000D02*
X118600000Y-28200000D01*
X113480761Y-29100000D02*
X108420000Y-29100000D01*
X115834314Y-27900000D02*
X114680761Y-27900000D01*
X118600000Y-28200000D02*
X116134314Y-28200000D01*
%TO.N,GND*%
X114200000Y-29300000D02*
X114000000Y-29500000D01*
X115200000Y-29300000D02*
X114200000Y-29300000D01*
%TO.N,+5V*%
X125700000Y-29300000D02*
X126500000Y-28500000D01*
X125200000Y-29300000D02*
X125700000Y-29300000D01*
%TO.N,GND*%
X117200000Y-29262500D02*
X115237500Y-29262500D01*
X115237500Y-29262500D02*
X115200000Y-29300000D01*
X119200000Y-29262500D02*
X117200000Y-29262500D01*
X121200000Y-29262500D02*
X119200000Y-29262500D01*
%TO.N,+5V*%
X123200000Y-29300000D02*
X125200000Y-29300000D01*
X121200000Y-31300000D02*
X123200000Y-29300000D01*
X121200000Y-31337500D02*
X121200000Y-31300000D01*
X119200000Y-32259418D02*
X118991178Y-32468240D01*
X119200000Y-31337500D02*
X119200000Y-32259418D01*
X117200000Y-32300000D02*
X117000000Y-32500000D01*
X117200000Y-31337500D02*
X117200000Y-32300000D01*
X121200000Y-31337500D02*
X117200000Y-31337500D01*
X119200000Y-31337500D02*
X121200000Y-31337500D01*
%TO.N,/spi_clk*%
X115030759Y-37148146D02*
X114728905Y-37450000D01*
X117751854Y-37148146D02*
X115030759Y-37148146D01*
X117900000Y-37000000D02*
X117751854Y-37148146D01*
D28*
%TO.N,+5V*%
X123000000Y-40000000D02*
X127000000Y-40000000D01*
X127000000Y-40000000D02*
X127500000Y-40500000D01*
D27*
%TO.N,+3V3*%
X122587500Y-56087500D02*
X122587500Y-56750000D01*
X113260000Y-46760000D02*
X122587500Y-56087500D01*
X102450000Y-46760000D02*
X113260000Y-46760000D01*
%TO.N,+5V*%
X106500000Y-58000000D02*
X107500000Y-59000000D01*
X106000000Y-58000000D02*
X106500000Y-58000000D01*
%TO.N,/spi_mosi*%
X105959925Y-29225000D02*
X107381346Y-29225000D01*
X108771346Y-27835000D02*
X109685000Y-27835000D01*
X103134925Y-32050000D02*
X105959925Y-29225000D01*
X102265075Y-32050000D02*
X103134925Y-32050000D01*
X97665075Y-27450000D02*
X102265075Y-32050000D01*
X107381346Y-29225000D02*
X108771346Y-27835000D01*
X85100000Y-27450000D02*
X97665075Y-27450000D01*
X84150000Y-28400000D02*
X85100000Y-27450000D01*
%TO.N,/spi_miso*%
X115200000Y-33880760D02*
X115863797Y-34544557D01*
X115200000Y-31300000D02*
X115200000Y-33880760D01*
%TO.N,/mcu_reset*%
X122337500Y-28225000D02*
X124375000Y-28225000D01*
X121312500Y-27200000D02*
X122337500Y-28225000D01*
X124375000Y-28225000D02*
X124475000Y-28125000D01*
X119600000Y-27200000D02*
X121312500Y-27200000D01*
%TO.N,/i2c_sda*%
X125200000Y-34299992D02*
X125300008Y-34400000D01*
X125200000Y-31300000D02*
X125200000Y-34299992D01*
%TO.N,/i2c_scl*%
X124500000Y-32600000D02*
X123200000Y-31300000D01*
X123400000Y-37300000D02*
X124500000Y-36200000D01*
X124500000Y-36200000D02*
X124500000Y-32600000D01*
%TO.N,/spi_miso*%
X114275000Y-30375000D02*
X112225000Y-30375000D01*
X115200000Y-31300000D02*
X114275000Y-30375000D01*
%TD*%
%TA.AperFunction,Conductor*%
%TO.N,GND*%
G36*
X75788702Y-32519685D02*
G01*
X75834457Y-32572489D01*
X75844401Y-32641647D01*
X75815376Y-32705203D01*
X75800330Y-32719851D01*
X75792161Y-32726555D01*
X75783587Y-32733592D01*
X75652317Y-32893547D01*
X75554769Y-33076043D01*
X75494699Y-33274067D01*
X75474417Y-33480000D01*
X75494699Y-33685932D01*
X75502174Y-33710574D01*
X75554768Y-33883954D01*
X75652315Y-34066450D01*
X75652317Y-34066452D01*
X75783589Y-34226410D01*
X75880209Y-34305702D01*
X75943550Y-34357685D01*
X76126046Y-34455232D01*
X76324066Y-34515300D01*
X76324065Y-34515300D01*
X76342529Y-34517118D01*
X76530000Y-34535583D01*
X76735934Y-34515300D01*
X76933954Y-34455232D01*
X77116450Y-34357685D01*
X77276410Y-34226410D01*
X77407685Y-34066450D01*
X77505232Y-33883954D01*
X77565300Y-33685934D01*
X77585583Y-33480000D01*
X77565300Y-33274066D01*
X77505232Y-33076046D01*
X77407685Y-32893550D01*
X77312546Y-32777622D01*
X77276412Y-32733592D01*
X77276410Y-32733590D01*
X77259671Y-32719853D01*
X77220338Y-32662108D01*
X77218467Y-32592263D01*
X77254654Y-32532495D01*
X77317410Y-32501779D01*
X77338337Y-32500000D01*
X83341663Y-32500000D01*
X83408702Y-32519685D01*
X83454457Y-32572489D01*
X83464401Y-32641647D01*
X83435376Y-32705203D01*
X83420330Y-32719851D01*
X83412161Y-32726555D01*
X83403587Y-32733592D01*
X83272317Y-32893547D01*
X83174769Y-33076043D01*
X83114699Y-33274067D01*
X83094417Y-33480000D01*
X83114699Y-33685932D01*
X83122174Y-33710574D01*
X83174768Y-33883954D01*
X83272315Y-34066450D01*
X83272317Y-34066452D01*
X83403589Y-34226410D01*
X83500209Y-34305702D01*
X83563550Y-34357685D01*
X83746046Y-34455232D01*
X83903160Y-34502891D01*
X83961597Y-34541187D01*
X83990053Y-34604999D01*
X83979493Y-34674067D01*
X83933269Y-34726460D01*
X83899257Y-34741326D01*
X83703680Y-34793731D01*
X83703673Y-34793734D01*
X83497517Y-34889865D01*
X83311179Y-35020342D01*
X83150342Y-35181179D01*
X83019865Y-35367517D01*
X82923734Y-35573673D01*
X82923730Y-35573682D01*
X82871127Y-35769999D01*
X82871128Y-35770000D01*
X83834314Y-35770000D01*
X83829920Y-35774394D01*
X83777259Y-35865606D01*
X83750000Y-35967339D01*
X83750000Y-36072661D01*
X83777259Y-36174394D01*
X83829920Y-36265606D01*
X83834314Y-36270000D01*
X82871128Y-36270000D01*
X82923730Y-36466317D01*
X82923734Y-36466326D01*
X83019865Y-36672482D01*
X83150342Y-36858820D01*
X83311179Y-37019657D01*
X83497517Y-37150134D01*
X83703673Y-37246265D01*
X83703682Y-37246269D01*
X83899256Y-37298673D01*
X83958917Y-37335038D01*
X83989446Y-37397885D01*
X83981151Y-37467261D01*
X83936666Y-37521138D01*
X83903158Y-37537109D01*
X83843355Y-37555250D01*
X83769604Y-37577622D01*
X83746043Y-37584769D01*
X83729307Y-37593715D01*
X83563550Y-37682315D01*
X83563548Y-37682316D01*
X83563547Y-37682317D01*
X83403589Y-37813589D01*
X83272317Y-37973547D01*
X83272315Y-37973550D01*
X83265484Y-37986330D01*
X83174769Y-38156043D01*
X83114699Y-38354067D01*
X83094417Y-38560000D01*
X83114699Y-38765932D01*
X83114700Y-38765934D01*
X83174768Y-38963954D01*
X83272315Y-39146450D01*
X83272317Y-39146452D01*
X83403589Y-39306410D01*
X83486558Y-39374500D01*
X83563550Y-39437685D01*
X83746046Y-39535232D01*
X83944066Y-39595300D01*
X83944065Y-39595300D01*
X83962529Y-39597118D01*
X84150000Y-39615583D01*
X84355934Y-39595300D01*
X84553954Y-39535232D01*
X84736450Y-39437685D01*
X84896410Y-39306410D01*
X85027685Y-39146450D01*
X85125232Y-38963954D01*
X85185300Y-38765934D01*
X85205583Y-38560000D01*
X85185300Y-38354066D01*
X85125232Y-38156046D01*
X85027685Y-37973550D01*
X84971526Y-37905120D01*
X84896410Y-37813589D01*
X84782370Y-37720000D01*
X86119622Y-37720000D01*
X86139079Y-37905122D01*
X86139080Y-37905124D01*
X86196596Y-38082143D01*
X86196599Y-38082149D01*
X86289669Y-38243351D01*
X86333055Y-38291536D01*
X86414215Y-38381675D01*
X86414218Y-38381677D01*
X86414221Y-38381680D01*
X86564811Y-38491090D01*
X86734852Y-38566798D01*
X86734858Y-38566800D01*
X86916930Y-38605500D01*
X86916931Y-38605500D01*
X87103069Y-38605500D01*
X87103070Y-38605500D01*
X87285142Y-38566800D01*
X87285144Y-38566798D01*
X87285147Y-38566798D01*
X87342424Y-38541296D01*
X87455189Y-38491090D01*
X87605779Y-38381680D01*
X87730331Y-38243351D01*
X87823401Y-38082149D01*
X87880921Y-37905120D01*
X87900378Y-37720000D01*
X91470022Y-37720000D01*
X91489479Y-37905122D01*
X91489480Y-37905124D01*
X91546996Y-38082143D01*
X91546999Y-38082149D01*
X91640069Y-38243351D01*
X91683455Y-38291536D01*
X91764615Y-38381675D01*
X91764618Y-38381677D01*
X91764621Y-38381680D01*
X91915211Y-38491090D01*
X92085252Y-38566798D01*
X92085258Y-38566800D01*
X92267330Y-38605500D01*
X92267331Y-38605500D01*
X92453469Y-38605500D01*
X92453470Y-38605500D01*
X92635542Y-38566800D01*
X92635544Y-38566798D01*
X92635547Y-38566798D01*
X92692824Y-38541296D01*
X92805589Y-38491090D01*
X92956179Y-38381680D01*
X93080731Y-38243351D01*
X93173801Y-38082149D01*
X93231321Y-37905120D01*
X93250778Y-37720000D01*
X106710022Y-37720000D01*
X106729479Y-37905122D01*
X106729480Y-37905124D01*
X106786996Y-38082143D01*
X106786999Y-38082149D01*
X106880069Y-38243351D01*
X106923455Y-38291536D01*
X107004615Y-38381675D01*
X107004618Y-38381677D01*
X107004621Y-38381680D01*
X107155211Y-38491090D01*
X107325252Y-38566798D01*
X107325258Y-38566800D01*
X107507330Y-38605500D01*
X107507331Y-38605500D01*
X107693469Y-38605500D01*
X107693470Y-38605500D01*
X107875542Y-38566800D01*
X107875544Y-38566798D01*
X107875547Y-38566798D01*
X107932824Y-38541296D01*
X108045589Y-38491090D01*
X108196179Y-38381680D01*
X108320731Y-38243351D01*
X108413801Y-38082149D01*
X108471321Y-37905120D01*
X108490778Y-37720000D01*
X112119622Y-37720000D01*
X112139079Y-37905122D01*
X112139080Y-37905124D01*
X112196596Y-38082143D01*
X112196599Y-38082149D01*
X112289669Y-38243351D01*
X112333055Y-38291536D01*
X112414215Y-38381675D01*
X112414218Y-38381677D01*
X112414221Y-38381680D01*
X112564811Y-38491090D01*
X112734852Y-38566798D01*
X112734858Y-38566800D01*
X112916930Y-38605500D01*
X112916931Y-38605500D01*
X113103069Y-38605500D01*
X113103070Y-38605500D01*
X113285142Y-38566800D01*
X113285144Y-38566798D01*
X113285147Y-38566798D01*
X113342424Y-38541296D01*
X113455189Y-38491090D01*
X113605779Y-38381680D01*
X113730331Y-38243351D01*
X113823401Y-38082149D01*
X113880921Y-37905120D01*
X113900378Y-37720000D01*
X113880921Y-37534880D01*
X113836409Y-37397885D01*
X113823403Y-37357856D01*
X113823400Y-37357850D01*
X113730331Y-37196649D01*
X113681547Y-37142469D01*
X113605784Y-37058324D01*
X113605781Y-37058322D01*
X113605780Y-37058321D01*
X113605779Y-37058320D01*
X113455189Y-36948910D01*
X113455188Y-36948909D01*
X113285147Y-36873201D01*
X113285141Y-36873199D01*
X113141769Y-36842725D01*
X113103070Y-36834500D01*
X112916930Y-36834500D01*
X112885014Y-36841283D01*
X112734858Y-36873199D01*
X112734852Y-36873201D01*
X112564811Y-36948909D01*
X112414218Y-37058322D01*
X112414215Y-37058324D01*
X112289668Y-37196650D01*
X112196599Y-37357850D01*
X112196596Y-37357856D01*
X112139080Y-37534875D01*
X112139079Y-37534877D01*
X112119622Y-37720000D01*
X108490778Y-37720000D01*
X108471321Y-37534880D01*
X108426809Y-37397885D01*
X108413803Y-37357856D01*
X108413800Y-37357850D01*
X108320731Y-37196649D01*
X108271947Y-37142469D01*
X108196184Y-37058324D01*
X108196181Y-37058322D01*
X108196180Y-37058321D01*
X108196179Y-37058320D01*
X108045589Y-36948910D01*
X108045588Y-36948909D01*
X107875547Y-36873201D01*
X107875541Y-36873199D01*
X107732169Y-36842725D01*
X107693470Y-36834500D01*
X107507330Y-36834500D01*
X107475414Y-36841283D01*
X107325258Y-36873199D01*
X107325252Y-36873201D01*
X107155211Y-36948909D01*
X107004618Y-37058322D01*
X107004615Y-37058324D01*
X106880068Y-37196650D01*
X106786999Y-37357850D01*
X106786996Y-37357856D01*
X106729480Y-37534875D01*
X106729479Y-37534877D01*
X106710022Y-37720000D01*
X93250778Y-37720000D01*
X93231321Y-37534880D01*
X93186809Y-37397885D01*
X93173803Y-37357856D01*
X93173800Y-37357850D01*
X93080731Y-37196649D01*
X93031947Y-37142469D01*
X92956184Y-37058324D01*
X92956181Y-37058322D01*
X92956180Y-37058321D01*
X92956179Y-37058320D01*
X92805589Y-36948910D01*
X92805588Y-36948909D01*
X92635547Y-36873201D01*
X92635541Y-36873199D01*
X92492169Y-36842725D01*
X92453470Y-36834500D01*
X92267330Y-36834500D01*
X92235414Y-36841283D01*
X92085258Y-36873199D01*
X92085252Y-36873201D01*
X91915211Y-36948909D01*
X91764618Y-37058322D01*
X91764615Y-37058324D01*
X91640068Y-37196650D01*
X91546999Y-37357850D01*
X91546996Y-37357856D01*
X91489480Y-37534875D01*
X91489479Y-37534877D01*
X91470022Y-37720000D01*
X87900378Y-37720000D01*
X87880921Y-37534880D01*
X87836409Y-37397885D01*
X87823403Y-37357856D01*
X87823400Y-37357850D01*
X87730331Y-37196649D01*
X87681547Y-37142469D01*
X87605784Y-37058324D01*
X87605781Y-37058322D01*
X87605780Y-37058321D01*
X87605779Y-37058320D01*
X87455189Y-36948910D01*
X87455188Y-36948909D01*
X87285147Y-36873201D01*
X87285141Y-36873199D01*
X87141769Y-36842725D01*
X87103070Y-36834500D01*
X86916930Y-36834500D01*
X86885014Y-36841283D01*
X86734858Y-36873199D01*
X86734852Y-36873201D01*
X86564811Y-36948909D01*
X86414218Y-37058322D01*
X86414215Y-37058324D01*
X86289668Y-37196650D01*
X86196599Y-37357850D01*
X86196596Y-37357856D01*
X86139080Y-37534875D01*
X86139079Y-37534877D01*
X86119622Y-37720000D01*
X84782370Y-37720000D01*
X84749008Y-37692621D01*
X84736450Y-37682315D01*
X84566554Y-37591502D01*
X84553956Y-37584769D01*
X84553955Y-37584768D01*
X84553954Y-37584768D01*
X84396840Y-37537108D01*
X84338402Y-37498811D01*
X84309946Y-37434999D01*
X84320506Y-37365932D01*
X84366730Y-37313538D01*
X84400743Y-37298673D01*
X84596317Y-37246269D01*
X84596326Y-37246265D01*
X84802482Y-37150134D01*
X84988820Y-37019657D01*
X85149657Y-36858820D01*
X85280134Y-36672482D01*
X85376265Y-36466326D01*
X85376269Y-36466317D01*
X85428872Y-36270000D01*
X84465686Y-36270000D01*
X84470080Y-36265606D01*
X84522741Y-36174394D01*
X84550000Y-36072661D01*
X84550000Y-35967339D01*
X84522741Y-35865606D01*
X84470080Y-35774394D01*
X84465686Y-35770000D01*
X85428872Y-35770000D01*
X85428872Y-35769999D01*
X85376269Y-35573682D01*
X85376265Y-35573673D01*
X85280134Y-35367517D01*
X85149657Y-35181179D01*
X84988820Y-35020342D01*
X84802482Y-34889865D01*
X84596326Y-34793734D01*
X84596319Y-34793731D01*
X84400742Y-34741326D01*
X84341082Y-34704961D01*
X84310553Y-34642114D01*
X84318848Y-34572738D01*
X84363333Y-34518860D01*
X84396837Y-34502892D01*
X84553954Y-34455232D01*
X84736450Y-34357685D01*
X84896410Y-34226410D01*
X85027685Y-34066450D01*
X85125232Y-33883954D01*
X85185300Y-33685934D01*
X85205583Y-33480000D01*
X85185300Y-33274066D01*
X85125232Y-33076046D01*
X85027685Y-32893550D01*
X84932546Y-32777622D01*
X84896412Y-32733592D01*
X84896410Y-32733590D01*
X84879671Y-32719853D01*
X84840338Y-32662108D01*
X84838467Y-32592263D01*
X84874654Y-32532495D01*
X84937410Y-32501779D01*
X84958337Y-32500000D01*
X101036660Y-32500000D01*
X101103699Y-32519685D01*
X101124341Y-32536319D01*
X101628660Y-33040638D01*
X101662145Y-33101961D01*
X101657161Y-33171653D01*
X101615289Y-33227586D01*
X101584313Y-33244501D01*
X101457911Y-33291646D01*
X101457906Y-33291649D01*
X101342812Y-33377809D01*
X101342809Y-33377812D01*
X101256649Y-33492906D01*
X101256645Y-33492913D01*
X101206403Y-33627620D01*
X101206401Y-33627627D01*
X101200000Y-33687155D01*
X101200000Y-34010000D01*
X102169670Y-34010000D01*
X102149925Y-34029745D01*
X102100556Y-34115255D01*
X102075000Y-34210630D01*
X102075000Y-34309370D01*
X102100556Y-34404745D01*
X102149925Y-34490255D01*
X102169670Y-34510000D01*
X101200000Y-34510000D01*
X101200000Y-34832844D01*
X101206401Y-34892372D01*
X101206403Y-34892379D01*
X101256645Y-35027086D01*
X101256649Y-35027093D01*
X101342809Y-35142186D01*
X101427041Y-35205243D01*
X101468912Y-35261177D01*
X101474347Y-35328701D01*
X101449500Y-35453615D01*
X101449500Y-35606384D01*
X101479300Y-35756197D01*
X101479302Y-35756205D01*
X101537759Y-35897334D01*
X101537764Y-35897343D01*
X101622629Y-36024351D01*
X101622632Y-36024355D01*
X101675596Y-36077319D01*
X101709081Y-36138642D01*
X101704097Y-36208334D01*
X101675596Y-36252681D01*
X101622632Y-36305644D01*
X101622631Y-36305646D01*
X101537764Y-36432656D01*
X101537759Y-36432665D01*
X101479302Y-36573794D01*
X101479300Y-36573802D01*
X101449500Y-36723615D01*
X101449500Y-36876384D01*
X101479300Y-37026197D01*
X101479302Y-37026205D01*
X101537759Y-37167334D01*
X101537764Y-37167343D01*
X101622629Y-37294351D01*
X101622632Y-37294355D01*
X101730644Y-37402367D01*
X101730648Y-37402370D01*
X101857656Y-37487235D01*
X101857662Y-37487238D01*
X101857663Y-37487239D01*
X101998795Y-37545698D01*
X102148615Y-37575499D01*
X102148619Y-37575500D01*
X102148620Y-37575500D01*
X102751381Y-37575500D01*
X102751382Y-37575499D01*
X102901205Y-37545698D01*
X103042337Y-37487239D01*
X103169352Y-37402370D01*
X103277370Y-37294352D01*
X103362239Y-37167337D01*
X103420698Y-37026205D01*
X103450500Y-36876380D01*
X103450500Y-36723620D01*
X103420698Y-36573795D01*
X103362239Y-36432663D01*
X103362238Y-36432662D01*
X103362235Y-36432656D01*
X103277369Y-36305646D01*
X103224404Y-36252681D01*
X103190919Y-36191358D01*
X103195903Y-36121666D01*
X103224404Y-36077319D01*
X103277367Y-36024355D01*
X103277370Y-36024352D01*
X103362239Y-35897337D01*
X103420698Y-35756205D01*
X103450500Y-35606380D01*
X103450500Y-35453620D01*
X103425652Y-35328700D01*
X103431879Y-35259110D01*
X103472958Y-35205243D01*
X103557191Y-35142186D01*
X103643350Y-35027093D01*
X103643354Y-35027086D01*
X103693596Y-34892379D01*
X103693598Y-34892372D01*
X103699999Y-34832844D01*
X103700000Y-34832827D01*
X103700000Y-34510000D01*
X102730330Y-34510000D01*
X102750075Y-34490255D01*
X102799444Y-34404745D01*
X102825000Y-34309370D01*
X102825000Y-34210630D01*
X102799444Y-34115255D01*
X102750075Y-34029745D01*
X102730330Y-34010000D01*
X103700000Y-34010000D01*
X103700000Y-33687172D01*
X103699999Y-33687155D01*
X103693598Y-33627627D01*
X103693596Y-33627619D01*
X103689947Y-33617835D01*
X103684961Y-33548144D01*
X103718445Y-33486820D01*
X103779768Y-33453334D01*
X103806128Y-33450500D01*
X111418531Y-33450500D01*
X111485570Y-33470185D01*
X111506212Y-33486819D01*
X114684863Y-36665470D01*
X114700071Y-36674250D01*
X114748287Y-36724817D01*
X114761511Y-36793424D01*
X114735543Y-36858289D01*
X114678630Y-36898818D01*
X114654259Y-36904577D01*
X114585196Y-36913670D01*
X114585192Y-36913671D01*
X114451282Y-36969137D01*
X114336284Y-37057379D01*
X114248042Y-37172377D01*
X114192576Y-37306287D01*
X114192575Y-37306291D01*
X114173655Y-37450000D01*
X114191603Y-37586329D01*
X114192575Y-37593708D01*
X114192576Y-37593712D01*
X114248042Y-37727622D01*
X114248043Y-37727624D01*
X114248044Y-37727625D01*
X114336284Y-37842621D01*
X114451280Y-37930861D01*
X114585196Y-37986330D01*
X114712185Y-38003048D01*
X114728904Y-38005250D01*
X114728905Y-38005250D01*
X114728906Y-38005250D01*
X114743882Y-38003278D01*
X114872614Y-37986330D01*
X115006530Y-37930861D01*
X115121526Y-37842621D01*
X115209766Y-37727625D01*
X115265235Y-37593709D01*
X115265236Y-37593698D01*
X115266079Y-37590556D01*
X115267521Y-37588189D01*
X115268345Y-37586201D01*
X115268655Y-37586329D01*
X115302443Y-37530894D01*
X115365289Y-37500363D01*
X115385855Y-37498646D01*
X117640648Y-37498646D01*
X117688096Y-37508083D01*
X117756291Y-37536330D01*
X117852097Y-37548943D01*
X117899999Y-37555250D01*
X117900000Y-37555250D01*
X117900001Y-37555250D01*
X117914977Y-37553278D01*
X118043709Y-37536330D01*
X118177625Y-37480861D01*
X118292621Y-37392621D01*
X118380861Y-37277625D01*
X118436330Y-37143709D01*
X118455250Y-37000000D01*
X118438883Y-36875684D01*
X118449648Y-36806651D01*
X118496028Y-36754395D01*
X118561822Y-36735500D01*
X122288456Y-36735500D01*
X122355495Y-36755185D01*
X122376137Y-36771819D01*
X122808440Y-37204121D01*
X122841925Y-37265444D01*
X122843090Y-37291873D01*
X122844750Y-37291873D01*
X122844750Y-37300000D01*
X122863670Y-37443708D01*
X122863671Y-37443712D01*
X122919137Y-37577622D01*
X122919138Y-37577624D01*
X122919139Y-37577625D01*
X123007379Y-37692621D01*
X123122375Y-37780861D01*
X123256291Y-37836330D01*
X123383280Y-37853048D01*
X123399999Y-37855250D01*
X123400000Y-37855250D01*
X123400001Y-37855250D01*
X123414977Y-37853278D01*
X123543709Y-37836330D01*
X123677625Y-37780861D01*
X123756940Y-37720000D01*
X127359622Y-37720000D01*
X127379079Y-37905122D01*
X127379080Y-37905124D01*
X127436596Y-38082143D01*
X127436599Y-38082149D01*
X127529669Y-38243351D01*
X127573055Y-38291536D01*
X127654215Y-38381675D01*
X127654218Y-38381677D01*
X127654221Y-38381680D01*
X127804811Y-38491090D01*
X127974852Y-38566798D01*
X127974858Y-38566800D01*
X128156930Y-38605500D01*
X128156931Y-38605500D01*
X128343069Y-38605500D01*
X128343070Y-38605500D01*
X128525142Y-38566800D01*
X128525144Y-38566798D01*
X128525147Y-38566798D01*
X128582424Y-38541296D01*
X128695189Y-38491090D01*
X128845779Y-38381680D01*
X128970331Y-38243351D01*
X129063401Y-38082149D01*
X129120921Y-37905120D01*
X129140378Y-37720000D01*
X129120921Y-37534880D01*
X129076409Y-37397885D01*
X129063403Y-37357856D01*
X129063400Y-37357850D01*
X128970331Y-37196649D01*
X128921547Y-37142469D01*
X128845784Y-37058324D01*
X128845781Y-37058322D01*
X128845780Y-37058321D01*
X128845779Y-37058320D01*
X128695189Y-36948910D01*
X128695188Y-36948909D01*
X128525147Y-36873201D01*
X128525141Y-36873199D01*
X128381769Y-36842725D01*
X128343070Y-36834500D01*
X128156930Y-36834500D01*
X128125014Y-36841283D01*
X127974858Y-36873199D01*
X127974852Y-36873201D01*
X127804811Y-36948909D01*
X127654218Y-37058322D01*
X127654215Y-37058324D01*
X127529668Y-37196650D01*
X127436599Y-37357850D01*
X127436596Y-37357856D01*
X127379080Y-37534875D01*
X127379079Y-37534877D01*
X127359622Y-37720000D01*
X123756940Y-37720000D01*
X123792621Y-37692621D01*
X123880861Y-37577625D01*
X123936330Y-37443709D01*
X123955250Y-37300000D01*
X123955250Y-37299999D01*
X123955250Y-37291871D01*
X123959049Y-37291871D01*
X123966388Y-37240418D01*
X123991556Y-37204124D01*
X124780470Y-36415212D01*
X124826614Y-36335288D01*
X124834556Y-36305648D01*
X124850500Y-36246144D01*
X124850500Y-34995243D01*
X124870185Y-34928204D01*
X124922989Y-34882449D01*
X124992147Y-34872505D01*
X125021953Y-34880682D01*
X125022380Y-34880859D01*
X125022383Y-34880861D01*
X125156299Y-34936330D01*
X125283288Y-34953048D01*
X125300007Y-34955250D01*
X125300008Y-34955250D01*
X125300009Y-34955250D01*
X125314985Y-34953278D01*
X125443717Y-34936330D01*
X125577633Y-34880861D01*
X125692629Y-34792621D01*
X125780869Y-34677625D01*
X125836338Y-34543709D01*
X125855258Y-34400000D01*
X125836338Y-34256291D01*
X125780869Y-34122375D01*
X125692629Y-34007379D01*
X125630786Y-33959925D01*
X125599013Y-33935544D01*
X125557811Y-33879116D01*
X125550500Y-33837169D01*
X125550500Y-32500000D01*
X130499500Y-32500000D01*
X130499500Y-59244586D01*
X130499028Y-59255394D01*
X130485260Y-59412753D01*
X130481507Y-59434038D01*
X130442030Y-59581369D01*
X130434637Y-59601681D01*
X130370177Y-59739915D01*
X130359370Y-59758633D01*
X130271880Y-59883582D01*
X130257986Y-59900140D01*
X130150140Y-60007986D01*
X130133582Y-60021880D01*
X130008633Y-60109370D01*
X129989915Y-60120177D01*
X129851681Y-60184637D01*
X129831369Y-60192030D01*
X129684038Y-60231507D01*
X129662753Y-60235260D01*
X129505395Y-60249028D01*
X129494587Y-60249500D01*
X50005413Y-60249500D01*
X49994605Y-60249028D01*
X49837246Y-60235260D01*
X49815961Y-60231507D01*
X49668630Y-60192030D01*
X49648318Y-60184637D01*
X49510084Y-60120177D01*
X49491366Y-60109370D01*
X49366417Y-60021880D01*
X49349859Y-60007986D01*
X49242013Y-59900140D01*
X49228119Y-59883582D01*
X49140629Y-59758633D01*
X49129822Y-59739915D01*
X49065362Y-59601681D01*
X49057969Y-59581369D01*
X49045900Y-59536328D01*
X49018491Y-59434035D01*
X49014739Y-59412752D01*
X49000972Y-59255393D01*
X49000500Y-59244586D01*
X49000500Y-54655883D01*
X55182500Y-54655883D01*
X55182500Y-55470000D01*
X56252500Y-55470000D01*
X56252500Y-55970000D01*
X55182500Y-55970000D01*
X55182500Y-56784116D01*
X55218204Y-57009544D01*
X55288730Y-57226604D01*
X55392349Y-57429966D01*
X55526504Y-57614614D01*
X55687885Y-57775995D01*
X55872533Y-57910150D01*
X56075895Y-58013769D01*
X56292955Y-58084295D01*
X56382500Y-58098478D01*
X56382500Y-57152401D01*
X56399175Y-57169076D01*
X56485825Y-57219104D01*
X56582472Y-57245000D01*
X56682528Y-57245000D01*
X56779175Y-57219104D01*
X56865825Y-57169076D01*
X56882500Y-57152401D01*
X56882500Y-58098477D01*
X56972044Y-58084295D01*
X57189104Y-58013769D01*
X57392466Y-57910150D01*
X57577114Y-57775995D01*
X57738495Y-57614614D01*
X57872650Y-57429966D01*
X57976269Y-57226604D01*
X58046795Y-57009544D01*
X58082500Y-56784116D01*
X58082500Y-55970000D01*
X57012500Y-55970000D01*
X57012500Y-55470000D01*
X58082500Y-55470000D01*
X58082500Y-54655883D01*
X58059982Y-54513713D01*
X61237000Y-54513713D01*
X61237000Y-56926287D01*
X61270254Y-57136243D01*
X61328411Y-57315232D01*
X61335944Y-57338414D01*
X61432451Y-57527820D01*
X61557390Y-57699786D01*
X61707713Y-57850109D01*
X61879679Y-57975048D01*
X61879681Y-57975049D01*
X61879684Y-57975051D01*
X62069088Y-58071557D01*
X62271257Y-58137246D01*
X62481213Y-58170500D01*
X62481214Y-58170500D01*
X62693786Y-58170500D01*
X62693787Y-58170500D01*
X62903743Y-58137246D01*
X63105912Y-58071557D01*
X63246353Y-57999999D01*
X105444750Y-57999999D01*
X105444750Y-58000000D01*
X105463670Y-58143708D01*
X105463671Y-58143712D01*
X105519137Y-58277622D01*
X105519138Y-58277624D01*
X105519139Y-58277625D01*
X105607379Y-58392621D01*
X105722375Y-58480861D01*
X105856291Y-58536330D01*
X105983280Y-58553048D01*
X105999999Y-58555250D01*
X106000000Y-58555250D01*
X106000001Y-58555250D01*
X106014977Y-58553278D01*
X106143709Y-58536330D01*
X106277625Y-58480861D01*
X106308792Y-58456945D01*
X106373957Y-58431751D01*
X106442402Y-58445788D01*
X106471958Y-58467640D01*
X106908440Y-58904122D01*
X106941925Y-58965445D01*
X106943067Y-58991873D01*
X106944750Y-58991873D01*
X106944750Y-59000000D01*
X106963670Y-59143708D01*
X106963671Y-59143712D01*
X107019137Y-59277622D01*
X107019138Y-59277624D01*
X107019139Y-59277625D01*
X107107379Y-59392621D01*
X107222375Y-59480861D01*
X107356291Y-59536330D01*
X107483280Y-59553048D01*
X107499999Y-59555250D01*
X107500000Y-59555250D01*
X107500001Y-59555250D01*
X107514977Y-59553278D01*
X107643709Y-59536330D01*
X107777625Y-59480861D01*
X107892621Y-59392621D01*
X107980861Y-59277625D01*
X108036330Y-59143709D01*
X108055250Y-59000000D01*
X108036330Y-58856291D01*
X107980861Y-58722375D01*
X107892621Y-58607379D01*
X107777625Y-58519139D01*
X107777624Y-58519138D01*
X107777622Y-58519137D01*
X107643712Y-58463671D01*
X107643710Y-58463670D01*
X107643709Y-58463670D01*
X107552638Y-58451680D01*
X107500001Y-58444750D01*
X107491873Y-58444750D01*
X107491873Y-58441243D01*
X107438613Y-58432772D01*
X107404122Y-58408440D01*
X106715213Y-57719531D01*
X106715208Y-57719527D01*
X106635291Y-57673387D01*
X106635287Y-57673385D01*
X106629926Y-57671949D01*
X106629926Y-57671948D01*
X106561476Y-57653608D01*
X106546144Y-57649500D01*
X106546143Y-57649500D01*
X106486092Y-57649500D01*
X106419053Y-57629815D01*
X106399587Y-57611913D01*
X106398372Y-57613129D01*
X106392627Y-57607384D01*
X106392621Y-57607379D01*
X106277625Y-57519139D01*
X106277624Y-57519138D01*
X106277622Y-57519137D01*
X106143712Y-57463671D01*
X106143710Y-57463670D01*
X106143709Y-57463670D01*
X106071854Y-57454210D01*
X106000001Y-57444750D01*
X105999999Y-57444750D01*
X105856291Y-57463670D01*
X105856287Y-57463671D01*
X105722377Y-57519137D01*
X105607379Y-57607379D01*
X105519137Y-57722377D01*
X105463671Y-57856287D01*
X105463670Y-57856291D01*
X105444750Y-57999999D01*
X63246353Y-57999999D01*
X63295316Y-57975051D01*
X63317289Y-57959086D01*
X63467286Y-57850109D01*
X63467288Y-57850106D01*
X63467292Y-57850104D01*
X63617604Y-57699792D01*
X63617606Y-57699788D01*
X63617609Y-57699786D01*
X63742548Y-57527820D01*
X63742547Y-57527820D01*
X63742551Y-57527816D01*
X63839057Y-57338412D01*
X63904746Y-57136243D01*
X63938000Y-56926287D01*
X63938000Y-55499999D01*
X65360138Y-55499999D01*
X65360138Y-55500000D01*
X65379545Y-55709444D01*
X65437111Y-55911769D01*
X65530871Y-56100062D01*
X65537545Y-56108899D01*
X66119000Y-55527446D01*
X66119000Y-55550160D01*
X66144964Y-55647061D01*
X66195124Y-55733940D01*
X66266060Y-55804876D01*
X66352939Y-55855036D01*
X66449840Y-55881000D01*
X66472553Y-55881000D01*
X65893887Y-56459663D01*
X65991918Y-56520362D01*
X65991920Y-56520363D01*
X66188063Y-56596348D01*
X66394829Y-56635000D01*
X66605171Y-56635000D01*
X66811935Y-56596348D01*
X66811936Y-56596348D01*
X67008079Y-56520363D01*
X67008080Y-56520362D01*
X67106110Y-56459664D01*
X67106111Y-56459663D01*
X66986448Y-56340000D01*
X75474417Y-56340000D01*
X75494699Y-56545932D01*
X75494700Y-56545934D01*
X75554768Y-56743954D01*
X75652315Y-56926450D01*
X75652317Y-56926452D01*
X75783589Y-57086410D01*
X75880209Y-57165702D01*
X75943550Y-57217685D01*
X76126046Y-57315232D01*
X76324066Y-57375300D01*
X76324065Y-57375300D01*
X76342529Y-57377118D01*
X76530000Y-57395583D01*
X76735934Y-57375300D01*
X76933954Y-57315232D01*
X77116450Y-57217685D01*
X77276410Y-57086410D01*
X77407685Y-56926450D01*
X77505232Y-56743954D01*
X77565300Y-56545934D01*
X77585583Y-56340000D01*
X83094417Y-56340000D01*
X83114699Y-56545932D01*
X83114700Y-56545934D01*
X83174768Y-56743954D01*
X83272315Y-56926450D01*
X83272317Y-56926452D01*
X83403589Y-57086410D01*
X83500209Y-57165702D01*
X83563550Y-57217685D01*
X83746046Y-57315232D01*
X83944066Y-57375300D01*
X83944065Y-57375300D01*
X83962529Y-57377118D01*
X84150000Y-57395583D01*
X84355934Y-57375300D01*
X84553954Y-57315232D01*
X84736450Y-57217685D01*
X84896410Y-57086410D01*
X85027685Y-56926450D01*
X85125232Y-56743954D01*
X85185300Y-56545934D01*
X85205583Y-56340000D01*
X85185300Y-56134066D01*
X85125232Y-55936046D01*
X85027685Y-55753550D01*
X84975702Y-55690209D01*
X84896410Y-55593589D01*
X84782368Y-55499999D01*
X85870138Y-55499999D01*
X85870138Y-55500000D01*
X85889545Y-55709444D01*
X85947111Y-55911769D01*
X86040871Y-56100062D01*
X86047545Y-56108899D01*
X86629000Y-55527446D01*
X86629000Y-55550160D01*
X86654964Y-55647061D01*
X86705124Y-55733940D01*
X86776060Y-55804876D01*
X86862939Y-55855036D01*
X86959840Y-55881000D01*
X86982553Y-55881000D01*
X86403887Y-56459663D01*
X86501918Y-56520362D01*
X86501920Y-56520363D01*
X86698063Y-56596348D01*
X86904829Y-56635000D01*
X87115171Y-56635000D01*
X87321935Y-56596348D01*
X87321936Y-56596348D01*
X87518079Y-56520363D01*
X87518080Y-56520362D01*
X87616110Y-56459664D01*
X87616111Y-56459663D01*
X87037448Y-55881000D01*
X87060160Y-55881000D01*
X87157061Y-55855036D01*
X87243940Y-55804876D01*
X87314876Y-55733940D01*
X87365036Y-55647061D01*
X87391000Y-55550160D01*
X87391000Y-55527447D01*
X87972452Y-56108899D01*
X87972453Y-56108899D01*
X87979128Y-56100061D01*
X88072888Y-55911769D01*
X88130454Y-55709444D01*
X88149862Y-55500000D01*
X88149862Y-55499999D01*
X106460538Y-55499999D01*
X106460538Y-55500000D01*
X106479945Y-55709444D01*
X106537511Y-55911769D01*
X106631271Y-56100062D01*
X106637945Y-56108899D01*
X107219400Y-55527446D01*
X107219400Y-55550160D01*
X107245364Y-55647061D01*
X107295524Y-55733940D01*
X107366460Y-55804876D01*
X107453339Y-55855036D01*
X107550240Y-55881000D01*
X107572953Y-55881000D01*
X106994287Y-56459663D01*
X107092318Y-56520362D01*
X107092320Y-56520363D01*
X107288463Y-56596348D01*
X107495229Y-56635000D01*
X107705571Y-56635000D01*
X107912335Y-56596348D01*
X107912336Y-56596348D01*
X108108479Y-56520363D01*
X108108480Y-56520362D01*
X108206510Y-56459664D01*
X108206511Y-56459663D01*
X107627848Y-55881000D01*
X107650560Y-55881000D01*
X107747461Y-55855036D01*
X107834340Y-55804876D01*
X107905276Y-55733940D01*
X107955436Y-55647061D01*
X107981400Y-55550160D01*
X107981400Y-55527447D01*
X108562852Y-56108899D01*
X108562853Y-56108899D01*
X108569528Y-56100061D01*
X108663288Y-55911769D01*
X108720854Y-55709444D01*
X108740262Y-55500000D01*
X108740262Y-55499999D01*
X108720854Y-55290555D01*
X108663288Y-55088230D01*
X108569530Y-54899941D01*
X108569528Y-54899937D01*
X108562853Y-54891099D01*
X108562852Y-54891098D01*
X107981400Y-55472551D01*
X107981400Y-55449840D01*
X107955436Y-55352939D01*
X107905276Y-55266060D01*
X107834340Y-55195124D01*
X107747461Y-55144964D01*
X107650560Y-55119000D01*
X107627848Y-55119000D01*
X108206511Y-54540335D01*
X108206510Y-54540334D01*
X108108483Y-54479638D01*
X108108477Y-54479636D01*
X107912336Y-54403651D01*
X107705571Y-54365000D01*
X107495229Y-54365000D01*
X107288464Y-54403651D01*
X107288463Y-54403651D01*
X107092323Y-54479635D01*
X106994287Y-54540335D01*
X107572953Y-55119000D01*
X107550240Y-55119000D01*
X107453339Y-55144964D01*
X107366460Y-55195124D01*
X107295524Y-55266060D01*
X107245364Y-55352939D01*
X107219400Y-55449840D01*
X107219400Y-55472553D01*
X106637946Y-54891099D01*
X106637945Y-54891099D01*
X106631270Y-54899939D01*
X106537511Y-55088230D01*
X106479945Y-55290555D01*
X106460538Y-55499999D01*
X88149862Y-55499999D01*
X88130454Y-55290555D01*
X88072888Y-55088230D01*
X87979130Y-54899941D01*
X87979128Y-54899937D01*
X87972453Y-54891099D01*
X87972452Y-54891098D01*
X87391000Y-55472551D01*
X87391000Y-55449840D01*
X87365036Y-55352939D01*
X87314876Y-55266060D01*
X87243940Y-55195124D01*
X87157061Y-55144964D01*
X87060160Y-55119000D01*
X87037448Y-55119000D01*
X87616111Y-54540335D01*
X87616110Y-54540334D01*
X87518083Y-54479638D01*
X87518077Y-54479636D01*
X87321936Y-54403651D01*
X87115171Y-54365000D01*
X86904829Y-54365000D01*
X86698064Y-54403651D01*
X86698063Y-54403651D01*
X86501923Y-54479635D01*
X86403887Y-54540335D01*
X86982553Y-55119000D01*
X86959840Y-55119000D01*
X86862939Y-55144964D01*
X86776060Y-55195124D01*
X86705124Y-55266060D01*
X86654964Y-55352939D01*
X86629000Y-55449840D01*
X86629000Y-55472553D01*
X86047546Y-54891099D01*
X86047545Y-54891099D01*
X86040870Y-54899939D01*
X85947111Y-55088230D01*
X85889545Y-55290555D01*
X85870138Y-55499999D01*
X84782368Y-55499999D01*
X84736452Y-55462317D01*
X84736453Y-55462317D01*
X84736450Y-55462315D01*
X84553954Y-55364768D01*
X84355934Y-55304700D01*
X84355932Y-55304699D01*
X84355934Y-55304699D01*
X84150000Y-55284417D01*
X83944067Y-55304699D01*
X83746043Y-55364769D01*
X83635898Y-55423643D01*
X83563550Y-55462315D01*
X83563548Y-55462316D01*
X83563547Y-55462317D01*
X83403589Y-55593589D01*
X83288408Y-55733940D01*
X83272315Y-55753550D01*
X83233643Y-55825898D01*
X83174769Y-55936043D01*
X83114699Y-56134067D01*
X83094417Y-56340000D01*
X77585583Y-56340000D01*
X77565300Y-56134066D01*
X77505232Y-55936046D01*
X77407685Y-55753550D01*
X77355702Y-55690209D01*
X77276410Y-55593589D01*
X77116452Y-55462317D01*
X77116453Y-55462317D01*
X77116450Y-55462315D01*
X76933954Y-55364768D01*
X76735934Y-55304700D01*
X76735932Y-55304699D01*
X76735934Y-55304699D01*
X76530000Y-55284417D01*
X76324067Y-55304699D01*
X76126043Y-55364769D01*
X76015898Y-55423643D01*
X75943550Y-55462315D01*
X75943548Y-55462316D01*
X75943547Y-55462317D01*
X75783589Y-55593589D01*
X75668408Y-55733940D01*
X75652315Y-55753550D01*
X75613643Y-55825898D01*
X75554769Y-55936043D01*
X75494699Y-56134067D01*
X75474417Y-56340000D01*
X66986448Y-56340000D01*
X66527448Y-55881000D01*
X66550160Y-55881000D01*
X66647061Y-55855036D01*
X66733940Y-55804876D01*
X66804876Y-55733940D01*
X66855036Y-55647061D01*
X66881000Y-55550160D01*
X66881000Y-55527447D01*
X67462452Y-56108899D01*
X67462453Y-56108899D01*
X67469128Y-56100061D01*
X67562888Y-55911769D01*
X67620454Y-55709444D01*
X67639862Y-55500000D01*
X67639862Y-55499999D01*
X67620454Y-55290555D01*
X67562888Y-55088230D01*
X67469130Y-54899941D01*
X67469128Y-54899937D01*
X67462453Y-54891099D01*
X67462452Y-54891098D01*
X66881000Y-55472551D01*
X66881000Y-55449840D01*
X66855036Y-55352939D01*
X66804876Y-55266060D01*
X66733940Y-55195124D01*
X66647061Y-55144964D01*
X66550160Y-55119000D01*
X66527448Y-55119000D01*
X67106111Y-54540335D01*
X67106110Y-54540334D01*
X67008083Y-54479638D01*
X67008077Y-54479636D01*
X66811936Y-54403651D01*
X66605171Y-54365000D01*
X66394829Y-54365000D01*
X66188064Y-54403651D01*
X66188063Y-54403651D01*
X65991923Y-54479635D01*
X65893887Y-54540335D01*
X66472553Y-55119000D01*
X66449840Y-55119000D01*
X66352939Y-55144964D01*
X66266060Y-55195124D01*
X66195124Y-55266060D01*
X66144964Y-55352939D01*
X66119000Y-55449840D01*
X66119000Y-55472553D01*
X65537546Y-54891099D01*
X65537545Y-54891099D01*
X65530870Y-54899939D01*
X65437111Y-55088230D01*
X65379545Y-55290555D01*
X65360138Y-55499999D01*
X63938000Y-55499999D01*
X63938000Y-54513713D01*
X63904746Y-54303757D01*
X63839057Y-54101588D01*
X63742551Y-53912184D01*
X63742549Y-53912181D01*
X63742548Y-53912179D01*
X63617609Y-53740213D01*
X63467286Y-53589890D01*
X63295320Y-53464951D01*
X63105914Y-53368444D01*
X63105913Y-53368443D01*
X63105912Y-53368443D01*
X62903743Y-53302754D01*
X62903741Y-53302753D01*
X62903740Y-53302753D01*
X62742457Y-53277208D01*
X62693787Y-53269500D01*
X62481213Y-53269500D01*
X62432542Y-53277208D01*
X62271260Y-53302753D01*
X62069085Y-53368444D01*
X61879679Y-53464951D01*
X61707713Y-53589890D01*
X61557390Y-53740213D01*
X61432451Y-53912179D01*
X61335944Y-54101585D01*
X61270253Y-54303760D01*
X61257156Y-54386452D01*
X61237000Y-54513713D01*
X58059982Y-54513713D01*
X58046795Y-54430455D01*
X57976269Y-54213395D01*
X57872650Y-54010033D01*
X57738495Y-53825385D01*
X57577114Y-53664004D01*
X57392466Y-53529849D01*
X57189102Y-53426229D01*
X56972041Y-53355703D01*
X56882500Y-53341521D01*
X56882500Y-54287599D01*
X56865825Y-54270924D01*
X56779175Y-54220896D01*
X56682528Y-54195000D01*
X56582472Y-54195000D01*
X56485825Y-54220896D01*
X56399175Y-54270924D01*
X56382500Y-54287599D01*
X56382500Y-53341521D01*
X56382499Y-53341521D01*
X56292958Y-53355703D01*
X56075897Y-53426229D01*
X55872533Y-53529849D01*
X55687885Y-53664004D01*
X55526504Y-53825385D01*
X55392349Y-54010033D01*
X55288730Y-54213395D01*
X55218204Y-54430455D01*
X55182500Y-54655883D01*
X49000500Y-54655883D01*
X49000500Y-52960000D01*
X65609622Y-52960000D01*
X65629079Y-53145122D01*
X65629080Y-53145124D01*
X65686596Y-53322143D01*
X65686599Y-53322149D01*
X65779669Y-53483351D01*
X65821536Y-53529849D01*
X65904215Y-53621675D01*
X65904218Y-53621677D01*
X65904221Y-53621680D01*
X66054811Y-53731090D01*
X66224852Y-53806798D01*
X66224858Y-53806800D01*
X66406930Y-53845500D01*
X66406931Y-53845500D01*
X66593069Y-53845500D01*
X66593070Y-53845500D01*
X66775142Y-53806800D01*
X66775144Y-53806798D01*
X66775147Y-53806798D01*
X66790415Y-53800000D01*
X75474417Y-53800000D01*
X75494699Y-54005932D01*
X75494700Y-54005934D01*
X75554768Y-54203954D01*
X75652315Y-54386450D01*
X75686681Y-54428325D01*
X75783589Y-54546410D01*
X75880209Y-54625702D01*
X75943550Y-54677685D01*
X76126046Y-54775232D01*
X76324066Y-54835300D01*
X76324065Y-54835300D01*
X76342529Y-54837118D01*
X76530000Y-54855583D01*
X76735934Y-54835300D01*
X76933954Y-54775232D01*
X77116450Y-54677685D01*
X77276410Y-54546410D01*
X77407685Y-54386450D01*
X77505232Y-54203954D01*
X77565300Y-54005934D01*
X77585583Y-53800000D01*
X83094417Y-53800000D01*
X83114699Y-54005932D01*
X83114700Y-54005934D01*
X83174768Y-54203954D01*
X83272315Y-54386450D01*
X83306681Y-54428325D01*
X83403589Y-54546410D01*
X83500209Y-54625702D01*
X83563550Y-54677685D01*
X83746046Y-54775232D01*
X83944066Y-54835300D01*
X83944065Y-54835300D01*
X83962529Y-54837118D01*
X84150000Y-54855583D01*
X84355934Y-54835300D01*
X84553954Y-54775232D01*
X84736450Y-54677685D01*
X84896410Y-54546410D01*
X85027685Y-54386450D01*
X85125232Y-54203954D01*
X85185300Y-54005934D01*
X85205583Y-53800000D01*
X85185300Y-53594066D01*
X85125232Y-53396046D01*
X85027685Y-53213550D01*
X84971526Y-53145120D01*
X84896410Y-53053589D01*
X84782370Y-52960000D01*
X86119622Y-52960000D01*
X86139079Y-53145122D01*
X86139080Y-53145124D01*
X86196596Y-53322143D01*
X86196599Y-53322149D01*
X86289669Y-53483351D01*
X86331536Y-53529849D01*
X86414215Y-53621675D01*
X86414218Y-53621677D01*
X86414221Y-53621680D01*
X86564811Y-53731090D01*
X86734852Y-53806798D01*
X86734858Y-53806800D01*
X86916930Y-53845500D01*
X86916931Y-53845500D01*
X87103069Y-53845500D01*
X87103070Y-53845500D01*
X87285142Y-53806800D01*
X87285144Y-53806798D01*
X87285147Y-53806798D01*
X87434698Y-53740213D01*
X87455189Y-53731090D01*
X87605779Y-53621680D01*
X87730331Y-53483351D01*
X87823401Y-53322149D01*
X87880921Y-53145120D01*
X87900378Y-52960000D01*
X106710022Y-52960000D01*
X106729479Y-53145122D01*
X106729480Y-53145124D01*
X106786996Y-53322143D01*
X106786999Y-53322149D01*
X106880069Y-53483351D01*
X106921936Y-53529849D01*
X107004615Y-53621675D01*
X107004618Y-53621677D01*
X107004621Y-53621680D01*
X107155211Y-53731090D01*
X107325252Y-53806798D01*
X107325258Y-53806800D01*
X107507330Y-53845500D01*
X107507331Y-53845500D01*
X107693469Y-53845500D01*
X107693470Y-53845500D01*
X107875542Y-53806800D01*
X107875544Y-53806798D01*
X107875547Y-53806798D01*
X108025098Y-53740213D01*
X108045589Y-53731090D01*
X108196179Y-53621680D01*
X108320731Y-53483351D01*
X108413801Y-53322149D01*
X108471321Y-53145120D01*
X108490778Y-52960000D01*
X108471321Y-52774880D01*
X108413801Y-52597851D01*
X108320731Y-52436649D01*
X108264114Y-52373769D01*
X108196184Y-52298324D01*
X108196181Y-52298322D01*
X108196180Y-52298321D01*
X108196179Y-52298320D01*
X108045589Y-52188910D01*
X108045588Y-52188909D01*
X107875547Y-52113201D01*
X107875541Y-52113199D01*
X107732169Y-52082725D01*
X107693470Y-52074500D01*
X107507330Y-52074500D01*
X107475414Y-52081283D01*
X107325258Y-52113199D01*
X107325252Y-52113201D01*
X107155211Y-52188909D01*
X107004618Y-52298322D01*
X107004615Y-52298324D01*
X106880068Y-52436650D01*
X106786999Y-52597850D01*
X106786996Y-52597856D01*
X106729480Y-52774875D01*
X106729479Y-52774877D01*
X106710022Y-52960000D01*
X87900378Y-52960000D01*
X87880921Y-52774880D01*
X87823401Y-52597851D01*
X87730331Y-52436649D01*
X87673714Y-52373769D01*
X87605784Y-52298324D01*
X87605781Y-52298322D01*
X87605780Y-52298321D01*
X87605779Y-52298320D01*
X87455189Y-52188910D01*
X87455188Y-52188909D01*
X87285147Y-52113201D01*
X87285141Y-52113199D01*
X87141769Y-52082725D01*
X87103070Y-52074500D01*
X86916930Y-52074500D01*
X86885014Y-52081283D01*
X86734858Y-52113199D01*
X86734852Y-52113201D01*
X86564811Y-52188909D01*
X86414218Y-52298322D01*
X86414215Y-52298324D01*
X86289668Y-52436650D01*
X86196599Y-52597850D01*
X86196596Y-52597856D01*
X86139080Y-52774875D01*
X86139079Y-52774877D01*
X86119622Y-52960000D01*
X84782370Y-52960000D01*
X84736452Y-52922317D01*
X84736453Y-52922317D01*
X84736450Y-52922315D01*
X84553954Y-52824768D01*
X84355934Y-52764700D01*
X84355932Y-52764699D01*
X84355934Y-52764699D01*
X84150000Y-52744417D01*
X83944067Y-52764699D01*
X83746043Y-52824769D01*
X83635898Y-52883643D01*
X83563550Y-52922315D01*
X83563548Y-52922316D01*
X83563547Y-52922317D01*
X83403589Y-53053589D01*
X83272317Y-53213547D01*
X83174769Y-53396043D01*
X83114699Y-53594067D01*
X83094417Y-53800000D01*
X77585583Y-53800000D01*
X77565300Y-53594066D01*
X77505232Y-53396046D01*
X77407685Y-53213550D01*
X77351526Y-53145120D01*
X77276410Y-53053589D01*
X77116452Y-52922317D01*
X77116453Y-52922317D01*
X77116450Y-52922315D01*
X76933954Y-52824768D01*
X76735934Y-52764700D01*
X76735932Y-52764699D01*
X76735934Y-52764699D01*
X76530000Y-52744417D01*
X76324067Y-52764699D01*
X76126043Y-52824769D01*
X76015898Y-52883643D01*
X75943550Y-52922315D01*
X75943548Y-52922316D01*
X75943547Y-52922317D01*
X75783589Y-53053589D01*
X75652317Y-53213547D01*
X75554769Y-53396043D01*
X75494699Y-53594067D01*
X75474417Y-53800000D01*
X66790415Y-53800000D01*
X66924698Y-53740213D01*
X66945189Y-53731090D01*
X67095779Y-53621680D01*
X67220331Y-53483351D01*
X67313401Y-53322149D01*
X67370921Y-53145120D01*
X67390378Y-52960000D01*
X67370921Y-52774880D01*
X67313401Y-52597851D01*
X67220331Y-52436649D01*
X67163714Y-52373769D01*
X67095784Y-52298324D01*
X67095781Y-52298322D01*
X67095780Y-52298321D01*
X67095779Y-52298320D01*
X66945189Y-52188910D01*
X66945188Y-52188909D01*
X66775147Y-52113201D01*
X66775141Y-52113199D01*
X66631769Y-52082725D01*
X66593070Y-52074500D01*
X66406930Y-52074500D01*
X66375014Y-52081283D01*
X66224858Y-52113199D01*
X66224852Y-52113201D01*
X66054811Y-52188909D01*
X65904218Y-52298322D01*
X65904215Y-52298324D01*
X65779668Y-52436650D01*
X65686599Y-52597850D01*
X65686596Y-52597856D01*
X65629080Y-52774875D01*
X65629079Y-52774877D01*
X65609622Y-52960000D01*
X49000500Y-52960000D01*
X49000500Y-50420000D01*
X50369622Y-50420000D01*
X50389079Y-50605122D01*
X50389080Y-50605124D01*
X50446596Y-50782143D01*
X50446599Y-50782149D01*
X50539669Y-50943351D01*
X50572643Y-50979972D01*
X50664215Y-51081675D01*
X50664218Y-51081677D01*
X50664221Y-51081680D01*
X50814811Y-51191090D01*
X50984852Y-51266798D01*
X50984858Y-51266800D01*
X51166930Y-51305500D01*
X51166931Y-51305500D01*
X51353069Y-51305500D01*
X51353070Y-51305500D01*
X51535142Y-51266800D01*
X51535144Y-51266798D01*
X51535147Y-51266798D01*
X51592424Y-51241296D01*
X51705189Y-51191090D01*
X51855779Y-51081680D01*
X51857267Y-51080028D01*
X51882764Y-51051709D01*
X51980331Y-50943351D01*
X52073401Y-50782149D01*
X52074099Y-50780000D01*
X57504022Y-50780000D01*
X58450099Y-50780000D01*
X58433424Y-50796675D01*
X58383396Y-50883325D01*
X58357500Y-50979972D01*
X58357500Y-51080028D01*
X58383396Y-51176675D01*
X58433424Y-51263325D01*
X58450099Y-51280000D01*
X57504022Y-51280000D01*
X57518204Y-51369544D01*
X57588730Y-51586604D01*
X57692349Y-51789966D01*
X57826504Y-51974614D01*
X57987885Y-52135995D01*
X58172533Y-52270150D01*
X58375895Y-52373769D01*
X58592955Y-52444295D01*
X58818384Y-52480000D01*
X59632500Y-52480000D01*
X59632500Y-51410000D01*
X60132500Y-51410000D01*
X60132500Y-52480000D01*
X60946616Y-52480000D01*
X61172044Y-52444295D01*
X61389104Y-52373769D01*
X61592466Y-52270150D01*
X61777114Y-52135995D01*
X61938495Y-51974614D01*
X62072650Y-51789966D01*
X62176269Y-51586604D01*
X62246795Y-51369544D01*
X62260978Y-51280000D01*
X61314901Y-51280000D01*
X61331576Y-51263325D01*
X61381604Y-51176675D01*
X61407500Y-51080028D01*
X61407500Y-50979972D01*
X61381604Y-50883325D01*
X61331576Y-50796675D01*
X61314901Y-50780000D01*
X62260978Y-50780000D01*
X62246795Y-50690455D01*
X62176269Y-50473395D01*
X62149063Y-50420000D01*
X65609622Y-50420000D01*
X65629079Y-50605122D01*
X65629080Y-50605124D01*
X65686596Y-50782143D01*
X65686599Y-50782149D01*
X65779669Y-50943351D01*
X65812643Y-50979972D01*
X65904215Y-51081675D01*
X65904218Y-51081677D01*
X65904221Y-51081680D01*
X66054811Y-51191090D01*
X66224852Y-51266798D01*
X66224858Y-51266800D01*
X66406930Y-51305500D01*
X66406931Y-51305500D01*
X66593069Y-51305500D01*
X66593070Y-51305500D01*
X66775142Y-51266800D01*
X66775144Y-51266798D01*
X66775147Y-51266798D01*
X66832424Y-51241296D01*
X66945189Y-51191090D01*
X67095779Y-51081680D01*
X67097267Y-51080028D01*
X67122764Y-51051709D01*
X67220331Y-50943351D01*
X67313401Y-50782149D01*
X67370921Y-50605120D01*
X67390378Y-50420000D01*
X70879622Y-50420000D01*
X70899079Y-50605122D01*
X70899080Y-50605124D01*
X70956596Y-50782143D01*
X70956599Y-50782149D01*
X71049669Y-50943351D01*
X71082643Y-50979972D01*
X71174215Y-51081675D01*
X71174218Y-51081677D01*
X71174221Y-51081680D01*
X71324811Y-51191090D01*
X71494852Y-51266798D01*
X71494858Y-51266800D01*
X71676930Y-51305500D01*
X71676931Y-51305500D01*
X71863069Y-51305500D01*
X71863070Y-51305500D01*
X72045142Y-51266800D01*
X72045144Y-51266798D01*
X72045147Y-51266798D01*
X72060415Y-51260000D01*
X75474417Y-51260000D01*
X75494699Y-51465932D01*
X75510839Y-51519139D01*
X75554768Y-51663954D01*
X75652315Y-51846450D01*
X75686969Y-51888677D01*
X75783589Y-52006410D01*
X75866558Y-52074500D01*
X75943550Y-52137685D01*
X76126046Y-52235232D01*
X76324066Y-52295300D01*
X76324065Y-52295300D01*
X76342529Y-52297118D01*
X76530000Y-52315583D01*
X76735934Y-52295300D01*
X76933954Y-52235232D01*
X77116450Y-52137685D01*
X77276410Y-52006410D01*
X77407685Y-51846450D01*
X77505232Y-51663954D01*
X77565300Y-51465934D01*
X77585583Y-51260000D01*
X77565300Y-51054066D01*
X77548899Y-50999999D01*
X78444750Y-50999999D01*
X78444750Y-51000000D01*
X78463670Y-51143708D01*
X78463671Y-51143712D01*
X78519137Y-51277622D01*
X78519138Y-51277624D01*
X78519139Y-51277625D01*
X78607379Y-51392621D01*
X78616711Y-51399782D01*
X78619113Y-51401625D01*
X78660316Y-51458053D01*
X78664470Y-51527799D01*
X78630257Y-51588719D01*
X78619113Y-51598375D01*
X78607381Y-51607377D01*
X78519137Y-51722377D01*
X78463671Y-51856287D01*
X78463670Y-51856291D01*
X78444750Y-52000000D01*
X78462654Y-52135995D01*
X78463670Y-52143708D01*
X78463671Y-52143712D01*
X78519137Y-52277622D01*
X78519138Y-52277624D01*
X78519139Y-52277625D01*
X78607379Y-52392621D01*
X78722375Y-52480861D01*
X78856291Y-52536330D01*
X78983280Y-52553048D01*
X78999999Y-52555250D01*
X79000000Y-52555250D01*
X79000001Y-52555250D01*
X79014977Y-52553278D01*
X79143709Y-52536330D01*
X79277625Y-52480861D01*
X79392621Y-52392621D01*
X79480861Y-52277625D01*
X79536330Y-52143709D01*
X79555250Y-52000000D01*
X79536330Y-51856291D01*
X79480861Y-51722375D01*
X79392621Y-51607379D01*
X79380886Y-51598374D01*
X79339685Y-51541950D01*
X79335529Y-51472204D01*
X79369740Y-51411283D01*
X79380876Y-51401632D01*
X79392621Y-51392621D01*
X79480861Y-51277625D01*
X79536330Y-51143709D01*
X79555250Y-51000000D01*
X79536330Y-50856291D01*
X79480861Y-50722375D01*
X79392621Y-50607379D01*
X79277625Y-50519139D01*
X79277624Y-50519138D01*
X79277622Y-50519137D01*
X79143712Y-50463671D01*
X79143710Y-50463670D01*
X79143709Y-50463670D01*
X79071854Y-50454210D01*
X79000001Y-50444750D01*
X78999999Y-50444750D01*
X78856291Y-50463670D01*
X78856287Y-50463671D01*
X78722377Y-50519137D01*
X78607379Y-50607379D01*
X78519137Y-50722377D01*
X78463671Y-50856287D01*
X78463670Y-50856291D01*
X78444750Y-50999999D01*
X77548899Y-50999999D01*
X77505232Y-50856046D01*
X77407685Y-50673550D01*
X77351526Y-50605120D01*
X77276410Y-50513589D01*
X77129008Y-50392621D01*
X77116450Y-50382315D01*
X76933954Y-50284768D01*
X76735934Y-50224700D01*
X76735932Y-50224699D01*
X76735934Y-50224699D01*
X76530000Y-50204417D01*
X76324067Y-50224699D01*
X76126043Y-50284769D01*
X76015898Y-50343643D01*
X75943550Y-50382315D01*
X75943548Y-50382316D01*
X75943547Y-50382317D01*
X75783589Y-50513589D01*
X75652317Y-50673547D01*
X75554769Y-50856043D01*
X75494699Y-51054067D01*
X75474417Y-51260000D01*
X72060415Y-51260000D01*
X72102424Y-51241296D01*
X72215189Y-51191090D01*
X72365779Y-51081680D01*
X72367267Y-51080028D01*
X72392764Y-51051709D01*
X72490331Y-50943351D01*
X72583401Y-50782149D01*
X72640921Y-50605120D01*
X72660378Y-50420000D01*
X72640921Y-50234880D01*
X72596409Y-50097885D01*
X72583403Y-50057856D01*
X72583400Y-50057850D01*
X72576384Y-50045698D01*
X72550000Y-50000000D01*
X73444750Y-50000000D01*
X73450766Y-50045699D01*
X73463670Y-50143708D01*
X73463671Y-50143712D01*
X73519137Y-50277622D01*
X73519138Y-50277624D01*
X73519139Y-50277625D01*
X73607379Y-50392621D01*
X73722375Y-50480861D01*
X73856291Y-50536330D01*
X73983280Y-50553048D01*
X73999999Y-50555250D01*
X74000000Y-50555250D01*
X74000001Y-50555250D01*
X74014977Y-50553278D01*
X74143709Y-50536330D01*
X74277625Y-50480861D01*
X74392621Y-50392621D01*
X74480861Y-50277625D01*
X74536330Y-50143709D01*
X74555250Y-50000000D01*
X74536330Y-49856291D01*
X74480861Y-49722375D01*
X74392621Y-49607379D01*
X74277625Y-49519139D01*
X74277624Y-49519138D01*
X74277622Y-49519137D01*
X74143712Y-49463671D01*
X74143710Y-49463670D01*
X74143709Y-49463670D01*
X74071854Y-49454210D01*
X74000001Y-49444750D01*
X73999999Y-49444750D01*
X73856291Y-49463670D01*
X73856287Y-49463671D01*
X73722377Y-49519137D01*
X73607379Y-49607379D01*
X73519137Y-49722377D01*
X73463671Y-49856287D01*
X73463670Y-49856291D01*
X73446431Y-49987235D01*
X73444750Y-50000000D01*
X72550000Y-50000000D01*
X72490331Y-49896649D01*
X72441547Y-49842469D01*
X72365784Y-49758324D01*
X72365781Y-49758322D01*
X72365780Y-49758321D01*
X72365779Y-49758320D01*
X72240552Y-49667337D01*
X72215188Y-49648909D01*
X72045147Y-49573201D01*
X72045141Y-49573199D01*
X71901769Y-49542725D01*
X71863070Y-49534500D01*
X71676930Y-49534500D01*
X71645014Y-49541283D01*
X71494858Y-49573199D01*
X71494852Y-49573201D01*
X71324811Y-49648909D01*
X71174218Y-49758322D01*
X71174215Y-49758324D01*
X71049668Y-49896650D01*
X70956599Y-50057850D01*
X70956596Y-50057856D01*
X70899080Y-50234875D01*
X70899079Y-50234877D01*
X70879622Y-50420000D01*
X67390378Y-50420000D01*
X67370921Y-50234880D01*
X67326409Y-50097885D01*
X67313403Y-50057856D01*
X67313400Y-50057850D01*
X67306384Y-50045698D01*
X67220331Y-49896649D01*
X67171547Y-49842469D01*
X67095784Y-49758324D01*
X67095781Y-49758322D01*
X67095780Y-49758321D01*
X67095779Y-49758320D01*
X66970552Y-49667337D01*
X66945188Y-49648909D01*
X66775147Y-49573201D01*
X66775141Y-49573199D01*
X66631769Y-49542725D01*
X66593070Y-49534500D01*
X66406930Y-49534500D01*
X66375014Y-49541283D01*
X66224858Y-49573199D01*
X66224852Y-49573201D01*
X66054811Y-49648909D01*
X65904218Y-49758322D01*
X65904215Y-49758324D01*
X65779668Y-49896650D01*
X65686599Y-50057850D01*
X65686596Y-50057856D01*
X65629080Y-50234875D01*
X65629079Y-50234877D01*
X65609622Y-50420000D01*
X62149063Y-50420000D01*
X62072650Y-50270033D01*
X61938495Y-50085385D01*
X61777114Y-49924004D01*
X61592466Y-49789849D01*
X61389104Y-49686230D01*
X61172044Y-49615704D01*
X60946616Y-49580000D01*
X60132500Y-49580000D01*
X60132500Y-50650000D01*
X59632500Y-50650000D01*
X59632500Y-49580000D01*
X58818384Y-49580000D01*
X58592955Y-49615704D01*
X58375895Y-49686230D01*
X58172533Y-49789849D01*
X57987885Y-49924004D01*
X57826504Y-50085385D01*
X57692349Y-50270033D01*
X57588730Y-50473395D01*
X57518204Y-50690455D01*
X57504022Y-50780000D01*
X52074099Y-50780000D01*
X52130921Y-50605120D01*
X52150378Y-50420000D01*
X52130921Y-50234880D01*
X52086409Y-50097885D01*
X52073403Y-50057856D01*
X52073400Y-50057850D01*
X52066384Y-50045698D01*
X51980331Y-49896649D01*
X51931547Y-49842469D01*
X51855784Y-49758324D01*
X51855781Y-49758322D01*
X51855780Y-49758321D01*
X51855779Y-49758320D01*
X51730552Y-49667337D01*
X51705188Y-49648909D01*
X51535147Y-49573201D01*
X51535141Y-49573199D01*
X51391769Y-49542725D01*
X51353070Y-49534500D01*
X51166930Y-49534500D01*
X51135014Y-49541283D01*
X50984858Y-49573199D01*
X50984852Y-49573201D01*
X50814811Y-49648909D01*
X50664218Y-49758322D01*
X50664215Y-49758324D01*
X50539668Y-49896650D01*
X50446599Y-50057850D01*
X50446596Y-50057856D01*
X50389080Y-50234875D01*
X50389079Y-50234877D01*
X50369622Y-50420000D01*
X49000500Y-50420000D01*
X49000500Y-49000000D01*
X74444750Y-49000000D01*
X74461069Y-49123956D01*
X74463670Y-49143708D01*
X74463671Y-49143712D01*
X74519137Y-49277622D01*
X74519138Y-49277624D01*
X74519139Y-49277625D01*
X74607379Y-49392621D01*
X74722375Y-49480861D01*
X74856291Y-49536330D01*
X74983280Y-49553048D01*
X74999999Y-49555250D01*
X75000000Y-49555250D01*
X75000001Y-49555250D01*
X75014977Y-49553278D01*
X75143709Y-49536330D01*
X75277625Y-49480861D01*
X75392621Y-49392621D01*
X75457166Y-49308504D01*
X75513592Y-49267303D01*
X75583338Y-49263148D01*
X75644258Y-49297360D01*
X75651394Y-49305328D01*
X75783589Y-49466410D01*
X75847838Y-49519137D01*
X75943550Y-49597685D01*
X76126046Y-49695232D01*
X76324066Y-49755300D01*
X76324065Y-49755300D01*
X76342529Y-49757118D01*
X76530000Y-49775583D01*
X76735934Y-49755300D01*
X76933954Y-49695232D01*
X77116450Y-49597685D01*
X77276410Y-49466410D01*
X77407685Y-49306450D01*
X77505232Y-49123954D01*
X77565300Y-48925934D01*
X77585583Y-48720000D01*
X77575487Y-48617500D01*
X77588505Y-48548858D01*
X77636570Y-48498147D01*
X77704421Y-48481472D01*
X77746339Y-48490787D01*
X77856291Y-48536330D01*
X77983280Y-48553048D01*
X77999999Y-48555250D01*
X78000000Y-48555250D01*
X78000001Y-48555250D01*
X78014977Y-48553278D01*
X78143709Y-48536330D01*
X78277625Y-48480861D01*
X78392621Y-48392621D01*
X78480861Y-48277625D01*
X78536330Y-48143709D01*
X78555250Y-48000000D01*
X78536330Y-47856291D01*
X78480861Y-47722375D01*
X78392621Y-47607379D01*
X78277625Y-47519139D01*
X78277624Y-47519138D01*
X78277622Y-47519137D01*
X78231418Y-47499999D01*
X81944750Y-47499999D01*
X81944750Y-47500000D01*
X81963670Y-47643708D01*
X81963671Y-47643712D01*
X82019137Y-47777622D01*
X82019138Y-47777624D01*
X82019139Y-47777625D01*
X82107379Y-47892621D01*
X82222375Y-47980861D01*
X82222376Y-47980861D01*
X82222377Y-47980862D01*
X82227121Y-47982827D01*
X82356291Y-48036330D01*
X82483280Y-48053048D01*
X82499999Y-48055250D01*
X82500000Y-48055250D01*
X82500001Y-48055250D01*
X82514977Y-48053278D01*
X82643709Y-48036330D01*
X82777625Y-47980861D01*
X82815730Y-47951621D01*
X82880898Y-47926426D01*
X82949343Y-47940463D01*
X82999333Y-47989276D01*
X83014998Y-48057367D01*
X83003599Y-48102400D01*
X82923735Y-48273668D01*
X82923730Y-48273682D01*
X82871127Y-48469999D01*
X82871128Y-48470000D01*
X83834314Y-48470000D01*
X83829920Y-48474394D01*
X83777259Y-48565606D01*
X83750000Y-48667339D01*
X83750000Y-48772661D01*
X83777259Y-48874394D01*
X83829920Y-48965606D01*
X83834314Y-48970000D01*
X82871128Y-48970000D01*
X82923730Y-49166317D01*
X82923734Y-49166326D01*
X83019865Y-49372482D01*
X83150342Y-49558820D01*
X83311179Y-49719657D01*
X83497517Y-49850134D01*
X83703673Y-49946265D01*
X83703682Y-49946269D01*
X83899256Y-49998673D01*
X83958917Y-50035038D01*
X83989446Y-50097885D01*
X83981151Y-50167261D01*
X83936666Y-50221138D01*
X83903158Y-50237109D01*
X83802729Y-50267573D01*
X83769604Y-50277622D01*
X83746043Y-50284769D01*
X83635898Y-50343643D01*
X83563550Y-50382315D01*
X83563548Y-50382316D01*
X83563547Y-50382317D01*
X83403589Y-50513589D01*
X83272317Y-50673547D01*
X83174769Y-50856043D01*
X83114699Y-51054067D01*
X83094417Y-51260000D01*
X83114699Y-51465932D01*
X83130839Y-51519139D01*
X83174768Y-51663954D01*
X83272315Y-51846450D01*
X83306969Y-51888677D01*
X83403589Y-52006410D01*
X83486558Y-52074500D01*
X83563550Y-52137685D01*
X83746046Y-52235232D01*
X83944066Y-52295300D01*
X83944065Y-52295300D01*
X83962529Y-52297118D01*
X84150000Y-52315583D01*
X84355934Y-52295300D01*
X84553954Y-52235232D01*
X84736450Y-52137685D01*
X84896410Y-52006410D01*
X85027685Y-51846450D01*
X85125232Y-51663954D01*
X85185300Y-51465934D01*
X85205583Y-51260000D01*
X85185300Y-51054066D01*
X85125232Y-50856046D01*
X85027685Y-50673550D01*
X84971526Y-50605120D01*
X84896410Y-50513589D01*
X84782370Y-50420000D01*
X86119622Y-50420000D01*
X86139079Y-50605122D01*
X86139080Y-50605124D01*
X86196596Y-50782143D01*
X86196599Y-50782149D01*
X86289669Y-50943351D01*
X86322643Y-50979972D01*
X86414215Y-51081675D01*
X86414218Y-51081677D01*
X86414221Y-51081680D01*
X86564811Y-51191090D01*
X86734852Y-51266798D01*
X86734858Y-51266800D01*
X86916930Y-51305500D01*
X86916931Y-51305500D01*
X87103069Y-51305500D01*
X87103070Y-51305500D01*
X87285142Y-51266800D01*
X87285144Y-51266798D01*
X87285147Y-51266798D01*
X87342424Y-51241296D01*
X87455189Y-51191090D01*
X87605779Y-51081680D01*
X87607267Y-51080028D01*
X87632764Y-51051709D01*
X87730331Y-50943351D01*
X87823401Y-50782149D01*
X87880921Y-50605120D01*
X87900378Y-50420000D01*
X91470022Y-50420000D01*
X91489479Y-50605122D01*
X91489480Y-50605124D01*
X91546996Y-50782143D01*
X91546999Y-50782149D01*
X91640069Y-50943351D01*
X91673043Y-50979972D01*
X91764615Y-51081675D01*
X91764618Y-51081677D01*
X91764621Y-51081680D01*
X91915211Y-51191090D01*
X92085252Y-51266798D01*
X92085258Y-51266800D01*
X92267330Y-51305500D01*
X92267331Y-51305500D01*
X92453469Y-51305500D01*
X92453470Y-51305500D01*
X92635542Y-51266800D01*
X92635544Y-51266798D01*
X92635547Y-51266798D01*
X92692824Y-51241296D01*
X92805589Y-51191090D01*
X92956179Y-51081680D01*
X92957667Y-51080028D01*
X92983164Y-51051709D01*
X93080731Y-50943351D01*
X93173801Y-50782149D01*
X93231321Y-50605120D01*
X93250778Y-50420000D01*
X93231321Y-50234880D01*
X93186809Y-50097885D01*
X93173803Y-50057856D01*
X93173800Y-50057850D01*
X93166784Y-50045698D01*
X93140400Y-50000000D01*
X93444750Y-50000000D01*
X93450766Y-50045699D01*
X93463670Y-50143708D01*
X93463671Y-50143712D01*
X93519137Y-50277622D01*
X93519138Y-50277624D01*
X93519139Y-50277625D01*
X93607379Y-50392621D01*
X93722375Y-50480861D01*
X93856291Y-50536330D01*
X93983280Y-50553048D01*
X93999999Y-50555250D01*
X94000000Y-50555250D01*
X94000001Y-50555250D01*
X94014977Y-50553278D01*
X94143709Y-50536330D01*
X94277625Y-50480861D01*
X94392621Y-50392621D01*
X94480861Y-50277625D01*
X94536330Y-50143709D01*
X94555250Y-50000000D01*
X95444750Y-50000000D01*
X95450766Y-50045699D01*
X95463670Y-50143708D01*
X95463671Y-50143712D01*
X95519137Y-50277622D01*
X95519138Y-50277624D01*
X95519139Y-50277625D01*
X95607379Y-50392621D01*
X95722375Y-50480861D01*
X95856291Y-50536330D01*
X95983280Y-50553048D01*
X95999999Y-50555250D01*
X96000000Y-50555250D01*
X96000001Y-50555250D01*
X96014977Y-50553278D01*
X96143709Y-50536330D01*
X96277625Y-50480861D01*
X96356940Y-50420000D01*
X106710022Y-50420000D01*
X106729479Y-50605122D01*
X106729480Y-50605124D01*
X106786996Y-50782143D01*
X106786999Y-50782149D01*
X106880069Y-50943351D01*
X106913043Y-50979972D01*
X107004615Y-51081675D01*
X107004618Y-51081677D01*
X107004621Y-51081680D01*
X107155211Y-51191090D01*
X107325252Y-51266798D01*
X107325258Y-51266800D01*
X107507330Y-51305500D01*
X107507331Y-51305500D01*
X107693469Y-51305500D01*
X107693470Y-51305500D01*
X107875542Y-51266800D01*
X107875544Y-51266798D01*
X107875547Y-51266798D01*
X107932824Y-51241296D01*
X108045589Y-51191090D01*
X108196179Y-51081680D01*
X108197667Y-51080028D01*
X108223164Y-51051709D01*
X108320731Y-50943351D01*
X108413801Y-50782149D01*
X108471321Y-50605120D01*
X108490778Y-50420000D01*
X112119622Y-50420000D01*
X112139079Y-50605122D01*
X112139080Y-50605124D01*
X112196596Y-50782143D01*
X112196599Y-50782149D01*
X112289669Y-50943351D01*
X112322643Y-50979972D01*
X112414215Y-51081675D01*
X112414218Y-51081677D01*
X112414221Y-51081680D01*
X112564811Y-51191090D01*
X112734852Y-51266798D01*
X112734858Y-51266800D01*
X112916930Y-51305500D01*
X112916931Y-51305500D01*
X113103069Y-51305500D01*
X113103070Y-51305500D01*
X113285142Y-51266800D01*
X113285144Y-51266798D01*
X113285147Y-51266798D01*
X113342424Y-51241296D01*
X113455189Y-51191090D01*
X113605779Y-51081680D01*
X113607267Y-51080028D01*
X113632764Y-51051709D01*
X113730331Y-50943351D01*
X113823401Y-50782149D01*
X113880921Y-50605120D01*
X113900378Y-50420000D01*
X113880921Y-50234880D01*
X113836409Y-50097885D01*
X113823403Y-50057856D01*
X113823400Y-50057850D01*
X113816384Y-50045698D01*
X113730331Y-49896649D01*
X113681547Y-49842469D01*
X113605784Y-49758324D01*
X113605781Y-49758322D01*
X113605780Y-49758321D01*
X113605779Y-49758320D01*
X113480552Y-49667337D01*
X113455188Y-49648909D01*
X113285147Y-49573201D01*
X113285141Y-49573199D01*
X113141769Y-49542725D01*
X113103070Y-49534500D01*
X112916930Y-49534500D01*
X112885014Y-49541283D01*
X112734858Y-49573199D01*
X112734852Y-49573201D01*
X112564811Y-49648909D01*
X112414218Y-49758322D01*
X112414215Y-49758324D01*
X112289668Y-49896650D01*
X112196599Y-50057850D01*
X112196596Y-50057856D01*
X112139080Y-50234875D01*
X112139079Y-50234877D01*
X112119622Y-50420000D01*
X108490778Y-50420000D01*
X108471321Y-50234880D01*
X108426809Y-50097885D01*
X108413803Y-50057856D01*
X108413800Y-50057850D01*
X108406784Y-50045698D01*
X108320731Y-49896649D01*
X108271947Y-49842469D01*
X108196184Y-49758324D01*
X108196181Y-49758322D01*
X108196180Y-49758321D01*
X108196179Y-49758320D01*
X108070952Y-49667337D01*
X108045588Y-49648909D01*
X107875547Y-49573201D01*
X107875541Y-49573199D01*
X107732169Y-49542725D01*
X107693470Y-49534500D01*
X107507330Y-49534500D01*
X107475414Y-49541283D01*
X107325258Y-49573199D01*
X107325252Y-49573201D01*
X107155211Y-49648909D01*
X107004618Y-49758322D01*
X107004615Y-49758324D01*
X106880068Y-49896650D01*
X106786999Y-50057850D01*
X106786996Y-50057856D01*
X106729480Y-50234875D01*
X106729479Y-50234877D01*
X106710022Y-50420000D01*
X96356940Y-50420000D01*
X96392621Y-50392621D01*
X96480861Y-50277625D01*
X96536330Y-50143709D01*
X96555250Y-50000000D01*
X96536330Y-49856291D01*
X96480861Y-49722375D01*
X96392621Y-49607379D01*
X96277625Y-49519139D01*
X96277624Y-49519138D01*
X96277622Y-49519137D01*
X96143712Y-49463671D01*
X96143710Y-49463670D01*
X96143709Y-49463670D01*
X96071854Y-49454210D01*
X96000001Y-49444750D01*
X95999999Y-49444750D01*
X95856291Y-49463670D01*
X95856287Y-49463671D01*
X95722377Y-49519137D01*
X95607379Y-49607379D01*
X95519137Y-49722377D01*
X95463671Y-49856287D01*
X95463670Y-49856291D01*
X95446431Y-49987235D01*
X95444750Y-50000000D01*
X94555250Y-50000000D01*
X94536330Y-49856291D01*
X94480861Y-49722375D01*
X94392621Y-49607379D01*
X94277625Y-49519139D01*
X94277624Y-49519138D01*
X94277622Y-49519137D01*
X94143712Y-49463671D01*
X94143710Y-49463670D01*
X94143709Y-49463670D01*
X94071854Y-49454210D01*
X94000001Y-49444750D01*
X93999999Y-49444750D01*
X93856291Y-49463670D01*
X93856287Y-49463671D01*
X93722377Y-49519137D01*
X93607379Y-49607379D01*
X93519137Y-49722377D01*
X93463671Y-49856287D01*
X93463670Y-49856291D01*
X93446431Y-49987235D01*
X93444750Y-50000000D01*
X93140400Y-50000000D01*
X93080731Y-49896649D01*
X93031947Y-49842469D01*
X92956184Y-49758324D01*
X92956181Y-49758322D01*
X92956180Y-49758321D01*
X92956179Y-49758320D01*
X92830952Y-49667337D01*
X92805588Y-49648909D01*
X92635547Y-49573201D01*
X92635541Y-49573199D01*
X92492169Y-49542725D01*
X92453470Y-49534500D01*
X92267330Y-49534500D01*
X92235414Y-49541283D01*
X92085258Y-49573199D01*
X92085252Y-49573201D01*
X91915211Y-49648909D01*
X91764618Y-49758322D01*
X91764615Y-49758324D01*
X91640068Y-49896650D01*
X91546999Y-50057850D01*
X91546996Y-50057856D01*
X91489480Y-50234875D01*
X91489479Y-50234877D01*
X91470022Y-50420000D01*
X87900378Y-50420000D01*
X87880921Y-50234880D01*
X87836409Y-50097885D01*
X87823403Y-50057856D01*
X87823400Y-50057850D01*
X87816384Y-50045698D01*
X87730331Y-49896649D01*
X87681547Y-49842469D01*
X87605784Y-49758324D01*
X87605781Y-49758322D01*
X87605780Y-49758321D01*
X87605779Y-49758320D01*
X87480552Y-49667337D01*
X87455188Y-49648909D01*
X87285147Y-49573201D01*
X87285141Y-49573199D01*
X87141769Y-49542725D01*
X87103070Y-49534500D01*
X86916930Y-49534500D01*
X86885014Y-49541283D01*
X86734858Y-49573199D01*
X86734852Y-49573201D01*
X86564811Y-49648909D01*
X86414218Y-49758322D01*
X86414215Y-49758324D01*
X86289668Y-49896650D01*
X86196599Y-50057850D01*
X86196596Y-50057856D01*
X86139080Y-50234875D01*
X86139079Y-50234877D01*
X86119622Y-50420000D01*
X84782370Y-50420000D01*
X84749008Y-50392621D01*
X84736450Y-50382315D01*
X84553954Y-50284768D01*
X84396840Y-50237108D01*
X84338402Y-50198811D01*
X84309946Y-50134999D01*
X84320506Y-50065932D01*
X84366730Y-50013538D01*
X84400743Y-49998673D01*
X84596317Y-49946269D01*
X84596326Y-49946265D01*
X84802482Y-49850134D01*
X84988820Y-49719657D01*
X85149657Y-49558820D01*
X85283239Y-49368048D01*
X85284724Y-49369088D01*
X85329416Y-49326446D01*
X85398019Y-49313201D01*
X85462892Y-49339147D01*
X85484648Y-49361156D01*
X85551479Y-49448251D01*
X85551480Y-49448252D01*
X85551482Y-49448254D01*
X85666478Y-49536494D01*
X85800394Y-49591963D01*
X85927383Y-49608681D01*
X85944102Y-49610883D01*
X85944103Y-49610883D01*
X85944104Y-49610883D01*
X85959080Y-49608911D01*
X86087812Y-49591963D01*
X86221728Y-49536494D01*
X86336724Y-49448254D01*
X86424964Y-49333258D01*
X86480433Y-49199342D01*
X86499353Y-49055633D01*
X86480433Y-48911924D01*
X86447822Y-48833194D01*
X86440354Y-48763727D01*
X86471629Y-48701248D01*
X86531718Y-48665596D01*
X86601543Y-48668090D01*
X86612820Y-48672465D01*
X86734852Y-48726798D01*
X86734858Y-48726800D01*
X86916930Y-48765500D01*
X86916931Y-48765500D01*
X87103069Y-48765500D01*
X87103070Y-48765500D01*
X87285142Y-48726800D01*
X87285144Y-48726798D01*
X87285147Y-48726798D01*
X87418693Y-48667339D01*
X87455189Y-48651090D01*
X87605779Y-48541680D01*
X87607032Y-48540289D01*
X87644976Y-48498147D01*
X87730331Y-48403351D01*
X87823401Y-48242149D01*
X87880921Y-48065120D01*
X87887765Y-48000000D01*
X88444750Y-48000000D01*
X88458755Y-48106380D01*
X88463670Y-48143708D01*
X88463671Y-48143712D01*
X88519137Y-48277622D01*
X88519138Y-48277624D01*
X88519139Y-48277625D01*
X88607379Y-48392621D01*
X88722375Y-48480861D01*
X88722376Y-48480861D01*
X88722377Y-48480862D01*
X88743678Y-48489685D01*
X88856291Y-48536330D01*
X88983280Y-48553048D01*
X88999999Y-48555250D01*
X89000000Y-48555250D01*
X89000001Y-48555250D01*
X89014977Y-48553278D01*
X89143709Y-48536330D01*
X89277625Y-48480861D01*
X89392621Y-48392621D01*
X89480861Y-48277625D01*
X89536330Y-48143709D01*
X89555250Y-48000000D01*
X89539451Y-47880000D01*
X91470022Y-47880000D01*
X91489479Y-48065122D01*
X91489480Y-48065124D01*
X91546996Y-48242143D01*
X91546999Y-48242149D01*
X91640069Y-48403351D01*
X91652529Y-48417189D01*
X91764615Y-48541675D01*
X91764618Y-48541677D01*
X91764621Y-48541680D01*
X91877370Y-48623597D01*
X91915211Y-48651090D01*
X92085252Y-48726798D01*
X92085258Y-48726800D01*
X92267330Y-48765500D01*
X92267331Y-48765500D01*
X92453469Y-48765500D01*
X92453470Y-48765500D01*
X92635542Y-48726800D01*
X92635544Y-48726798D01*
X92635547Y-48726798D01*
X92769093Y-48667339D01*
X92805589Y-48651090D01*
X92956179Y-48541680D01*
X92957432Y-48540289D01*
X92995376Y-48498147D01*
X93080731Y-48403351D01*
X93173801Y-48242149D01*
X93231321Y-48065120D01*
X93238165Y-48000000D01*
X94444750Y-48000000D01*
X94458755Y-48106380D01*
X94463670Y-48143708D01*
X94463671Y-48143712D01*
X94519137Y-48277622D01*
X94519138Y-48277624D01*
X94519139Y-48277625D01*
X94607379Y-48392621D01*
X94722375Y-48480861D01*
X94722376Y-48480861D01*
X94722377Y-48480862D01*
X94743678Y-48489685D01*
X94856291Y-48536330D01*
X94983280Y-48553048D01*
X94999999Y-48555250D01*
X95000000Y-48555250D01*
X95000001Y-48555250D01*
X95014977Y-48553278D01*
X95143709Y-48536330D01*
X95277625Y-48480861D01*
X95392621Y-48392621D01*
X95480861Y-48277625D01*
X95536330Y-48143709D01*
X95555250Y-48000000D01*
X95536330Y-47856291D01*
X95480861Y-47722375D01*
X95392621Y-47607379D01*
X95277625Y-47519139D01*
X95277624Y-47519138D01*
X95277622Y-47519137D01*
X95143712Y-47463671D01*
X95143710Y-47463670D01*
X95143709Y-47463670D01*
X95071854Y-47454210D01*
X95000001Y-47444750D01*
X94999999Y-47444750D01*
X94856291Y-47463670D01*
X94856287Y-47463671D01*
X94722377Y-47519137D01*
X94607379Y-47607379D01*
X94519137Y-47722377D01*
X94463671Y-47856287D01*
X94463670Y-47856291D01*
X94447270Y-47980862D01*
X94444750Y-48000000D01*
X93238165Y-48000000D01*
X93250778Y-47880000D01*
X93231321Y-47694880D01*
X93174376Y-47519621D01*
X93173803Y-47517856D01*
X93173800Y-47517850D01*
X93165776Y-47503952D01*
X93080731Y-47356649D01*
X93031947Y-47302469D01*
X92956184Y-47218324D01*
X92956181Y-47218322D01*
X92956180Y-47218321D01*
X92956179Y-47218320D01*
X92807808Y-47110522D01*
X92805588Y-47108909D01*
X92635547Y-47033201D01*
X92635541Y-47033199D01*
X92479341Y-46999999D01*
X92453470Y-46994500D01*
X92267330Y-46994500D01*
X92241459Y-46999999D01*
X92085258Y-47033199D01*
X92085252Y-47033201D01*
X91915211Y-47108909D01*
X91764618Y-47218322D01*
X91764615Y-47218324D01*
X91640068Y-47356650D01*
X91546999Y-47517850D01*
X91546996Y-47517856D01*
X91489480Y-47694875D01*
X91489479Y-47694877D01*
X91470022Y-47880000D01*
X89539451Y-47880000D01*
X89536330Y-47856291D01*
X89480861Y-47722375D01*
X89392621Y-47607379D01*
X89277625Y-47519139D01*
X89277624Y-47519138D01*
X89277622Y-47519137D01*
X89143712Y-47463671D01*
X89143710Y-47463670D01*
X89143709Y-47463670D01*
X89071854Y-47454210D01*
X89000001Y-47444750D01*
X88999999Y-47444750D01*
X88856291Y-47463670D01*
X88856287Y-47463671D01*
X88722377Y-47519137D01*
X88607379Y-47607379D01*
X88519137Y-47722377D01*
X88463671Y-47856287D01*
X88463670Y-47856291D01*
X88447270Y-47980862D01*
X88444750Y-48000000D01*
X87887765Y-48000000D01*
X87900378Y-47880000D01*
X87880921Y-47694880D01*
X87823976Y-47519621D01*
X87823403Y-47517856D01*
X87823400Y-47517850D01*
X87815376Y-47503952D01*
X87730331Y-47356649D01*
X87681547Y-47302469D01*
X87605784Y-47218324D01*
X87605781Y-47218322D01*
X87605780Y-47218321D01*
X87605779Y-47218320D01*
X87457408Y-47110522D01*
X87455188Y-47108909D01*
X87285147Y-47033201D01*
X87285141Y-47033199D01*
X87128941Y-46999999D01*
X87103070Y-46994500D01*
X86916930Y-46994500D01*
X86891059Y-46999999D01*
X86734858Y-47033199D01*
X86734852Y-47033201D01*
X86564811Y-47108909D01*
X86414218Y-47218322D01*
X86414215Y-47218324D01*
X86289668Y-47356650D01*
X86196599Y-47517850D01*
X86196596Y-47517856D01*
X86139080Y-47694875D01*
X86139079Y-47694877D01*
X86119622Y-47880000D01*
X86139079Y-48065122D01*
X86139080Y-48065124D01*
X86196596Y-48242143D01*
X86196598Y-48242146D01*
X86196599Y-48242149D01*
X86217081Y-48277625D01*
X86258456Y-48349289D01*
X86274928Y-48417189D01*
X86252075Y-48483216D01*
X86197153Y-48526406D01*
X86127600Y-48533047D01*
X86103616Y-48525849D01*
X86087815Y-48519304D01*
X86087813Y-48519303D01*
X86087812Y-48519303D01*
X86015957Y-48509843D01*
X85944104Y-48500383D01*
X85944102Y-48500383D01*
X85800394Y-48519303D01*
X85800390Y-48519304D01*
X85666479Y-48574771D01*
X85666478Y-48574771D01*
X85635679Y-48598404D01*
X85570509Y-48623597D01*
X85502064Y-48609558D01*
X85452076Y-48560743D01*
X85436666Y-48510831D01*
X85435141Y-48493401D01*
X85435139Y-48493389D01*
X85376269Y-48273682D01*
X85376265Y-48273673D01*
X85280134Y-48067517D01*
X85149657Y-47881179D01*
X84988820Y-47720342D01*
X84802482Y-47589865D01*
X84596326Y-47493734D01*
X84596319Y-47493731D01*
X84400742Y-47441326D01*
X84341082Y-47404961D01*
X84310553Y-47342114D01*
X84318848Y-47272738D01*
X84363333Y-47218860D01*
X84396837Y-47202892D01*
X84553954Y-47155232D01*
X84736450Y-47057685D01*
X84896410Y-46926410D01*
X85027685Y-46766450D01*
X85125232Y-46583954D01*
X85185300Y-46385934D01*
X85205583Y-46180000D01*
X85185300Y-45974066D01*
X85125232Y-45776046D01*
X85027685Y-45593550D01*
X84966616Y-45519137D01*
X84896410Y-45433589D01*
X84782370Y-45340000D01*
X86119622Y-45340000D01*
X86139079Y-45525122D01*
X86139080Y-45525124D01*
X86196596Y-45702143D01*
X86196599Y-45702149D01*
X86289669Y-45863351D01*
X86333055Y-45911536D01*
X86414215Y-46001675D01*
X86414218Y-46001677D01*
X86414221Y-46001680D01*
X86486783Y-46054399D01*
X86564811Y-46111090D01*
X86734852Y-46186798D01*
X86734858Y-46186800D01*
X86916930Y-46225500D01*
X86916931Y-46225500D01*
X87103069Y-46225500D01*
X87103070Y-46225500D01*
X87285142Y-46186800D01*
X87285144Y-46186798D01*
X87285147Y-46186798D01*
X87381919Y-46143712D01*
X87455189Y-46111090D01*
X87605779Y-46001680D01*
X87607292Y-46000000D01*
X89444750Y-46000000D01*
X89462821Y-46137264D01*
X89463670Y-46143708D01*
X89463671Y-46143712D01*
X89519137Y-46277622D01*
X89519138Y-46277624D01*
X89519139Y-46277625D01*
X89607379Y-46392621D01*
X89722375Y-46480861D01*
X89856291Y-46536330D01*
X89983280Y-46553048D01*
X89999999Y-46555250D01*
X90000000Y-46555250D01*
X90000001Y-46555250D01*
X90014977Y-46553278D01*
X90143709Y-46536330D01*
X90277625Y-46480861D01*
X90392621Y-46392621D01*
X90480861Y-46277625D01*
X90536330Y-46143709D01*
X90555250Y-46000000D01*
X90536330Y-45856291D01*
X90480861Y-45722375D01*
X90392621Y-45607379D01*
X90277625Y-45519139D01*
X90277624Y-45519138D01*
X90277622Y-45519137D01*
X90143712Y-45463671D01*
X90143710Y-45463670D01*
X90143709Y-45463670D01*
X90071854Y-45454210D01*
X90000001Y-45444750D01*
X89999999Y-45444750D01*
X89856291Y-45463670D01*
X89856287Y-45463671D01*
X89722377Y-45519137D01*
X89607379Y-45607379D01*
X89519137Y-45722377D01*
X89463671Y-45856287D01*
X89463670Y-45856291D01*
X89444750Y-46000000D01*
X87607292Y-46000000D01*
X87608162Y-45999034D01*
X87632764Y-45971709D01*
X87730331Y-45863351D01*
X87823401Y-45702149D01*
X87880921Y-45525120D01*
X87900378Y-45340000D01*
X91470022Y-45340000D01*
X91489479Y-45525122D01*
X91489480Y-45525124D01*
X91546996Y-45702143D01*
X91546999Y-45702149D01*
X91640069Y-45863351D01*
X91683455Y-45911536D01*
X91764615Y-46001675D01*
X91764618Y-46001677D01*
X91764621Y-46001680D01*
X91837183Y-46054399D01*
X91915211Y-46111090D01*
X92085252Y-46186798D01*
X92085258Y-46186800D01*
X92267330Y-46225500D01*
X92267331Y-46225500D01*
X92453469Y-46225500D01*
X92453470Y-46225500D01*
X92524883Y-46210321D01*
X101449500Y-46210321D01*
X101449500Y-47309678D01*
X101464032Y-47382735D01*
X101464033Y-47382739D01*
X101464034Y-47382740D01*
X101519399Y-47465601D01*
X101520016Y-47466013D01*
X101521058Y-47467260D01*
X101528035Y-47474237D01*
X101527411Y-47474860D01*
X101564824Y-47519621D01*
X101573536Y-47588945D01*
X101554234Y-47638007D01*
X101537766Y-47662653D01*
X101537759Y-47662665D01*
X101479302Y-47803794D01*
X101479300Y-47803802D01*
X101449500Y-47953615D01*
X101449500Y-48106384D01*
X101479300Y-48256197D01*
X101479302Y-48256205D01*
X101537759Y-48397334D01*
X101537764Y-48397343D01*
X101622629Y-48524351D01*
X101622632Y-48524355D01*
X101675596Y-48577319D01*
X101709081Y-48638642D01*
X101704097Y-48708334D01*
X101675596Y-48752681D01*
X101622632Y-48805644D01*
X101622629Y-48805648D01*
X101537764Y-48932656D01*
X101537759Y-48932665D01*
X101479302Y-49073794D01*
X101479300Y-49073802D01*
X101449500Y-49223615D01*
X101449500Y-49376384D01*
X101479300Y-49526197D01*
X101479302Y-49526205D01*
X101537759Y-49667334D01*
X101537764Y-49667343D01*
X101622629Y-49794351D01*
X101622632Y-49794355D01*
X101730644Y-49902367D01*
X101730648Y-49902370D01*
X101857656Y-49987235D01*
X101857662Y-49987238D01*
X101857663Y-49987239D01*
X101998795Y-50045698D01*
X102148615Y-50075499D01*
X102148619Y-50075500D01*
X102148620Y-50075500D01*
X102751381Y-50075500D01*
X102751382Y-50075499D01*
X102901205Y-50045698D01*
X103042337Y-49987239D01*
X103169352Y-49902370D01*
X103277370Y-49794352D01*
X103362239Y-49667337D01*
X103420698Y-49526205D01*
X103450500Y-49376380D01*
X103450500Y-49223620D01*
X103420698Y-49073795D01*
X103362239Y-48932663D01*
X103362238Y-48932662D01*
X103362235Y-48932656D01*
X103277370Y-48805648D01*
X103277367Y-48805644D01*
X103224404Y-48752681D01*
X103190919Y-48691358D01*
X103195903Y-48621666D01*
X103224404Y-48577319D01*
X103277367Y-48524355D01*
X103277370Y-48524352D01*
X103362239Y-48397337D01*
X103420698Y-48256205D01*
X103450500Y-48106380D01*
X103450500Y-47953620D01*
X103420698Y-47803795D01*
X103362239Y-47662663D01*
X103345765Y-47638009D01*
X103324888Y-47571332D01*
X103343372Y-47503952D01*
X103372007Y-47474279D01*
X103371965Y-47474237D01*
X103374331Y-47471870D01*
X103379983Y-47466013D01*
X103380601Y-47465601D01*
X103435966Y-47382740D01*
X103450500Y-47309674D01*
X103450500Y-47234500D01*
X103470185Y-47167461D01*
X103522989Y-47121706D01*
X103574500Y-47110500D01*
X106823194Y-47110500D01*
X106890233Y-47130185D01*
X106935988Y-47182989D01*
X106945932Y-47252147D01*
X106916907Y-47315703D01*
X106915344Y-47317472D01*
X106880068Y-47356650D01*
X106786999Y-47517850D01*
X106786996Y-47517856D01*
X106729480Y-47694875D01*
X106729479Y-47694877D01*
X106710022Y-47880000D01*
X106729479Y-48065122D01*
X106729480Y-48065124D01*
X106786996Y-48242143D01*
X106786999Y-48242149D01*
X106880069Y-48403351D01*
X106892529Y-48417189D01*
X107004615Y-48541675D01*
X107004618Y-48541677D01*
X107004621Y-48541680D01*
X107117370Y-48623597D01*
X107155211Y-48651090D01*
X107325252Y-48726798D01*
X107325258Y-48726800D01*
X107507330Y-48765500D01*
X107507331Y-48765500D01*
X107693469Y-48765500D01*
X107693470Y-48765500D01*
X107875542Y-48726800D01*
X107875544Y-48726798D01*
X107875547Y-48726798D01*
X108009093Y-48667339D01*
X108045589Y-48651090D01*
X108196179Y-48541680D01*
X108197432Y-48540289D01*
X108235376Y-48498147D01*
X108320731Y-48403351D01*
X108413801Y-48242149D01*
X108471321Y-48065120D01*
X108490778Y-47880000D01*
X108471321Y-47694880D01*
X108414376Y-47519621D01*
X108413803Y-47517856D01*
X108413800Y-47517850D01*
X108405776Y-47503952D01*
X108320731Y-47356649D01*
X108285456Y-47317472D01*
X108255226Y-47254480D01*
X108263851Y-47185145D01*
X108308593Y-47131480D01*
X108375245Y-47110522D01*
X108377606Y-47110500D01*
X112232794Y-47110500D01*
X112299833Y-47130185D01*
X112345588Y-47182989D01*
X112355532Y-47252147D01*
X112326507Y-47315703D01*
X112324944Y-47317472D01*
X112289668Y-47356650D01*
X112196599Y-47517850D01*
X112196596Y-47517856D01*
X112139080Y-47694875D01*
X112139079Y-47694877D01*
X112119622Y-47880000D01*
X112139079Y-48065122D01*
X112139080Y-48065124D01*
X112196596Y-48242143D01*
X112196599Y-48242149D01*
X112289669Y-48403351D01*
X112302129Y-48417189D01*
X112414215Y-48541675D01*
X112414218Y-48541677D01*
X112414221Y-48541680D01*
X112526970Y-48623597D01*
X112564811Y-48651090D01*
X112734852Y-48726798D01*
X112734858Y-48726800D01*
X112916930Y-48765500D01*
X112916931Y-48765500D01*
X113103069Y-48765500D01*
X113103070Y-48765500D01*
X113285142Y-48726800D01*
X113285144Y-48726798D01*
X113285147Y-48726798D01*
X113418693Y-48667339D01*
X113455189Y-48651090D01*
X113605779Y-48541680D01*
X113607032Y-48540289D01*
X113644976Y-48498147D01*
X113730331Y-48403351D01*
X113823401Y-48242149D01*
X113864624Y-48115274D01*
X113904058Y-48057604D01*
X113968416Y-48030405D01*
X114037263Y-48042319D01*
X114070234Y-48065916D01*
X122190606Y-56186288D01*
X122224091Y-56247611D01*
X122219107Y-56317303D01*
X122198275Y-56349741D01*
X122199827Y-56350932D01*
X122194881Y-56357377D01*
X122194879Y-56357379D01*
X122135895Y-56434247D01*
X122106637Y-56472377D01*
X122051171Y-56606287D01*
X122051170Y-56606291D01*
X122032250Y-56749999D01*
X122032250Y-56750000D01*
X122051170Y-56893708D01*
X122051171Y-56893712D01*
X122106637Y-57027622D01*
X122106638Y-57027624D01*
X122106639Y-57027625D01*
X122194879Y-57142621D01*
X122309875Y-57230861D01*
X122443791Y-57286330D01*
X122570780Y-57303048D01*
X122587499Y-57305250D01*
X122587500Y-57305250D01*
X122587501Y-57305250D01*
X122602477Y-57303278D01*
X122731209Y-57286330D01*
X122865125Y-57230861D01*
X122980121Y-57142621D01*
X123068361Y-57027625D01*
X123123830Y-56893709D01*
X123142750Y-56750000D01*
X123123830Y-56606291D01*
X123068361Y-56472375D01*
X122980121Y-56357379D01*
X122980119Y-56357377D01*
X122980115Y-56357372D01*
X122974371Y-56351628D01*
X122976887Y-56349111D01*
X122945297Y-56305817D01*
X122938000Y-56263908D01*
X122938000Y-56041358D01*
X122938000Y-56041356D01*
X122914114Y-55952212D01*
X122867970Y-55872288D01*
X122495681Y-55499999D01*
X127110138Y-55499999D01*
X127110138Y-55500000D01*
X127129545Y-55709444D01*
X127187111Y-55911769D01*
X127280871Y-56100062D01*
X127287545Y-56108899D01*
X127869000Y-55527446D01*
X127869000Y-55550160D01*
X127894964Y-55647061D01*
X127945124Y-55733940D01*
X128016060Y-55804876D01*
X128102939Y-55855036D01*
X128199840Y-55881000D01*
X128222553Y-55881000D01*
X127643887Y-56459663D01*
X127741918Y-56520362D01*
X127741920Y-56520363D01*
X127938063Y-56596348D01*
X128144829Y-56635000D01*
X128355171Y-56635000D01*
X128561935Y-56596348D01*
X128561936Y-56596348D01*
X128758079Y-56520363D01*
X128758080Y-56520362D01*
X128856110Y-56459664D01*
X128856111Y-56459663D01*
X128277448Y-55881000D01*
X128300160Y-55881000D01*
X128397061Y-55855036D01*
X128483940Y-55804876D01*
X128554876Y-55733940D01*
X128605036Y-55647061D01*
X128631000Y-55550160D01*
X128631000Y-55527447D01*
X129212452Y-56108899D01*
X129212453Y-56108899D01*
X129219128Y-56100061D01*
X129312888Y-55911769D01*
X129370454Y-55709444D01*
X129389862Y-55500000D01*
X129389862Y-55499999D01*
X129370454Y-55290555D01*
X129312888Y-55088230D01*
X129219130Y-54899941D01*
X129219128Y-54899937D01*
X129212453Y-54891099D01*
X129212452Y-54891098D01*
X128631000Y-55472551D01*
X128631000Y-55449840D01*
X128605036Y-55352939D01*
X128554876Y-55266060D01*
X128483940Y-55195124D01*
X128397061Y-55144964D01*
X128300160Y-55119000D01*
X128277448Y-55119000D01*
X128856111Y-54540335D01*
X128856110Y-54540334D01*
X128758083Y-54479638D01*
X128758077Y-54479636D01*
X128561936Y-54403651D01*
X128355171Y-54365000D01*
X128144829Y-54365000D01*
X127938064Y-54403651D01*
X127938063Y-54403651D01*
X127741923Y-54479635D01*
X127643887Y-54540335D01*
X128222553Y-55119000D01*
X128199840Y-55119000D01*
X128102939Y-55144964D01*
X128016060Y-55195124D01*
X127945124Y-55266060D01*
X127894964Y-55352939D01*
X127869000Y-55449840D01*
X127869000Y-55472552D01*
X127287546Y-54891098D01*
X127287545Y-54891099D01*
X127280870Y-54899939D01*
X127187111Y-55088230D01*
X127129545Y-55290555D01*
X127110138Y-55499999D01*
X122495681Y-55499999D01*
X119955682Y-52960000D01*
X127359622Y-52960000D01*
X127379079Y-53145122D01*
X127379080Y-53145124D01*
X127436596Y-53322143D01*
X127436599Y-53322149D01*
X127529669Y-53483351D01*
X127571536Y-53529849D01*
X127654215Y-53621675D01*
X127654218Y-53621677D01*
X127654221Y-53621680D01*
X127804811Y-53731090D01*
X127974852Y-53806798D01*
X127974858Y-53806800D01*
X128156930Y-53845500D01*
X128156931Y-53845500D01*
X128343069Y-53845500D01*
X128343070Y-53845500D01*
X128525142Y-53806800D01*
X128525144Y-53806798D01*
X128525147Y-53806798D01*
X128674698Y-53740213D01*
X128695189Y-53731090D01*
X128845779Y-53621680D01*
X128970331Y-53483351D01*
X129063401Y-53322149D01*
X129120921Y-53145120D01*
X129140378Y-52960000D01*
X129120921Y-52774880D01*
X129063401Y-52597851D01*
X128970331Y-52436649D01*
X128913714Y-52373769D01*
X128845784Y-52298324D01*
X128845781Y-52298322D01*
X128845780Y-52298321D01*
X128845779Y-52298320D01*
X128695189Y-52188910D01*
X128695188Y-52188909D01*
X128525147Y-52113201D01*
X128525141Y-52113199D01*
X128381769Y-52082725D01*
X128343070Y-52074500D01*
X128156930Y-52074500D01*
X128125014Y-52081283D01*
X127974858Y-52113199D01*
X127974852Y-52113201D01*
X127804811Y-52188909D01*
X127654218Y-52298322D01*
X127654215Y-52298324D01*
X127529668Y-52436650D01*
X127436599Y-52597850D01*
X127436596Y-52597856D01*
X127379080Y-52774875D01*
X127379079Y-52774877D01*
X127359622Y-52960000D01*
X119955682Y-52960000D01*
X117415682Y-50420000D01*
X127359622Y-50420000D01*
X127379079Y-50605122D01*
X127379080Y-50605124D01*
X127436596Y-50782143D01*
X127436599Y-50782149D01*
X127529669Y-50943351D01*
X127562643Y-50979972D01*
X127654215Y-51081675D01*
X127654218Y-51081677D01*
X127654221Y-51081680D01*
X127804811Y-51191090D01*
X127974852Y-51266798D01*
X127974858Y-51266800D01*
X128156930Y-51305500D01*
X128156931Y-51305500D01*
X128343069Y-51305500D01*
X128343070Y-51305500D01*
X128525142Y-51266800D01*
X128525144Y-51266798D01*
X128525147Y-51266798D01*
X128582424Y-51241296D01*
X128695189Y-51191090D01*
X128845779Y-51081680D01*
X128847267Y-51080028D01*
X128872764Y-51051709D01*
X128970331Y-50943351D01*
X129063401Y-50782149D01*
X129120921Y-50605120D01*
X129140378Y-50420000D01*
X129120921Y-50234880D01*
X129076409Y-50097885D01*
X129063403Y-50057856D01*
X129063400Y-50057850D01*
X129056384Y-50045698D01*
X128970331Y-49896649D01*
X128921547Y-49842469D01*
X128845784Y-49758324D01*
X128845781Y-49758322D01*
X128845780Y-49758321D01*
X128845779Y-49758320D01*
X128720552Y-49667337D01*
X128695188Y-49648909D01*
X128525147Y-49573201D01*
X128525141Y-49573199D01*
X128381769Y-49542725D01*
X128343070Y-49534500D01*
X128156930Y-49534500D01*
X128125014Y-49541283D01*
X127974858Y-49573199D01*
X127974852Y-49573201D01*
X127804811Y-49648909D01*
X127654218Y-49758322D01*
X127654215Y-49758324D01*
X127529668Y-49896650D01*
X127436599Y-50057850D01*
X127436596Y-50057856D01*
X127379080Y-50234875D01*
X127379079Y-50234877D01*
X127359622Y-50420000D01*
X117415682Y-50420000D01*
X114875682Y-47880000D01*
X127359622Y-47880000D01*
X127379079Y-48065122D01*
X127379080Y-48065124D01*
X127436596Y-48242143D01*
X127436599Y-48242149D01*
X127529669Y-48403351D01*
X127542129Y-48417189D01*
X127654215Y-48541675D01*
X127654218Y-48541677D01*
X127654221Y-48541680D01*
X127766970Y-48623597D01*
X127804811Y-48651090D01*
X127974852Y-48726798D01*
X127974858Y-48726800D01*
X128156930Y-48765500D01*
X128156931Y-48765500D01*
X128343069Y-48765500D01*
X128343070Y-48765500D01*
X128525142Y-48726800D01*
X128525144Y-48726798D01*
X128525147Y-48726798D01*
X128658693Y-48667339D01*
X128695189Y-48651090D01*
X128845779Y-48541680D01*
X128847032Y-48540289D01*
X128884976Y-48498147D01*
X128970331Y-48403351D01*
X129063401Y-48242149D01*
X129120921Y-48065120D01*
X129140378Y-47880000D01*
X129120921Y-47694880D01*
X129063976Y-47519621D01*
X129063403Y-47517856D01*
X129063400Y-47517850D01*
X129055376Y-47503952D01*
X128970331Y-47356649D01*
X128921547Y-47302469D01*
X128845784Y-47218324D01*
X128845781Y-47218322D01*
X128845780Y-47218321D01*
X128845779Y-47218320D01*
X128697408Y-47110522D01*
X128695188Y-47108909D01*
X128525147Y-47033201D01*
X128525141Y-47033199D01*
X128368941Y-46999999D01*
X128343070Y-46994500D01*
X128156930Y-46994500D01*
X128131059Y-46999999D01*
X127974858Y-47033199D01*
X127974852Y-47033201D01*
X127804811Y-47108909D01*
X127654218Y-47218322D01*
X127654215Y-47218324D01*
X127529668Y-47356650D01*
X127436599Y-47517850D01*
X127436596Y-47517856D01*
X127379080Y-47694875D01*
X127379079Y-47694877D01*
X127359622Y-47880000D01*
X114875682Y-47880000D01*
X113475212Y-46479530D01*
X113475211Y-46479529D01*
X113475208Y-46479527D01*
X113395290Y-46433387D01*
X113395289Y-46433386D01*
X113319001Y-46412945D01*
X113259341Y-46376579D01*
X113228812Y-46313732D01*
X113237107Y-46244357D01*
X113281593Y-46190479D01*
X113300651Y-46179894D01*
X113455189Y-46111090D01*
X113605779Y-46001680D01*
X113608162Y-45999034D01*
X113632764Y-45971709D01*
X113730331Y-45863351D01*
X113823401Y-45702149D01*
X113880921Y-45525120D01*
X113900378Y-45340000D01*
X127359622Y-45340000D01*
X127379079Y-45525122D01*
X127379080Y-45525124D01*
X127436596Y-45702143D01*
X127436599Y-45702149D01*
X127529669Y-45863351D01*
X127573055Y-45911536D01*
X127654215Y-46001675D01*
X127654218Y-46001677D01*
X127654221Y-46001680D01*
X127726783Y-46054399D01*
X127804811Y-46111090D01*
X127974852Y-46186798D01*
X127974858Y-46186800D01*
X128156930Y-46225500D01*
X128156931Y-46225500D01*
X128343069Y-46225500D01*
X128343070Y-46225500D01*
X128525142Y-46186800D01*
X128525144Y-46186798D01*
X128525147Y-46186798D01*
X128621919Y-46143712D01*
X128695189Y-46111090D01*
X128845779Y-46001680D01*
X128848162Y-45999034D01*
X128872764Y-45971709D01*
X128970331Y-45863351D01*
X129063401Y-45702149D01*
X129120921Y-45525120D01*
X129140378Y-45340000D01*
X129120921Y-45154880D01*
X129063401Y-44977851D01*
X128970331Y-44816649D01*
X128896813Y-44734999D01*
X128845784Y-44678324D01*
X128845781Y-44678322D01*
X128845780Y-44678321D01*
X128845779Y-44678320D01*
X128733550Y-44596781D01*
X128695188Y-44568909D01*
X128525147Y-44493201D01*
X128525141Y-44493199D01*
X128381769Y-44462725D01*
X128343070Y-44454500D01*
X128156930Y-44454500D01*
X128125014Y-44461283D01*
X127974858Y-44493199D01*
X127974852Y-44493201D01*
X127804811Y-44568909D01*
X127654218Y-44678322D01*
X127654215Y-44678324D01*
X127529668Y-44816650D01*
X127436599Y-44977850D01*
X127436596Y-44977856D01*
X127379080Y-45154875D01*
X127379079Y-45154877D01*
X127359622Y-45340000D01*
X113900378Y-45340000D01*
X113880921Y-45154880D01*
X113823401Y-44977851D01*
X113730331Y-44816649D01*
X113656813Y-44734999D01*
X113605784Y-44678324D01*
X113605781Y-44678322D01*
X113605780Y-44678321D01*
X113605779Y-44678320D01*
X113493550Y-44596781D01*
X113455188Y-44568909D01*
X113285147Y-44493201D01*
X113285141Y-44493199D01*
X113141769Y-44462725D01*
X113103070Y-44454500D01*
X112916930Y-44454500D01*
X112885014Y-44461283D01*
X112734858Y-44493199D01*
X112734852Y-44493201D01*
X112564811Y-44568909D01*
X112414218Y-44678322D01*
X112414215Y-44678324D01*
X112289668Y-44816650D01*
X112196599Y-44977850D01*
X112196596Y-44977856D01*
X112139080Y-45154875D01*
X112139079Y-45154877D01*
X112119622Y-45340000D01*
X112139079Y-45525122D01*
X112139080Y-45525124D01*
X112196596Y-45702143D01*
X112196599Y-45702149D01*
X112289669Y-45863351D01*
X112333055Y-45911536D01*
X112414215Y-46001675D01*
X112414218Y-46001677D01*
X112414221Y-46001680D01*
X112486783Y-46054399D01*
X112564811Y-46111090D01*
X112702112Y-46172221D01*
X112755349Y-46217471D01*
X112775670Y-46284320D01*
X112756625Y-46351544D01*
X112704258Y-46397799D01*
X112651676Y-46409500D01*
X107958724Y-46409500D01*
X107891685Y-46389815D01*
X107845930Y-46337011D01*
X107835986Y-46267853D01*
X107865011Y-46204297D01*
X107908288Y-46172221D01*
X107986810Y-46137260D01*
X108045589Y-46111090D01*
X108196179Y-46001680D01*
X108198562Y-45999034D01*
X108223164Y-45971709D01*
X108320731Y-45863351D01*
X108413801Y-45702149D01*
X108471321Y-45525120D01*
X108490778Y-45340000D01*
X108471321Y-45154880D01*
X108413801Y-44977851D01*
X108320731Y-44816649D01*
X108247213Y-44734999D01*
X108196184Y-44678324D01*
X108196181Y-44678322D01*
X108196180Y-44678321D01*
X108196179Y-44678320D01*
X108083950Y-44596781D01*
X108045588Y-44568909D01*
X107875547Y-44493201D01*
X107875541Y-44493199D01*
X107732169Y-44462725D01*
X107693470Y-44454500D01*
X107507330Y-44454500D01*
X107475414Y-44461283D01*
X107325258Y-44493199D01*
X107325252Y-44493201D01*
X107155211Y-44568909D01*
X107004618Y-44678322D01*
X107004615Y-44678324D01*
X106880068Y-44816650D01*
X106786999Y-44977850D01*
X106786996Y-44977856D01*
X106729480Y-45154875D01*
X106729479Y-45154877D01*
X106710022Y-45340000D01*
X106729479Y-45525122D01*
X106729480Y-45525124D01*
X106786996Y-45702143D01*
X106786999Y-45702149D01*
X106880069Y-45863351D01*
X106923455Y-45911536D01*
X107004615Y-46001675D01*
X107004618Y-46001677D01*
X107004621Y-46001680D01*
X107077183Y-46054399D01*
X107155211Y-46111090D01*
X107292512Y-46172221D01*
X107345749Y-46217471D01*
X107366070Y-46284320D01*
X107347025Y-46351544D01*
X107294658Y-46397799D01*
X107242076Y-46409500D01*
X103574500Y-46409500D01*
X103507461Y-46389815D01*
X103461706Y-46337011D01*
X103450500Y-46285500D01*
X103450500Y-46210323D01*
X103450499Y-46210321D01*
X103435967Y-46137264D01*
X103435966Y-46137260D01*
X103418480Y-46111090D01*
X103380601Y-46054399D01*
X103325235Y-46017405D01*
X103297739Y-45999033D01*
X103297735Y-45999032D01*
X103224677Y-45984500D01*
X103224674Y-45984500D01*
X101675326Y-45984500D01*
X101675323Y-45984500D01*
X101602264Y-45999032D01*
X101602260Y-45999033D01*
X101519399Y-46054399D01*
X101464033Y-46137260D01*
X101464032Y-46137264D01*
X101449500Y-46210321D01*
X92524883Y-46210321D01*
X92635542Y-46186800D01*
X92635544Y-46186798D01*
X92635547Y-46186798D01*
X92732319Y-46143712D01*
X92805589Y-46111090D01*
X92956179Y-46001680D01*
X92958562Y-45999034D01*
X92983164Y-45971709D01*
X93080731Y-45863351D01*
X93173801Y-45702149D01*
X93231321Y-45525120D01*
X93250778Y-45340000D01*
X93247884Y-45312469D01*
X93260451Y-45243741D01*
X93308181Y-45192716D01*
X93375921Y-45175596D01*
X93442163Y-45197816D01*
X93485765Y-45252053D01*
X93489439Y-45260922D01*
X93519139Y-45332625D01*
X93607379Y-45447621D01*
X93722375Y-45535861D01*
X93856291Y-45591330D01*
X93978193Y-45607379D01*
X93999999Y-45610250D01*
X94000000Y-45610250D01*
X94000001Y-45610250D01*
X94021807Y-45607379D01*
X94143709Y-45591330D01*
X94277625Y-45535861D01*
X94392621Y-45447621D01*
X94480861Y-45332625D01*
X94536330Y-45198709D01*
X94555250Y-45055000D01*
X94554621Y-45050226D01*
X94553048Y-45038280D01*
X94536330Y-44911291D01*
X94490241Y-44800020D01*
X94480862Y-44777377D01*
X94480861Y-44777376D01*
X94480861Y-44777375D01*
X94392621Y-44662379D01*
X94277625Y-44574139D01*
X94277624Y-44574138D01*
X94277622Y-44574137D01*
X94143712Y-44518671D01*
X94143710Y-44518670D01*
X94143709Y-44518670D01*
X94071854Y-44509210D01*
X94000001Y-44499750D01*
X93999999Y-44499750D01*
X93856291Y-44518670D01*
X93856287Y-44518671D01*
X93722377Y-44574137D01*
X93607379Y-44662379D01*
X93519137Y-44777377D01*
X93463671Y-44911287D01*
X93463670Y-44911292D01*
X93445378Y-45050226D01*
X93417111Y-45114123D01*
X93358786Y-45152593D01*
X93288922Y-45153424D01*
X93229698Y-45116351D01*
X93204508Y-45072358D01*
X93173803Y-44977856D01*
X93173800Y-44977850D01*
X93135373Y-44911292D01*
X93080731Y-44816649D01*
X93007213Y-44734999D01*
X92956184Y-44678324D01*
X92956181Y-44678322D01*
X92956180Y-44678321D01*
X92956179Y-44678320D01*
X92843950Y-44596781D01*
X92805588Y-44568909D01*
X92635547Y-44493201D01*
X92635541Y-44493199D01*
X92492169Y-44462725D01*
X92453470Y-44454500D01*
X92267330Y-44454500D01*
X92235414Y-44461283D01*
X92085258Y-44493199D01*
X92085252Y-44493201D01*
X91915211Y-44568909D01*
X91764618Y-44678322D01*
X91764615Y-44678324D01*
X91640068Y-44816650D01*
X91546999Y-44977850D01*
X91546996Y-44977856D01*
X91489480Y-45154875D01*
X91489479Y-45154877D01*
X91470022Y-45340000D01*
X87900378Y-45340000D01*
X87880921Y-45154880D01*
X87823401Y-44977851D01*
X87730331Y-44816649D01*
X87656813Y-44734999D01*
X87605784Y-44678324D01*
X87605781Y-44678322D01*
X87605780Y-44678321D01*
X87605779Y-44678320D01*
X87493550Y-44596781D01*
X87455188Y-44568909D01*
X87285147Y-44493201D01*
X87285141Y-44493199D01*
X87141769Y-44462725D01*
X87103070Y-44454500D01*
X86916930Y-44454500D01*
X86885014Y-44461283D01*
X86734858Y-44493199D01*
X86734852Y-44493201D01*
X86564811Y-44568909D01*
X86414218Y-44678322D01*
X86414215Y-44678324D01*
X86289668Y-44816650D01*
X86196599Y-44977850D01*
X86196596Y-44977856D01*
X86139080Y-45154875D01*
X86139079Y-45154877D01*
X86119622Y-45340000D01*
X84782370Y-45340000D01*
X84736452Y-45302317D01*
X84736453Y-45302317D01*
X84736450Y-45302315D01*
X84553954Y-45204768D01*
X84355934Y-45144700D01*
X84355932Y-45144699D01*
X84355934Y-45144699D01*
X84150000Y-45124417D01*
X83944067Y-45144699D01*
X83746043Y-45204769D01*
X83673133Y-45243741D01*
X83563550Y-45302315D01*
X83563548Y-45302316D01*
X83563547Y-45302317D01*
X83403589Y-45433589D01*
X83272317Y-45593547D01*
X83272315Y-45593550D01*
X83263389Y-45610250D01*
X83174769Y-45776043D01*
X83114699Y-45974067D01*
X83094417Y-46180000D01*
X83114699Y-46385932D01*
X83132541Y-46444750D01*
X83174768Y-46583954D01*
X83272315Y-46766450D01*
X83272317Y-46766452D01*
X83403589Y-46926410D01*
X83493259Y-46999999D01*
X83563550Y-47057685D01*
X83746046Y-47155232D01*
X83903160Y-47202891D01*
X83961597Y-47241187D01*
X83990053Y-47304999D01*
X83979493Y-47374067D01*
X83933269Y-47426460D01*
X83899257Y-47441326D01*
X83703680Y-47493731D01*
X83703673Y-47493734D01*
X83497517Y-47589865D01*
X83311183Y-47720339D01*
X83228596Y-47802926D01*
X83167272Y-47836410D01*
X83097581Y-47831426D01*
X83041647Y-47789554D01*
X83017231Y-47724089D01*
X83026354Y-47667792D01*
X83036330Y-47643709D01*
X83055250Y-47500000D01*
X83036330Y-47356291D01*
X82986332Y-47235583D01*
X82980862Y-47222377D01*
X82980861Y-47222376D01*
X82980861Y-47222375D01*
X82892621Y-47107379D01*
X82777625Y-47019139D01*
X82777624Y-47019138D01*
X82777622Y-47019137D01*
X82643712Y-46963671D01*
X82643710Y-46963670D01*
X82643709Y-46963670D01*
X82571854Y-46954210D01*
X82500001Y-46944750D01*
X82499999Y-46944750D01*
X82356291Y-46963670D01*
X82356287Y-46963671D01*
X82222377Y-47019137D01*
X82107379Y-47107379D01*
X82019137Y-47222377D01*
X81963671Y-47356287D01*
X81963670Y-47356291D01*
X81944750Y-47499999D01*
X78231418Y-47499999D01*
X78143712Y-47463671D01*
X78143710Y-47463670D01*
X78143709Y-47463670D01*
X78071854Y-47454210D01*
X78000001Y-47444750D01*
X77999999Y-47444750D01*
X77856291Y-47463670D01*
X77856287Y-47463671D01*
X77722377Y-47519137D01*
X77607379Y-47607379D01*
X77519137Y-47722377D01*
X77463671Y-47856287D01*
X77463670Y-47856291D01*
X77460597Y-47879631D01*
X77432329Y-47943527D01*
X77374003Y-47981997D01*
X77304139Y-47982827D01*
X77258993Y-47959296D01*
X77116453Y-47842317D01*
X77116451Y-47842316D01*
X77116450Y-47842315D01*
X76933954Y-47744768D01*
X76735934Y-47684700D01*
X76735932Y-47684699D01*
X76735934Y-47684699D01*
X76530000Y-47664417D01*
X76324067Y-47684699D01*
X76126043Y-47744769D01*
X76064581Y-47777622D01*
X75943550Y-47842315D01*
X75943548Y-47842316D01*
X75943547Y-47842317D01*
X75783589Y-47973589D01*
X75652317Y-48133547D01*
X75652315Y-48133550D01*
X75627114Y-48180695D01*
X75554769Y-48316042D01*
X75504472Y-48481851D01*
X75466174Y-48540289D01*
X75402362Y-48568746D01*
X75333295Y-48558185D01*
X75310324Y-48544230D01*
X75277626Y-48519139D01*
X75277623Y-48519138D01*
X75143712Y-48463671D01*
X75143710Y-48463670D01*
X75143709Y-48463670D01*
X75071854Y-48454210D01*
X75000001Y-48444750D01*
X74999999Y-48444750D01*
X74856291Y-48463670D01*
X74856287Y-48463671D01*
X74722377Y-48519137D01*
X74607379Y-48607379D01*
X74519137Y-48722377D01*
X74463671Y-48856287D01*
X74463670Y-48856291D01*
X74444750Y-49000000D01*
X49000500Y-49000000D01*
X49000500Y-47880000D01*
X50369622Y-47880000D01*
X50389079Y-48065122D01*
X50389080Y-48065124D01*
X50446596Y-48242143D01*
X50446599Y-48242149D01*
X50539669Y-48403351D01*
X50552129Y-48417189D01*
X50664215Y-48541675D01*
X50664218Y-48541677D01*
X50664221Y-48541680D01*
X50776970Y-48623597D01*
X50814811Y-48651090D01*
X50984852Y-48726798D01*
X50984858Y-48726800D01*
X51166930Y-48765500D01*
X51166931Y-48765500D01*
X51353069Y-48765500D01*
X51353070Y-48765500D01*
X51535142Y-48726800D01*
X51535144Y-48726798D01*
X51535147Y-48726798D01*
X51668693Y-48667339D01*
X51705189Y-48651090D01*
X51855779Y-48541680D01*
X51857032Y-48540289D01*
X51894976Y-48498147D01*
X51980331Y-48403351D01*
X52073401Y-48242149D01*
X52130921Y-48065120D01*
X52150378Y-47880000D01*
X65609622Y-47880000D01*
X65629079Y-48065122D01*
X65629080Y-48065124D01*
X65686596Y-48242143D01*
X65686599Y-48242149D01*
X65779669Y-48403351D01*
X65792129Y-48417189D01*
X65904215Y-48541675D01*
X65904218Y-48541677D01*
X65904221Y-48541680D01*
X66016970Y-48623597D01*
X66054811Y-48651090D01*
X66224852Y-48726798D01*
X66224858Y-48726800D01*
X66406930Y-48765500D01*
X66406931Y-48765500D01*
X66593069Y-48765500D01*
X66593070Y-48765500D01*
X66775142Y-48726800D01*
X66775144Y-48726798D01*
X66775147Y-48726798D01*
X66908693Y-48667339D01*
X66945189Y-48651090D01*
X67095779Y-48541680D01*
X67097032Y-48540289D01*
X67134976Y-48498147D01*
X67220331Y-48403351D01*
X67313401Y-48242149D01*
X67370921Y-48065120D01*
X67390378Y-47880000D01*
X70879622Y-47880000D01*
X70899079Y-48065122D01*
X70899080Y-48065124D01*
X70956596Y-48242143D01*
X70956599Y-48242149D01*
X71049669Y-48403351D01*
X71062129Y-48417189D01*
X71174215Y-48541675D01*
X71174218Y-48541677D01*
X71174221Y-48541680D01*
X71286970Y-48623597D01*
X71324811Y-48651090D01*
X71494852Y-48726798D01*
X71494858Y-48726800D01*
X71676930Y-48765500D01*
X71676931Y-48765500D01*
X71863069Y-48765500D01*
X71863070Y-48765500D01*
X72045142Y-48726800D01*
X72045144Y-48726798D01*
X72045147Y-48726798D01*
X72178693Y-48667339D01*
X72215189Y-48651090D01*
X72365779Y-48541680D01*
X72367032Y-48540289D01*
X72404976Y-48498147D01*
X72490331Y-48403351D01*
X72583401Y-48242149D01*
X72640921Y-48065120D01*
X72660378Y-47880000D01*
X72640921Y-47694880D01*
X72583976Y-47519621D01*
X72583403Y-47517856D01*
X72583400Y-47517850D01*
X72575376Y-47503952D01*
X72490331Y-47356649D01*
X72441547Y-47302469D01*
X72365784Y-47218324D01*
X72365781Y-47218322D01*
X72365780Y-47218321D01*
X72365779Y-47218320D01*
X72217408Y-47110522D01*
X72215188Y-47108909D01*
X72045147Y-47033201D01*
X72045141Y-47033199D01*
X71888946Y-47000000D01*
X74444750Y-47000000D01*
X74461889Y-47130185D01*
X74463670Y-47143708D01*
X74463671Y-47143712D01*
X74519137Y-47277622D01*
X74519138Y-47277624D01*
X74519139Y-47277625D01*
X74607379Y-47392621D01*
X74722375Y-47480861D01*
X74856291Y-47536330D01*
X74983280Y-47553048D01*
X74999999Y-47555250D01*
X75000000Y-47555250D01*
X75000001Y-47555250D01*
X75014977Y-47553278D01*
X75143709Y-47536330D01*
X75277625Y-47480861D01*
X75392621Y-47392621D01*
X75480861Y-47277625D01*
X75536330Y-47143709D01*
X75555250Y-47000000D01*
X75555250Y-46999999D01*
X75555250Y-46994734D01*
X75574935Y-46927695D01*
X75627739Y-46881940D01*
X75696897Y-46871996D01*
X75760453Y-46901021D01*
X75775104Y-46916070D01*
X75783589Y-46926410D01*
X75873259Y-46999999D01*
X75943550Y-47057685D01*
X76126046Y-47155232D01*
X76324066Y-47215300D01*
X76324065Y-47215300D01*
X76342529Y-47217118D01*
X76530000Y-47235583D01*
X76735934Y-47215300D01*
X76933954Y-47155232D01*
X77116450Y-47057685D01*
X77276410Y-46926410D01*
X77407685Y-46766450D01*
X77505232Y-46583954D01*
X77565300Y-46385934D01*
X77585583Y-46180000D01*
X77565300Y-45974066D01*
X77505232Y-45776046D01*
X77407685Y-45593550D01*
X77346616Y-45519137D01*
X77276410Y-45433589D01*
X77116452Y-45302317D01*
X77116453Y-45302317D01*
X77116450Y-45302315D01*
X76933954Y-45204768D01*
X76735934Y-45144700D01*
X76735932Y-45144699D01*
X76735934Y-45144699D01*
X76530000Y-45124417D01*
X76324067Y-45144699D01*
X76126043Y-45204769D01*
X76053133Y-45243741D01*
X75943550Y-45302315D01*
X75943548Y-45302316D01*
X75943547Y-45302317D01*
X75783589Y-45433589D01*
X75652317Y-45593547D01*
X75652315Y-45593550D01*
X75643389Y-45610250D01*
X75554769Y-45776043D01*
X75494699Y-45974067D01*
X75474417Y-46180000D01*
X75494699Y-46385932D01*
X75501195Y-46407345D01*
X75501818Y-46477212D01*
X75464569Y-46536325D01*
X75401275Y-46565916D01*
X75332031Y-46556589D01*
X75307048Y-46541716D01*
X75277625Y-46519139D01*
X75277623Y-46519138D01*
X75143712Y-46463671D01*
X75143710Y-46463670D01*
X75143709Y-46463670D01*
X75071854Y-46454210D01*
X75000001Y-46444750D01*
X74999999Y-46444750D01*
X74856291Y-46463670D01*
X74856287Y-46463671D01*
X74722377Y-46519137D01*
X74607379Y-46607379D01*
X74519137Y-46722377D01*
X74463671Y-46856287D01*
X74463670Y-46856291D01*
X74444750Y-47000000D01*
X71888946Y-47000000D01*
X71888941Y-46999999D01*
X71863070Y-46994500D01*
X71676930Y-46994500D01*
X71651059Y-46999999D01*
X71494858Y-47033199D01*
X71494852Y-47033201D01*
X71324811Y-47108909D01*
X71174218Y-47218322D01*
X71174215Y-47218324D01*
X71049668Y-47356650D01*
X70956599Y-47517850D01*
X70956596Y-47517856D01*
X70899080Y-47694875D01*
X70899079Y-47694877D01*
X70879622Y-47880000D01*
X67390378Y-47880000D01*
X67370921Y-47694880D01*
X67313976Y-47519621D01*
X67313403Y-47517856D01*
X67313400Y-47517850D01*
X67305376Y-47503952D01*
X67220331Y-47356649D01*
X67171547Y-47302469D01*
X67095784Y-47218324D01*
X67095781Y-47218322D01*
X67095780Y-47218321D01*
X67095779Y-47218320D01*
X66947408Y-47110522D01*
X66945188Y-47108909D01*
X66775147Y-47033201D01*
X66775141Y-47033199D01*
X66618941Y-46999999D01*
X66593070Y-46994500D01*
X66406930Y-46994500D01*
X66381059Y-46999999D01*
X66224858Y-47033199D01*
X66224852Y-47033201D01*
X66054811Y-47108909D01*
X65904218Y-47218322D01*
X65904215Y-47218324D01*
X65779668Y-47356650D01*
X65686599Y-47517850D01*
X65686596Y-47517856D01*
X65629080Y-47694875D01*
X65629079Y-47694877D01*
X65609622Y-47880000D01*
X52150378Y-47880000D01*
X52130921Y-47694880D01*
X52073976Y-47519621D01*
X52073403Y-47517856D01*
X52073400Y-47517850D01*
X52065376Y-47503952D01*
X51980331Y-47356649D01*
X51931547Y-47302469D01*
X51855784Y-47218324D01*
X51855781Y-47218322D01*
X51855780Y-47218321D01*
X51855779Y-47218320D01*
X51707408Y-47110522D01*
X51705188Y-47108909D01*
X51535147Y-47033201D01*
X51535141Y-47033199D01*
X51378941Y-46999999D01*
X51353070Y-46994500D01*
X51166930Y-46994500D01*
X51141059Y-46999999D01*
X50984858Y-47033199D01*
X50984852Y-47033201D01*
X50814811Y-47108909D01*
X50664218Y-47218322D01*
X50664215Y-47218324D01*
X50539668Y-47356650D01*
X50446599Y-47517850D01*
X50446596Y-47517856D01*
X50389080Y-47694875D01*
X50389079Y-47694877D01*
X50369622Y-47880000D01*
X49000500Y-47880000D01*
X49000500Y-45340000D01*
X50369622Y-45340000D01*
X50389079Y-45525122D01*
X50389080Y-45525124D01*
X50446596Y-45702143D01*
X50446599Y-45702149D01*
X50539669Y-45863351D01*
X50583055Y-45911536D01*
X50664215Y-46001675D01*
X50664218Y-46001677D01*
X50664221Y-46001680D01*
X50736783Y-46054399D01*
X50814811Y-46111090D01*
X50984852Y-46186798D01*
X50984858Y-46186800D01*
X51166930Y-46225500D01*
X51166931Y-46225500D01*
X51353069Y-46225500D01*
X51353070Y-46225500D01*
X51535142Y-46186800D01*
X51535144Y-46186798D01*
X51535147Y-46186798D01*
X51631919Y-46143712D01*
X51705189Y-46111090D01*
X51855779Y-46001680D01*
X51858162Y-45999034D01*
X51882764Y-45971709D01*
X51980331Y-45863351D01*
X52073401Y-45702149D01*
X52130921Y-45525120D01*
X52150378Y-45340000D01*
X65609622Y-45340000D01*
X65629079Y-45525122D01*
X65629080Y-45525124D01*
X65686596Y-45702143D01*
X65686599Y-45702149D01*
X65779669Y-45863351D01*
X65823055Y-45911536D01*
X65904215Y-46001675D01*
X65904218Y-46001677D01*
X65904221Y-46001680D01*
X65976783Y-46054399D01*
X66054811Y-46111090D01*
X66224852Y-46186798D01*
X66224858Y-46186800D01*
X66406930Y-46225500D01*
X66406931Y-46225500D01*
X66593069Y-46225500D01*
X66593070Y-46225500D01*
X66775142Y-46186800D01*
X66775144Y-46186798D01*
X66775147Y-46186798D01*
X66871919Y-46143712D01*
X66945189Y-46111090D01*
X67095779Y-46001680D01*
X67098162Y-45999034D01*
X67122764Y-45971709D01*
X67220331Y-45863351D01*
X67313401Y-45702149D01*
X67370921Y-45525120D01*
X67390378Y-45340000D01*
X67370921Y-45154880D01*
X67313401Y-44977851D01*
X67220331Y-44816649D01*
X67146813Y-44734999D01*
X67095784Y-44678324D01*
X67095781Y-44678322D01*
X67095780Y-44678321D01*
X67095779Y-44678320D01*
X66983550Y-44596781D01*
X66945188Y-44568909D01*
X66775147Y-44493201D01*
X66775141Y-44493199D01*
X66631769Y-44462725D01*
X66593070Y-44454500D01*
X66406930Y-44454500D01*
X66375014Y-44461283D01*
X66224858Y-44493199D01*
X66224852Y-44493201D01*
X66054811Y-44568909D01*
X65904218Y-44678322D01*
X65904215Y-44678324D01*
X65779668Y-44816650D01*
X65686599Y-44977850D01*
X65686596Y-44977856D01*
X65629080Y-45154875D01*
X65629079Y-45154877D01*
X65609622Y-45340000D01*
X52150378Y-45340000D01*
X52130921Y-45154880D01*
X52073401Y-44977851D01*
X51980331Y-44816649D01*
X51906813Y-44734999D01*
X51855784Y-44678324D01*
X51855781Y-44678322D01*
X51855780Y-44678321D01*
X51855779Y-44678320D01*
X51743550Y-44596781D01*
X51705188Y-44568909D01*
X51535147Y-44493201D01*
X51535141Y-44493199D01*
X51391769Y-44462725D01*
X51353070Y-44454500D01*
X51166930Y-44454500D01*
X51135014Y-44461283D01*
X50984858Y-44493199D01*
X50984852Y-44493201D01*
X50814811Y-44568909D01*
X50664218Y-44678322D01*
X50664215Y-44678324D01*
X50539668Y-44816650D01*
X50446599Y-44977850D01*
X50446596Y-44977856D01*
X50389080Y-45154875D01*
X50389079Y-45154877D01*
X50369622Y-45340000D01*
X49000500Y-45340000D01*
X49000500Y-43936338D01*
X67542610Y-43936338D01*
X67556778Y-44043956D01*
X67561530Y-44080046D01*
X67561531Y-44080050D01*
X67616997Y-44213960D01*
X67616998Y-44213962D01*
X67616999Y-44213963D01*
X67705239Y-44328959D01*
X67820235Y-44417199D01*
X67820236Y-44417199D01*
X67820237Y-44417200D01*
X67848023Y-44428709D01*
X67954151Y-44472668D01*
X68081140Y-44489386D01*
X68097859Y-44491588D01*
X68097860Y-44491588D01*
X68097861Y-44491588D01*
X68118989Y-44488806D01*
X68225881Y-44474733D01*
X68294914Y-44485498D01*
X68347170Y-44531878D01*
X68356626Y-44550219D01*
X68368974Y-44580030D01*
X68375914Y-44596784D01*
X68464154Y-44711780D01*
X68480850Y-44724591D01*
X68494413Y-44734999D01*
X68535616Y-44791427D01*
X68539770Y-44861173D01*
X68533488Y-44880825D01*
X68495100Y-44973504D01*
X68476180Y-45117212D01*
X68476180Y-45117213D01*
X68495100Y-45260921D01*
X68495101Y-45260925D01*
X68550567Y-45394835D01*
X68550568Y-45394837D01*
X68550569Y-45394838D01*
X68638809Y-45509834D01*
X68753805Y-45598074D01*
X68753806Y-45598074D01*
X68753807Y-45598075D01*
X68783201Y-45610250D01*
X68887721Y-45653543D01*
X69014710Y-45670261D01*
X69031429Y-45672463D01*
X69031430Y-45672463D01*
X69031431Y-45672463D01*
X69046407Y-45670491D01*
X69175139Y-45653543D01*
X69309055Y-45598074D01*
X69424051Y-45509834D01*
X69512291Y-45394838D01*
X69535005Y-45340000D01*
X70879622Y-45340000D01*
X70899079Y-45525122D01*
X70899080Y-45525124D01*
X70956596Y-45702143D01*
X70956599Y-45702149D01*
X71049669Y-45863351D01*
X71093055Y-45911536D01*
X71174215Y-46001675D01*
X71174218Y-46001677D01*
X71174221Y-46001680D01*
X71246783Y-46054399D01*
X71324811Y-46111090D01*
X71494852Y-46186798D01*
X71494858Y-46186800D01*
X71676930Y-46225500D01*
X71676931Y-46225500D01*
X71863069Y-46225500D01*
X71863070Y-46225500D01*
X72045142Y-46186800D01*
X72045144Y-46186798D01*
X72045147Y-46186798D01*
X72141919Y-46143712D01*
X72215189Y-46111090D01*
X72365779Y-46001680D01*
X72368162Y-45999034D01*
X72392764Y-45971709D01*
X72490331Y-45863351D01*
X72583401Y-45702149D01*
X72640921Y-45525120D01*
X72660378Y-45340000D01*
X72640921Y-45154880D01*
X72583401Y-44977851D01*
X72490331Y-44816649D01*
X72416813Y-44734999D01*
X72365784Y-44678324D01*
X72365781Y-44678322D01*
X72365780Y-44678321D01*
X72365779Y-44678320D01*
X72253550Y-44596781D01*
X72215188Y-44568909D01*
X72045147Y-44493201D01*
X72045141Y-44493199D01*
X71901769Y-44462725D01*
X71863070Y-44454500D01*
X71676930Y-44454500D01*
X71645014Y-44461283D01*
X71494858Y-44493199D01*
X71494852Y-44493201D01*
X71324811Y-44568909D01*
X71174218Y-44678322D01*
X71174215Y-44678324D01*
X71049668Y-44816650D01*
X70956599Y-44977850D01*
X70956596Y-44977856D01*
X70899080Y-45154875D01*
X70899079Y-45154877D01*
X70879622Y-45340000D01*
X69535005Y-45340000D01*
X69567760Y-45260922D01*
X69586680Y-45117213D01*
X69567760Y-44973504D01*
X69512291Y-44839588D01*
X69424051Y-44724592D01*
X69393789Y-44701371D01*
X69352588Y-44644944D01*
X69348434Y-44575197D01*
X69354713Y-44555553D01*
X69393105Y-44462868D01*
X69412025Y-44319159D01*
X69407528Y-44284999D01*
X69729750Y-44284999D01*
X69729750Y-44285000D01*
X69748670Y-44428708D01*
X69748671Y-44428712D01*
X69804137Y-44562622D01*
X69804138Y-44562624D01*
X69804139Y-44562625D01*
X69892379Y-44677621D01*
X70007375Y-44765861D01*
X70141291Y-44821330D01*
X70268280Y-44838048D01*
X70284999Y-44840250D01*
X70285000Y-44840250D01*
X70285001Y-44840250D01*
X70299977Y-44838278D01*
X70428709Y-44821330D01*
X70562625Y-44765861D01*
X70677621Y-44677621D01*
X70765861Y-44562625D01*
X70821330Y-44428709D01*
X70840250Y-44285000D01*
X70821330Y-44141291D01*
X70765861Y-44007375D01*
X70677621Y-43892379D01*
X70562625Y-43804139D01*
X70562624Y-43804138D01*
X70562622Y-43804137D01*
X70428712Y-43748671D01*
X70428710Y-43748670D01*
X70428709Y-43748670D01*
X70356854Y-43739210D01*
X70285001Y-43729750D01*
X70284999Y-43729750D01*
X70141291Y-43748670D01*
X70141287Y-43748671D01*
X70007377Y-43804137D01*
X69892379Y-43892379D01*
X69804137Y-44007377D01*
X69748671Y-44141287D01*
X69748670Y-44141291D01*
X69729750Y-44284999D01*
X69407528Y-44284999D01*
X69393105Y-44175450D01*
X69338639Y-44043956D01*
X69337637Y-44041536D01*
X69337636Y-44041535D01*
X69337636Y-44041534D01*
X69249396Y-43926538D01*
X69134400Y-43838298D01*
X69134399Y-43838297D01*
X69134397Y-43838296D01*
X69000487Y-43782830D01*
X69000485Y-43782829D01*
X69000484Y-43782829D01*
X68903017Y-43769997D01*
X68856776Y-43763909D01*
X68856773Y-43763909D01*
X68728754Y-43780763D01*
X68659719Y-43769997D01*
X68607463Y-43723617D01*
X68598008Y-43705276D01*
X68578722Y-43658715D01*
X68578721Y-43658714D01*
X68578721Y-43658713D01*
X68490481Y-43543717D01*
X68375485Y-43455477D01*
X68375484Y-43455476D01*
X68375482Y-43455475D01*
X68241572Y-43400009D01*
X68241570Y-43400008D01*
X68241569Y-43400008D01*
X68169714Y-43390548D01*
X68097861Y-43381088D01*
X68097859Y-43381088D01*
X67954151Y-43400008D01*
X67954147Y-43400009D01*
X67820237Y-43455475D01*
X67705239Y-43543717D01*
X67616997Y-43658715D01*
X67561531Y-43792625D01*
X67561530Y-43792629D01*
X67542610Y-43936338D01*
X49000500Y-43936338D01*
X49000500Y-42800000D01*
X50369622Y-42800000D01*
X50389079Y-42985122D01*
X50389080Y-42985124D01*
X50446596Y-43162143D01*
X50446599Y-43162149D01*
X50539669Y-43323351D01*
X50583055Y-43371536D01*
X50664215Y-43461675D01*
X50664218Y-43461677D01*
X50664221Y-43461680D01*
X50814811Y-43571090D01*
X50984852Y-43646798D01*
X50984858Y-43646800D01*
X51166930Y-43685500D01*
X51166931Y-43685500D01*
X51353069Y-43685500D01*
X51353070Y-43685500D01*
X51535142Y-43646800D01*
X51535144Y-43646798D01*
X51535147Y-43646798D01*
X51623683Y-43607379D01*
X51705189Y-43571090D01*
X51855779Y-43461680D01*
X51861365Y-43455477D01*
X51882764Y-43431709D01*
X51980331Y-43323351D01*
X52073401Y-43162149D01*
X52130921Y-42985120D01*
X52150378Y-42800000D01*
X65609622Y-42800000D01*
X65629079Y-42985122D01*
X65629080Y-42985124D01*
X65686596Y-43162143D01*
X65686599Y-43162149D01*
X65779669Y-43323351D01*
X65823055Y-43371536D01*
X65904215Y-43461675D01*
X65904218Y-43461677D01*
X65904221Y-43461680D01*
X66054811Y-43571090D01*
X66224852Y-43646798D01*
X66224858Y-43646800D01*
X66406930Y-43685500D01*
X66406931Y-43685500D01*
X66593069Y-43685500D01*
X66593070Y-43685500D01*
X66775142Y-43646800D01*
X66775144Y-43646798D01*
X66775147Y-43646798D01*
X66863683Y-43607379D01*
X66945189Y-43571090D01*
X67095779Y-43461680D01*
X67101365Y-43455477D01*
X67122764Y-43431709D01*
X67220331Y-43323351D01*
X67313401Y-43162149D01*
X67370921Y-42985120D01*
X67390378Y-42800000D01*
X70879622Y-42800000D01*
X70899079Y-42985122D01*
X70899080Y-42985124D01*
X70956596Y-43162143D01*
X70956599Y-43162149D01*
X71049669Y-43323351D01*
X71093055Y-43371536D01*
X71174215Y-43461675D01*
X71174218Y-43461677D01*
X71174221Y-43461680D01*
X71324811Y-43571090D01*
X71494852Y-43646798D01*
X71494858Y-43646800D01*
X71676930Y-43685500D01*
X71676931Y-43685500D01*
X71863069Y-43685500D01*
X71863070Y-43685500D01*
X72045142Y-43646800D01*
X72045144Y-43646798D01*
X72045147Y-43646798D01*
X72060415Y-43640000D01*
X75474417Y-43640000D01*
X75494699Y-43845932D01*
X75508789Y-43892379D01*
X75554768Y-44043954D01*
X75652315Y-44226450D01*
X75652317Y-44226452D01*
X75783589Y-44386410D01*
X75866558Y-44454500D01*
X75943550Y-44517685D01*
X76126046Y-44615232D01*
X76324066Y-44675300D01*
X76324065Y-44675300D01*
X76342529Y-44677118D01*
X76530000Y-44695583D01*
X76735934Y-44675300D01*
X76933954Y-44615232D01*
X77116450Y-44517685D01*
X77276410Y-44386410D01*
X77407685Y-44226450D01*
X77505232Y-44043954D01*
X77518565Y-44000000D01*
X79444750Y-44000000D01*
X79455288Y-44080046D01*
X79463670Y-44143708D01*
X79463671Y-44143712D01*
X79519137Y-44277622D01*
X79519138Y-44277624D01*
X79519139Y-44277625D01*
X79607379Y-44392621D01*
X79722375Y-44480861D01*
X79722376Y-44480861D01*
X79722377Y-44480862D01*
X79752162Y-44493199D01*
X79856291Y-44536330D01*
X79983280Y-44553048D01*
X79999999Y-44555250D01*
X80000000Y-44555250D01*
X80000001Y-44555250D01*
X80014977Y-44553278D01*
X80143709Y-44536330D01*
X80277625Y-44480861D01*
X80392621Y-44392621D01*
X80480861Y-44277625D01*
X80536330Y-44143709D01*
X80555250Y-44000000D01*
X80536330Y-43856291D01*
X80483916Y-43729750D01*
X80480862Y-43722377D01*
X80480861Y-43722376D01*
X80480861Y-43722375D01*
X80417652Y-43640000D01*
X83094417Y-43640000D01*
X83114699Y-43845932D01*
X83128789Y-43892379D01*
X83174768Y-44043954D01*
X83272315Y-44226450D01*
X83272317Y-44226452D01*
X83403589Y-44386410D01*
X83486558Y-44454500D01*
X83563550Y-44517685D01*
X83746046Y-44615232D01*
X83944066Y-44675300D01*
X83944065Y-44675300D01*
X83962529Y-44677118D01*
X84150000Y-44695583D01*
X84355934Y-44675300D01*
X84553954Y-44615232D01*
X84736450Y-44517685D01*
X84896410Y-44386410D01*
X85027685Y-44226450D01*
X85125232Y-44043954D01*
X85138565Y-44000000D01*
X88444750Y-44000000D01*
X88455288Y-44080046D01*
X88463670Y-44143708D01*
X88463671Y-44143712D01*
X88519137Y-44277622D01*
X88519138Y-44277624D01*
X88519139Y-44277625D01*
X88607379Y-44392621D01*
X88722375Y-44480861D01*
X88722376Y-44480861D01*
X88722377Y-44480862D01*
X88752162Y-44493199D01*
X88856291Y-44536330D01*
X88983280Y-44553048D01*
X88999999Y-44555250D01*
X89000000Y-44555250D01*
X89000001Y-44555250D01*
X89014977Y-44553278D01*
X89143709Y-44536330D01*
X89277625Y-44480861D01*
X89392621Y-44392621D01*
X89480861Y-44277625D01*
X89536330Y-44143709D01*
X89555250Y-44000000D01*
X89536330Y-43856291D01*
X89483916Y-43729750D01*
X89480862Y-43722377D01*
X89480861Y-43722376D01*
X89480861Y-43722375D01*
X89392621Y-43607379D01*
X89277625Y-43519139D01*
X89277624Y-43519138D01*
X89277622Y-43519137D01*
X89143712Y-43463671D01*
X89143710Y-43463670D01*
X89143709Y-43463670D01*
X89071854Y-43454210D01*
X89000001Y-43444750D01*
X88999999Y-43444750D01*
X88856291Y-43463670D01*
X88856287Y-43463671D01*
X88722377Y-43519137D01*
X88607379Y-43607379D01*
X88519137Y-43722377D01*
X88463671Y-43856287D01*
X88463670Y-43856291D01*
X88453132Y-43936337D01*
X88444750Y-44000000D01*
X85138565Y-44000000D01*
X85185300Y-43845934D01*
X85205583Y-43640000D01*
X85185300Y-43434066D01*
X85125232Y-43236046D01*
X85027685Y-43053550D01*
X84945675Y-42953620D01*
X84896410Y-42893589D01*
X84782370Y-42800000D01*
X86119622Y-42800000D01*
X86139079Y-42985122D01*
X86139080Y-42985124D01*
X86196596Y-43162143D01*
X86196599Y-43162149D01*
X86289669Y-43323351D01*
X86333055Y-43371536D01*
X86414215Y-43461675D01*
X86414218Y-43461677D01*
X86414221Y-43461680D01*
X86564811Y-43571090D01*
X86734852Y-43646798D01*
X86734858Y-43646800D01*
X86916930Y-43685500D01*
X86916931Y-43685500D01*
X87103069Y-43685500D01*
X87103070Y-43685500D01*
X87285142Y-43646800D01*
X87285144Y-43646798D01*
X87285147Y-43646798D01*
X87373683Y-43607379D01*
X87455189Y-43571090D01*
X87605779Y-43461680D01*
X87611365Y-43455477D01*
X87632764Y-43431709D01*
X87730331Y-43323351D01*
X87823401Y-43162149D01*
X87880921Y-42985120D01*
X87900378Y-42800000D01*
X91470022Y-42800000D01*
X91489479Y-42985122D01*
X91489480Y-42985124D01*
X91546996Y-43162143D01*
X91546999Y-43162149D01*
X91640069Y-43323351D01*
X91683455Y-43371536D01*
X91764615Y-43461675D01*
X91764618Y-43461677D01*
X91764621Y-43461680D01*
X91915211Y-43571090D01*
X92085252Y-43646798D01*
X92085258Y-43646800D01*
X92267330Y-43685500D01*
X92267331Y-43685500D01*
X92453469Y-43685500D01*
X92453470Y-43685500D01*
X92635542Y-43646800D01*
X92635544Y-43646798D01*
X92635547Y-43646798D01*
X92724083Y-43607379D01*
X92805589Y-43571090D01*
X92956179Y-43461680D01*
X92961765Y-43455477D01*
X92983164Y-43431709D01*
X93080731Y-43323351D01*
X93173801Y-43162149D01*
X93231321Y-42985120D01*
X93250778Y-42800000D01*
X93231321Y-42614880D01*
X93173801Y-42437851D01*
X93080731Y-42276649D01*
X93031947Y-42222469D01*
X92956184Y-42138324D01*
X92956181Y-42138322D01*
X92956180Y-42138321D01*
X92956179Y-42138320D01*
X92805589Y-42028910D01*
X92805588Y-42028909D01*
X92635547Y-41953201D01*
X92635541Y-41953199D01*
X92492169Y-41922725D01*
X92453470Y-41914500D01*
X92267330Y-41914500D01*
X92235414Y-41921283D01*
X92085258Y-41953199D01*
X92085252Y-41953201D01*
X91915211Y-42028909D01*
X91764618Y-42138322D01*
X91764615Y-42138324D01*
X91640068Y-42276650D01*
X91546999Y-42437850D01*
X91546996Y-42437856D01*
X91489480Y-42614875D01*
X91489479Y-42614877D01*
X91470022Y-42800000D01*
X87900378Y-42800000D01*
X87880921Y-42614880D01*
X87823401Y-42437851D01*
X87730331Y-42276649D01*
X87681547Y-42222469D01*
X87605784Y-42138324D01*
X87605781Y-42138322D01*
X87605780Y-42138321D01*
X87605779Y-42138320D01*
X87455189Y-42028910D01*
X87455188Y-42028909D01*
X87390256Y-41999999D01*
X89444750Y-41999999D01*
X89444750Y-42000000D01*
X89463670Y-42143708D01*
X89463671Y-42143712D01*
X89519137Y-42277622D01*
X89519138Y-42277624D01*
X89519139Y-42277625D01*
X89607379Y-42392621D01*
X89722375Y-42480861D01*
X89856291Y-42536330D01*
X89983280Y-42553048D01*
X89999999Y-42555250D01*
X90000000Y-42555250D01*
X90000001Y-42555250D01*
X90014977Y-42553278D01*
X90143709Y-42536330D01*
X90277625Y-42480861D01*
X90392621Y-42392621D01*
X90480861Y-42277625D01*
X90536330Y-42143709D01*
X90555250Y-42000000D01*
X90536330Y-41856291D01*
X90480861Y-41722375D01*
X90392621Y-41607379D01*
X90277625Y-41519139D01*
X90277624Y-41519138D01*
X90277622Y-41519137D01*
X90143712Y-41463671D01*
X90143710Y-41463670D01*
X90143709Y-41463670D01*
X90071854Y-41454210D01*
X90000001Y-41444750D01*
X89999999Y-41444750D01*
X89856291Y-41463670D01*
X89856287Y-41463671D01*
X89722377Y-41519137D01*
X89607379Y-41607379D01*
X89519137Y-41722377D01*
X89463671Y-41856287D01*
X89463670Y-41856291D01*
X89444750Y-41999999D01*
X87390256Y-41999999D01*
X87285147Y-41953201D01*
X87285141Y-41953199D01*
X87141769Y-41922725D01*
X87103070Y-41914500D01*
X86916930Y-41914500D01*
X86885014Y-41921283D01*
X86734858Y-41953199D01*
X86734852Y-41953201D01*
X86564811Y-42028909D01*
X86414218Y-42138322D01*
X86414215Y-42138324D01*
X86289668Y-42276650D01*
X86196599Y-42437850D01*
X86196596Y-42437856D01*
X86139080Y-42614875D01*
X86139079Y-42614877D01*
X86119622Y-42800000D01*
X84782370Y-42800000D01*
X84736452Y-42762317D01*
X84736453Y-42762317D01*
X84736450Y-42762315D01*
X84553954Y-42664768D01*
X84355934Y-42604700D01*
X84355932Y-42604699D01*
X84355934Y-42604699D01*
X84150000Y-42584417D01*
X83944067Y-42604699D01*
X83768692Y-42657898D01*
X83752986Y-42662663D01*
X83746043Y-42664769D01*
X83635898Y-42723643D01*
X83563550Y-42762315D01*
X83563548Y-42762316D01*
X83563547Y-42762317D01*
X83403589Y-42893589D01*
X83272317Y-43053547D01*
X83174769Y-43236043D01*
X83114699Y-43434067D01*
X83094417Y-43640000D01*
X80417652Y-43640000D01*
X80392621Y-43607379D01*
X80277625Y-43519139D01*
X80277624Y-43519138D01*
X80277622Y-43519137D01*
X80143712Y-43463671D01*
X80143710Y-43463670D01*
X80143709Y-43463670D01*
X80071854Y-43454210D01*
X80000001Y-43444750D01*
X79999999Y-43444750D01*
X79856291Y-43463670D01*
X79856287Y-43463671D01*
X79722377Y-43519137D01*
X79607379Y-43607379D01*
X79519137Y-43722377D01*
X79463671Y-43856287D01*
X79463670Y-43856291D01*
X79453132Y-43936337D01*
X79444750Y-44000000D01*
X77518565Y-44000000D01*
X77565300Y-43845934D01*
X77585583Y-43640000D01*
X77565300Y-43434066D01*
X77505232Y-43236046D01*
X77407685Y-43053550D01*
X77325675Y-42953620D01*
X77276410Y-42893589D01*
X77116452Y-42762317D01*
X77116453Y-42762317D01*
X77116450Y-42762315D01*
X76933954Y-42664768D01*
X76735934Y-42604700D01*
X76735932Y-42604699D01*
X76735934Y-42604699D01*
X76530000Y-42584417D01*
X76324067Y-42604699D01*
X76148692Y-42657898D01*
X76132986Y-42662663D01*
X76126043Y-42664769D01*
X76015898Y-42723643D01*
X75943550Y-42762315D01*
X75943548Y-42762316D01*
X75943547Y-42762317D01*
X75783589Y-42893589D01*
X75652317Y-43053547D01*
X75554769Y-43236043D01*
X75494699Y-43434067D01*
X75474417Y-43640000D01*
X72060415Y-43640000D01*
X72133683Y-43607379D01*
X72215189Y-43571090D01*
X72365779Y-43461680D01*
X72371365Y-43455477D01*
X72392764Y-43431709D01*
X72490331Y-43323351D01*
X72583401Y-43162149D01*
X72640921Y-42985120D01*
X72660378Y-42800000D01*
X72640921Y-42614880D01*
X72583401Y-42437851D01*
X72490331Y-42276649D01*
X72441547Y-42222469D01*
X72365784Y-42138324D01*
X72365781Y-42138322D01*
X72365780Y-42138321D01*
X72365779Y-42138320D01*
X72215189Y-42028910D01*
X72215188Y-42028909D01*
X72045147Y-41953201D01*
X72045141Y-41953199D01*
X71901769Y-41922725D01*
X71863070Y-41914500D01*
X71676930Y-41914500D01*
X71645014Y-41921283D01*
X71494858Y-41953199D01*
X71494852Y-41953201D01*
X71324811Y-42028909D01*
X71174218Y-42138322D01*
X71174215Y-42138324D01*
X71049668Y-42276650D01*
X70956599Y-42437850D01*
X70956596Y-42437856D01*
X70899080Y-42614875D01*
X70899079Y-42614877D01*
X70879622Y-42800000D01*
X67390378Y-42800000D01*
X67370921Y-42614880D01*
X67313401Y-42437851D01*
X67220331Y-42276649D01*
X67171547Y-42222469D01*
X67095784Y-42138324D01*
X67095781Y-42138322D01*
X67095780Y-42138321D01*
X67095779Y-42138320D01*
X66945189Y-42028910D01*
X66945188Y-42028909D01*
X66775147Y-41953201D01*
X66775141Y-41953199D01*
X66631769Y-41922725D01*
X66593070Y-41914500D01*
X66406930Y-41914500D01*
X66375014Y-41921283D01*
X66224858Y-41953199D01*
X66224852Y-41953201D01*
X66054811Y-42028909D01*
X65904218Y-42138322D01*
X65904215Y-42138324D01*
X65779668Y-42276650D01*
X65686599Y-42437850D01*
X65686596Y-42437856D01*
X65629080Y-42614875D01*
X65629079Y-42614877D01*
X65609622Y-42800000D01*
X52150378Y-42800000D01*
X52130921Y-42614880D01*
X52073401Y-42437851D01*
X51980331Y-42276649D01*
X51931547Y-42222469D01*
X51855784Y-42138324D01*
X51855781Y-42138322D01*
X51855780Y-42138321D01*
X51855779Y-42138320D01*
X51705189Y-42028910D01*
X51705188Y-42028909D01*
X51535147Y-41953201D01*
X51535141Y-41953199D01*
X51391769Y-41922725D01*
X51353070Y-41914500D01*
X51166930Y-41914500D01*
X51135014Y-41921283D01*
X50984858Y-41953199D01*
X50984852Y-41953201D01*
X50814811Y-42028909D01*
X50664218Y-42138322D01*
X50664215Y-42138324D01*
X50539668Y-42276650D01*
X50446599Y-42437850D01*
X50446596Y-42437856D01*
X50389080Y-42614875D01*
X50389079Y-42614877D01*
X50369622Y-42800000D01*
X49000500Y-42800000D01*
X49000500Y-40260000D01*
X50369622Y-40260000D01*
X50389079Y-40445122D01*
X50389080Y-40445124D01*
X50446596Y-40622143D01*
X50446599Y-40622149D01*
X50539669Y-40783351D01*
X50583055Y-40831536D01*
X50664215Y-40921675D01*
X50664218Y-40921677D01*
X50664221Y-40921680D01*
X50814811Y-41031090D01*
X50984852Y-41106798D01*
X50984858Y-41106800D01*
X51166930Y-41145500D01*
X51166931Y-41145500D01*
X51353069Y-41145500D01*
X51353070Y-41145500D01*
X51535142Y-41106800D01*
X51535144Y-41106798D01*
X51535147Y-41106798D01*
X51592424Y-41081296D01*
X51705189Y-41031090D01*
X51747981Y-41000000D01*
X69444750Y-41000000D01*
X69458810Y-41106798D01*
X69463670Y-41143708D01*
X69463671Y-41143712D01*
X69519137Y-41277622D01*
X69519138Y-41277624D01*
X69519139Y-41277625D01*
X69607379Y-41392621D01*
X69616711Y-41399782D01*
X69619113Y-41401625D01*
X69660316Y-41458053D01*
X69664470Y-41527799D01*
X69630257Y-41588719D01*
X69619113Y-41598375D01*
X69607381Y-41607377D01*
X69519137Y-41722377D01*
X69463671Y-41856287D01*
X69463670Y-41856291D01*
X69444750Y-41999999D01*
X69444750Y-42000000D01*
X69463670Y-42143708D01*
X69463671Y-42143712D01*
X69519137Y-42277622D01*
X69519138Y-42277624D01*
X69519139Y-42277625D01*
X69607379Y-42392621D01*
X69722375Y-42480861D01*
X69856291Y-42536330D01*
X69983280Y-42553048D01*
X69999999Y-42555250D01*
X70000000Y-42555250D01*
X70000001Y-42555250D01*
X70014977Y-42553278D01*
X70143709Y-42536330D01*
X70277625Y-42480861D01*
X70392621Y-42392621D01*
X70480861Y-42277625D01*
X70536330Y-42143709D01*
X70555250Y-42000000D01*
X70536330Y-41856291D01*
X70480861Y-41722375D01*
X70392621Y-41607379D01*
X70380886Y-41598374D01*
X70339685Y-41541950D01*
X70335529Y-41472204D01*
X70369740Y-41411283D01*
X70380876Y-41401632D01*
X70392621Y-41392621D01*
X70480861Y-41277625D01*
X70536330Y-41143709D01*
X70555250Y-41000000D01*
X70536330Y-40856291D01*
X70480861Y-40722375D01*
X70392621Y-40607379D01*
X70277625Y-40519139D01*
X70277624Y-40519138D01*
X70277622Y-40519137D01*
X70143712Y-40463671D01*
X70143710Y-40463670D01*
X70143709Y-40463670D01*
X70043675Y-40450500D01*
X70000001Y-40444750D01*
X69999999Y-40444750D01*
X69856291Y-40463670D01*
X69856287Y-40463671D01*
X69722377Y-40519137D01*
X69607379Y-40607379D01*
X69519137Y-40722377D01*
X69463671Y-40856287D01*
X69463670Y-40856291D01*
X69447270Y-40980862D01*
X69444750Y-41000000D01*
X51747981Y-41000000D01*
X51855779Y-40921680D01*
X51980331Y-40783351D01*
X52073401Y-40622149D01*
X52130921Y-40445120D01*
X52150378Y-40260000D01*
X70879622Y-40260000D01*
X70899079Y-40445122D01*
X70899080Y-40445124D01*
X70956596Y-40622143D01*
X70956599Y-40622149D01*
X71049669Y-40783351D01*
X71093055Y-40831536D01*
X71174215Y-40921675D01*
X71174218Y-40921677D01*
X71174221Y-40921680D01*
X71324811Y-41031090D01*
X71494852Y-41106798D01*
X71494858Y-41106800D01*
X71676930Y-41145500D01*
X71676931Y-41145500D01*
X71863069Y-41145500D01*
X71863070Y-41145500D01*
X72045142Y-41106800D01*
X72045144Y-41106798D01*
X72045147Y-41106798D01*
X72060415Y-41100000D01*
X75474417Y-41100000D01*
X75494699Y-41305932D01*
X75513529Y-41368007D01*
X75554768Y-41503954D01*
X75652315Y-41686450D01*
X75652317Y-41686452D01*
X75783589Y-41846410D01*
X75866558Y-41914500D01*
X75943550Y-41977685D01*
X76126046Y-42075232D01*
X76324066Y-42135300D01*
X76324065Y-42135300D01*
X76342529Y-42137118D01*
X76530000Y-42155583D01*
X76735934Y-42135300D01*
X76933954Y-42075232D01*
X77116450Y-41977685D01*
X77276410Y-41846410D01*
X77407685Y-41686450D01*
X77505232Y-41503954D01*
X77565300Y-41305934D01*
X77585583Y-41100000D01*
X83094417Y-41100000D01*
X83114699Y-41305932D01*
X83133529Y-41368007D01*
X83174768Y-41503954D01*
X83272315Y-41686450D01*
X83272317Y-41686452D01*
X83403589Y-41846410D01*
X83486558Y-41914500D01*
X83563550Y-41977685D01*
X83746046Y-42075232D01*
X83944066Y-42135300D01*
X83944065Y-42135300D01*
X83962529Y-42137118D01*
X84150000Y-42155583D01*
X84355934Y-42135300D01*
X84553954Y-42075232D01*
X84736450Y-41977685D01*
X84896410Y-41846410D01*
X85027685Y-41686450D01*
X85125232Y-41503954D01*
X85185300Y-41305934D01*
X85205583Y-41100000D01*
X85185300Y-40894066D01*
X85125232Y-40696046D01*
X85027685Y-40513550D01*
X84898627Y-40356291D01*
X84896410Y-40353589D01*
X84782370Y-40260000D01*
X91470022Y-40260000D01*
X91489479Y-40445122D01*
X91489480Y-40445124D01*
X91546996Y-40622143D01*
X91546999Y-40622149D01*
X91640069Y-40783351D01*
X91683455Y-40831536D01*
X91764615Y-40921675D01*
X91764618Y-40921677D01*
X91764621Y-40921680D01*
X91915211Y-41031090D01*
X92085252Y-41106798D01*
X92085258Y-41106800D01*
X92267330Y-41145500D01*
X92267331Y-41145500D01*
X92453469Y-41145500D01*
X92453470Y-41145500D01*
X92635542Y-41106800D01*
X92635544Y-41106798D01*
X92635547Y-41106798D01*
X92692824Y-41081296D01*
X92805589Y-41031090D01*
X92956179Y-40921680D01*
X93080731Y-40783351D01*
X93173801Y-40622149D01*
X93231321Y-40445120D01*
X93250778Y-40260000D01*
X93231321Y-40074880D01*
X93187600Y-39940321D01*
X101449500Y-39940321D01*
X101449500Y-41039678D01*
X101464032Y-41112735D01*
X101464033Y-41112739D01*
X101464034Y-41112740D01*
X101519399Y-41195601D01*
X101520016Y-41196013D01*
X101521058Y-41197260D01*
X101528035Y-41204237D01*
X101527411Y-41204860D01*
X101564824Y-41249621D01*
X101573536Y-41318945D01*
X101554234Y-41368007D01*
X101537766Y-41392653D01*
X101537759Y-41392665D01*
X101479302Y-41533794D01*
X101479300Y-41533802D01*
X101449500Y-41683615D01*
X101449500Y-41836384D01*
X101479300Y-41986197D01*
X101479302Y-41986205D01*
X101537759Y-42127334D01*
X101537764Y-42127343D01*
X101622629Y-42254351D01*
X101622632Y-42254355D01*
X101675596Y-42307319D01*
X101709081Y-42368642D01*
X101704097Y-42438334D01*
X101675596Y-42482681D01*
X101622632Y-42535644D01*
X101622629Y-42535648D01*
X101537764Y-42662656D01*
X101537759Y-42662665D01*
X101479302Y-42803794D01*
X101479300Y-42803802D01*
X101449500Y-42953615D01*
X101449500Y-43106384D01*
X101479300Y-43256197D01*
X101479302Y-43256205D01*
X101537759Y-43397334D01*
X101537764Y-43397343D01*
X101622629Y-43524351D01*
X101622632Y-43524355D01*
X101730644Y-43632367D01*
X101730648Y-43632370D01*
X101857656Y-43717235D01*
X101857662Y-43717238D01*
X101857663Y-43717239D01*
X101998795Y-43775698D01*
X102141768Y-43804137D01*
X102148615Y-43805499D01*
X102148619Y-43805500D01*
X102148620Y-43805500D01*
X102751381Y-43805500D01*
X102751382Y-43805499D01*
X102901205Y-43775698D01*
X103042337Y-43717239D01*
X103169352Y-43632370D01*
X103277370Y-43524352D01*
X103362239Y-43397337D01*
X103420698Y-43256205D01*
X103450500Y-43106380D01*
X103450500Y-42953620D01*
X103420698Y-42803795D01*
X103419126Y-42800000D01*
X106710022Y-42800000D01*
X106729479Y-42985122D01*
X106729480Y-42985124D01*
X106786996Y-43162143D01*
X106786999Y-43162149D01*
X106880069Y-43323351D01*
X106923455Y-43371536D01*
X107004615Y-43461675D01*
X107004618Y-43461677D01*
X107004621Y-43461680D01*
X107155211Y-43571090D01*
X107325252Y-43646798D01*
X107325258Y-43646800D01*
X107507330Y-43685500D01*
X107507331Y-43685500D01*
X107693469Y-43685500D01*
X107693470Y-43685500D01*
X107875542Y-43646800D01*
X107875544Y-43646798D01*
X107875547Y-43646798D01*
X107964083Y-43607379D01*
X108045589Y-43571090D01*
X108196179Y-43461680D01*
X108201765Y-43455477D01*
X108223164Y-43431709D01*
X108320731Y-43323351D01*
X108413801Y-43162149D01*
X108471321Y-42985120D01*
X108490778Y-42800000D01*
X112119622Y-42800000D01*
X112139079Y-42985122D01*
X112139080Y-42985124D01*
X112196596Y-43162143D01*
X112196599Y-43162149D01*
X112289669Y-43323351D01*
X112333055Y-43371536D01*
X112414215Y-43461675D01*
X112414218Y-43461677D01*
X112414221Y-43461680D01*
X112564811Y-43571090D01*
X112734852Y-43646798D01*
X112734858Y-43646800D01*
X112916930Y-43685500D01*
X112916931Y-43685500D01*
X113103069Y-43685500D01*
X113103070Y-43685500D01*
X113285142Y-43646800D01*
X113285144Y-43646798D01*
X113285147Y-43646798D01*
X113373683Y-43607379D01*
X113455189Y-43571090D01*
X113605779Y-43461680D01*
X113611365Y-43455477D01*
X113632764Y-43431709D01*
X113730331Y-43323351D01*
X113823401Y-43162149D01*
X113880921Y-42985120D01*
X113900378Y-42800000D01*
X127359622Y-42800000D01*
X127379079Y-42985122D01*
X127379080Y-42985124D01*
X127436596Y-43162143D01*
X127436599Y-43162149D01*
X127529669Y-43323351D01*
X127573055Y-43371536D01*
X127654215Y-43461675D01*
X127654218Y-43461677D01*
X127654221Y-43461680D01*
X127804811Y-43571090D01*
X127974852Y-43646798D01*
X127974858Y-43646800D01*
X128156930Y-43685500D01*
X128156931Y-43685500D01*
X128343069Y-43685500D01*
X128343070Y-43685500D01*
X128525142Y-43646800D01*
X128525144Y-43646798D01*
X128525147Y-43646798D01*
X128613683Y-43607379D01*
X128695189Y-43571090D01*
X128845779Y-43461680D01*
X128851365Y-43455477D01*
X128872764Y-43431709D01*
X128970331Y-43323351D01*
X129063401Y-43162149D01*
X129120921Y-42985120D01*
X129140378Y-42800000D01*
X129120921Y-42614880D01*
X129063401Y-42437851D01*
X128970331Y-42276649D01*
X128921547Y-42222469D01*
X128845784Y-42138324D01*
X128845781Y-42138322D01*
X128845780Y-42138321D01*
X128845779Y-42138320D01*
X128695189Y-42028910D01*
X128695188Y-42028909D01*
X128525147Y-41953201D01*
X128525141Y-41953199D01*
X128381769Y-41922725D01*
X128343070Y-41914500D01*
X128156930Y-41914500D01*
X128125014Y-41921283D01*
X127974858Y-41953199D01*
X127974852Y-41953201D01*
X127804811Y-42028909D01*
X127654218Y-42138322D01*
X127654215Y-42138324D01*
X127529668Y-42276650D01*
X127436599Y-42437850D01*
X127436596Y-42437856D01*
X127379080Y-42614875D01*
X127379079Y-42614877D01*
X127359622Y-42800000D01*
X113900378Y-42800000D01*
X113880921Y-42614880D01*
X113823401Y-42437851D01*
X113730331Y-42276649D01*
X113681547Y-42222469D01*
X113605784Y-42138324D01*
X113605781Y-42138322D01*
X113605780Y-42138321D01*
X113605779Y-42138320D01*
X113455189Y-42028910D01*
X113455188Y-42028909D01*
X113285147Y-41953201D01*
X113285141Y-41953199D01*
X113141769Y-41922725D01*
X113103070Y-41914500D01*
X112916930Y-41914500D01*
X112885014Y-41921283D01*
X112734858Y-41953199D01*
X112734852Y-41953201D01*
X112564811Y-42028909D01*
X112414218Y-42138322D01*
X112414215Y-42138324D01*
X112289668Y-42276650D01*
X112196599Y-42437850D01*
X112196596Y-42437856D01*
X112139080Y-42614875D01*
X112139079Y-42614877D01*
X112119622Y-42800000D01*
X108490778Y-42800000D01*
X108471321Y-42614880D01*
X108413801Y-42437851D01*
X108320731Y-42276649D01*
X108271947Y-42222469D01*
X108196184Y-42138324D01*
X108196181Y-42138322D01*
X108196180Y-42138321D01*
X108196179Y-42138320D01*
X108045589Y-42028910D01*
X108045588Y-42028909D01*
X107875547Y-41953201D01*
X107875541Y-41953199D01*
X107732169Y-41922725D01*
X107693470Y-41914500D01*
X107507330Y-41914500D01*
X107475414Y-41921283D01*
X107325258Y-41953199D01*
X107325252Y-41953201D01*
X107155211Y-42028909D01*
X107004618Y-42138322D01*
X107004615Y-42138324D01*
X106880068Y-42276650D01*
X106786999Y-42437850D01*
X106786996Y-42437856D01*
X106729480Y-42614875D01*
X106729479Y-42614877D01*
X106710022Y-42800000D01*
X103419126Y-42800000D01*
X103362239Y-42662663D01*
X103362238Y-42662662D01*
X103362235Y-42662656D01*
X103277370Y-42535648D01*
X103277367Y-42535644D01*
X103224404Y-42482681D01*
X103190919Y-42421358D01*
X103195903Y-42351666D01*
X103224404Y-42307319D01*
X103277367Y-42254355D01*
X103277370Y-42254352D01*
X103362239Y-42127337D01*
X103420698Y-41986205D01*
X103450500Y-41836380D01*
X103450500Y-41683620D01*
X103420698Y-41533795D01*
X103362239Y-41392663D01*
X103345765Y-41368009D01*
X103324888Y-41301332D01*
X103343372Y-41233952D01*
X103372007Y-41204279D01*
X103371965Y-41204237D01*
X103374331Y-41201870D01*
X103379983Y-41196013D01*
X103380601Y-41195601D01*
X103435966Y-41112740D01*
X103450500Y-41039674D01*
X103450500Y-40260000D01*
X112119622Y-40260000D01*
X112139079Y-40445122D01*
X112139080Y-40445124D01*
X112196596Y-40622143D01*
X112196599Y-40622149D01*
X112289669Y-40783351D01*
X112333055Y-40831536D01*
X112414215Y-40921675D01*
X112414218Y-40921677D01*
X112414221Y-40921680D01*
X112564811Y-41031090D01*
X112734852Y-41106798D01*
X112734858Y-41106800D01*
X112916930Y-41145500D01*
X112916931Y-41145500D01*
X113103069Y-41145500D01*
X113103070Y-41145500D01*
X113285142Y-41106800D01*
X113285144Y-41106798D01*
X113285147Y-41106798D01*
X113342424Y-41081296D01*
X113455189Y-41031090D01*
X113605779Y-40921680D01*
X113730331Y-40783351D01*
X113823401Y-40622149D01*
X113880921Y-40445120D01*
X113900378Y-40260000D01*
X113880921Y-40074880D01*
X113856591Y-40000000D01*
X122444750Y-40000000D01*
X122461176Y-40124769D01*
X122463670Y-40143708D01*
X122463671Y-40143712D01*
X122519137Y-40277622D01*
X122519138Y-40277624D01*
X122519139Y-40277625D01*
X122607379Y-40392621D01*
X122722375Y-40480861D01*
X122856291Y-40536330D01*
X122983280Y-40553048D01*
X122999999Y-40555250D01*
X123000000Y-40555250D01*
X123000001Y-40555250D01*
X123014977Y-40553278D01*
X123143709Y-40536330D01*
X123277625Y-40480861D01*
X123277629Y-40480858D01*
X123283801Y-40476123D01*
X123348970Y-40450930D01*
X123359285Y-40450500D01*
X126762035Y-40450500D01*
X126829074Y-40470185D01*
X126849716Y-40486819D01*
X126927396Y-40564499D01*
X126960881Y-40625822D01*
X126962654Y-40635991D01*
X126963670Y-40643710D01*
X127019137Y-40777622D01*
X127019138Y-40777624D01*
X127019139Y-40777625D01*
X127107379Y-40892621D01*
X127222375Y-40980861D01*
X127356291Y-41036330D01*
X127483280Y-41053048D01*
X127499999Y-41055250D01*
X127500000Y-41055250D01*
X127500001Y-41055250D01*
X127514977Y-41053278D01*
X127643709Y-41036330D01*
X127777625Y-40980861D01*
X127892621Y-40892621D01*
X127980861Y-40777625D01*
X128036330Y-40643709D01*
X128055250Y-40500000D01*
X128036330Y-40356291D01*
X127980861Y-40222375D01*
X127892621Y-40107379D01*
X127777625Y-40019139D01*
X127777624Y-40019138D01*
X127777622Y-40019137D01*
X127643710Y-39963670D01*
X127640002Y-39963182D01*
X127635990Y-39962653D01*
X127572096Y-39934385D01*
X127564499Y-39927396D01*
X127276616Y-39639513D01*
X127276614Y-39639511D01*
X127205277Y-39598324D01*
X127173888Y-39580201D01*
X127161780Y-39576957D01*
X127149673Y-39573713D01*
X127149670Y-39573712D01*
X127111478Y-39563478D01*
X127059309Y-39549500D01*
X127059308Y-39549500D01*
X123359285Y-39549500D01*
X123292246Y-39529815D01*
X123283801Y-39523877D01*
X123277629Y-39519141D01*
X123277623Y-39519138D01*
X123143712Y-39463671D01*
X123143710Y-39463670D01*
X123143709Y-39463670D01*
X123071854Y-39454210D01*
X123000001Y-39444750D01*
X122999999Y-39444750D01*
X122856291Y-39463670D01*
X122856287Y-39463671D01*
X122722377Y-39519137D01*
X122607379Y-39607379D01*
X122519137Y-39722377D01*
X122463671Y-39856287D01*
X122463670Y-39856291D01*
X122453389Y-39934385D01*
X122444750Y-40000000D01*
X113856591Y-40000000D01*
X113823401Y-39897851D01*
X113730331Y-39736649D01*
X113681547Y-39682469D01*
X113605784Y-39598324D01*
X113605781Y-39598322D01*
X113605780Y-39598321D01*
X113605779Y-39598320D01*
X113455189Y-39488910D01*
X113455188Y-39488909D01*
X113285147Y-39413201D01*
X113285141Y-39413199D01*
X113141769Y-39382725D01*
X113103070Y-39374500D01*
X112916930Y-39374500D01*
X112885014Y-39381283D01*
X112734858Y-39413199D01*
X112734852Y-39413201D01*
X112564811Y-39488909D01*
X112414218Y-39598322D01*
X112414215Y-39598324D01*
X112289668Y-39736650D01*
X112196599Y-39897850D01*
X112196596Y-39897856D01*
X112139080Y-40074875D01*
X112139079Y-40074877D01*
X112119622Y-40260000D01*
X103450500Y-40260000D01*
X103450500Y-39940326D01*
X103450500Y-39940323D01*
X103450499Y-39940321D01*
X103435967Y-39867264D01*
X103435966Y-39867260D01*
X103428634Y-39856287D01*
X103380601Y-39784399D01*
X103325235Y-39747405D01*
X103297739Y-39729033D01*
X103297735Y-39729032D01*
X103224677Y-39714500D01*
X103224674Y-39714500D01*
X101675326Y-39714500D01*
X101675323Y-39714500D01*
X101602264Y-39729032D01*
X101602260Y-39729033D01*
X101519399Y-39784399D01*
X101464033Y-39867260D01*
X101464032Y-39867264D01*
X101449500Y-39940321D01*
X93187600Y-39940321D01*
X93173801Y-39897851D01*
X93080731Y-39736649D01*
X93031947Y-39682469D01*
X92956184Y-39598324D01*
X92956181Y-39598322D01*
X92956180Y-39598321D01*
X92956179Y-39598320D01*
X92805589Y-39488910D01*
X92805588Y-39488909D01*
X92635547Y-39413201D01*
X92635541Y-39413199D01*
X92492169Y-39382725D01*
X92453470Y-39374500D01*
X92267330Y-39374500D01*
X92235414Y-39381283D01*
X92085258Y-39413199D01*
X92085252Y-39413201D01*
X91915211Y-39488909D01*
X91764618Y-39598322D01*
X91764615Y-39598324D01*
X91640068Y-39736650D01*
X91546999Y-39897850D01*
X91546996Y-39897856D01*
X91489480Y-40074875D01*
X91489479Y-40074877D01*
X91470022Y-40260000D01*
X84782370Y-40260000D01*
X84778677Y-40256969D01*
X84736450Y-40222315D01*
X84553954Y-40124768D01*
X84355934Y-40064700D01*
X84355932Y-40064699D01*
X84355934Y-40064699D01*
X84150000Y-40044417D01*
X83944067Y-40064699D01*
X83746043Y-40124769D01*
X83635898Y-40183643D01*
X83563550Y-40222315D01*
X83563548Y-40222316D01*
X83563547Y-40222317D01*
X83403589Y-40353589D01*
X83283435Y-40500000D01*
X83272315Y-40513550D01*
X83260139Y-40536330D01*
X83174769Y-40696043D01*
X83114699Y-40894067D01*
X83094417Y-41100000D01*
X77585583Y-41100000D01*
X77565300Y-40894066D01*
X77505232Y-40696046D01*
X77407685Y-40513550D01*
X77278627Y-40356291D01*
X77276410Y-40353589D01*
X77158677Y-40256969D01*
X77116450Y-40222315D01*
X76933954Y-40124768D01*
X76735934Y-40064700D01*
X76735932Y-40064699D01*
X76735934Y-40064699D01*
X76530000Y-40044417D01*
X76324067Y-40064699D01*
X76126043Y-40124769D01*
X76015898Y-40183643D01*
X75943550Y-40222315D01*
X75943548Y-40222316D01*
X75943547Y-40222317D01*
X75783589Y-40353589D01*
X75663435Y-40500000D01*
X75652315Y-40513550D01*
X75640139Y-40536330D01*
X75554769Y-40696043D01*
X75494699Y-40894067D01*
X75474417Y-41100000D01*
X72060415Y-41100000D01*
X72102424Y-41081296D01*
X72215189Y-41031090D01*
X72365779Y-40921680D01*
X72490331Y-40783351D01*
X72583401Y-40622149D01*
X72640921Y-40445120D01*
X72660378Y-40260000D01*
X72640921Y-40074880D01*
X72583401Y-39897851D01*
X72490331Y-39736649D01*
X72441547Y-39682469D01*
X72365784Y-39598324D01*
X72365781Y-39598322D01*
X72365780Y-39598321D01*
X72365779Y-39598320D01*
X72215189Y-39488910D01*
X72215188Y-39488909D01*
X72045147Y-39413201D01*
X72045141Y-39413199D01*
X71901769Y-39382725D01*
X71863070Y-39374500D01*
X71676930Y-39374500D01*
X71645014Y-39381283D01*
X71494858Y-39413199D01*
X71494852Y-39413201D01*
X71324811Y-39488909D01*
X71174218Y-39598322D01*
X71174215Y-39598324D01*
X71049668Y-39736650D01*
X70956599Y-39897850D01*
X70956596Y-39897856D01*
X70899080Y-40074875D01*
X70899079Y-40074877D01*
X70879622Y-40260000D01*
X52150378Y-40260000D01*
X52130921Y-40074880D01*
X52073401Y-39897851D01*
X51980331Y-39736649D01*
X51931547Y-39682469D01*
X51855784Y-39598324D01*
X51855781Y-39598322D01*
X51855780Y-39598321D01*
X51855779Y-39598320D01*
X51705189Y-39488910D01*
X51705188Y-39488909D01*
X51535147Y-39413201D01*
X51535141Y-39413199D01*
X51391769Y-39382725D01*
X51353070Y-39374500D01*
X51166930Y-39374500D01*
X51135014Y-39381283D01*
X50984858Y-39413199D01*
X50984852Y-39413201D01*
X50814811Y-39488909D01*
X50664218Y-39598322D01*
X50664215Y-39598324D01*
X50539668Y-39736650D01*
X50446599Y-39897850D01*
X50446596Y-39897856D01*
X50389080Y-40074875D01*
X50389079Y-40074877D01*
X50369622Y-40260000D01*
X49000500Y-40260000D01*
X49000500Y-37720000D01*
X50369622Y-37720000D01*
X50389079Y-37905122D01*
X50389080Y-37905124D01*
X50446596Y-38082143D01*
X50446599Y-38082149D01*
X50539669Y-38243351D01*
X50583055Y-38291536D01*
X50664215Y-38381675D01*
X50664218Y-38381677D01*
X50664221Y-38381680D01*
X50814811Y-38491090D01*
X50984852Y-38566798D01*
X50984858Y-38566800D01*
X51166930Y-38605500D01*
X51166931Y-38605500D01*
X51353069Y-38605500D01*
X51353070Y-38605500D01*
X51535142Y-38566800D01*
X51535144Y-38566798D01*
X51535147Y-38566798D01*
X51592424Y-38541296D01*
X51705189Y-38491090D01*
X51855779Y-38381680D01*
X51980331Y-38243351D01*
X52073401Y-38082149D01*
X52130921Y-37905120D01*
X52150378Y-37720000D01*
X65609622Y-37720000D01*
X65629079Y-37905122D01*
X65629080Y-37905124D01*
X65686596Y-38082143D01*
X65686599Y-38082149D01*
X65779669Y-38243351D01*
X65823055Y-38291536D01*
X65904215Y-38381675D01*
X65904218Y-38381677D01*
X65904221Y-38381680D01*
X66054811Y-38491090D01*
X66224852Y-38566798D01*
X66224858Y-38566800D01*
X66406930Y-38605500D01*
X66406931Y-38605500D01*
X66593069Y-38605500D01*
X66593070Y-38605500D01*
X66775142Y-38566800D01*
X66775144Y-38566798D01*
X66775147Y-38566798D01*
X66832424Y-38541296D01*
X66945189Y-38491090D01*
X67095779Y-38381680D01*
X67220331Y-38243351D01*
X67313401Y-38082149D01*
X67370921Y-37905120D01*
X67390378Y-37720000D01*
X70879622Y-37720000D01*
X70899079Y-37905122D01*
X70899080Y-37905124D01*
X70956596Y-38082143D01*
X70956599Y-38082149D01*
X71049669Y-38243351D01*
X71093055Y-38291536D01*
X71174215Y-38381675D01*
X71174218Y-38381677D01*
X71174221Y-38381680D01*
X71324811Y-38491090D01*
X71494852Y-38566798D01*
X71494858Y-38566800D01*
X71676930Y-38605500D01*
X71676931Y-38605500D01*
X71863069Y-38605500D01*
X71863070Y-38605500D01*
X72045142Y-38566800D01*
X72045144Y-38566798D01*
X72045147Y-38566798D01*
X72060415Y-38560000D01*
X75474417Y-38560000D01*
X75494699Y-38765932D01*
X75494700Y-38765934D01*
X75554768Y-38963954D01*
X75652315Y-39146450D01*
X75652317Y-39146452D01*
X75783589Y-39306410D01*
X75866558Y-39374500D01*
X75943550Y-39437685D01*
X76126046Y-39535232D01*
X76324066Y-39595300D01*
X76324065Y-39595300D01*
X76342529Y-39597118D01*
X76530000Y-39615583D01*
X76735934Y-39595300D01*
X76933954Y-39535232D01*
X77116450Y-39437685D01*
X77276410Y-39306410D01*
X77407685Y-39146450D01*
X77505232Y-38963954D01*
X77565300Y-38765934D01*
X77585583Y-38560000D01*
X77565300Y-38354066D01*
X77505232Y-38156046D01*
X77407685Y-37973550D01*
X77351526Y-37905120D01*
X77276410Y-37813589D01*
X77129008Y-37692621D01*
X77116450Y-37682315D01*
X76946554Y-37591502D01*
X76933956Y-37584769D01*
X76933955Y-37584768D01*
X76933954Y-37584768D01*
X76735934Y-37524700D01*
X76735932Y-37524699D01*
X76735934Y-37524699D01*
X76530000Y-37504417D01*
X76324067Y-37524699D01*
X76126043Y-37584769D01*
X76109307Y-37593715D01*
X75943550Y-37682315D01*
X75943548Y-37682316D01*
X75943547Y-37682317D01*
X75783589Y-37813589D01*
X75652317Y-37973547D01*
X75652315Y-37973550D01*
X75645484Y-37986330D01*
X75554769Y-38156043D01*
X75494699Y-38354067D01*
X75474417Y-38560000D01*
X72060415Y-38560000D01*
X72102424Y-38541296D01*
X72215189Y-38491090D01*
X72365779Y-38381680D01*
X72490331Y-38243351D01*
X72583401Y-38082149D01*
X72640921Y-37905120D01*
X72660378Y-37720000D01*
X72640921Y-37534880D01*
X72596409Y-37397885D01*
X72583403Y-37357856D01*
X72583400Y-37357850D01*
X72490331Y-37196649D01*
X72441547Y-37142469D01*
X72365784Y-37058324D01*
X72365781Y-37058322D01*
X72365780Y-37058321D01*
X72365779Y-37058320D01*
X72215189Y-36948910D01*
X72215188Y-36948909D01*
X72045147Y-36873201D01*
X72045141Y-36873199D01*
X71901769Y-36842725D01*
X71863070Y-36834500D01*
X71676930Y-36834500D01*
X71645014Y-36841283D01*
X71494858Y-36873199D01*
X71494852Y-36873201D01*
X71324811Y-36948909D01*
X71174218Y-37058322D01*
X71174215Y-37058324D01*
X71049668Y-37196650D01*
X70956599Y-37357850D01*
X70956596Y-37357856D01*
X70899080Y-37534875D01*
X70899079Y-37534877D01*
X70879622Y-37720000D01*
X67390378Y-37720000D01*
X67370921Y-37534880D01*
X67326409Y-37397885D01*
X67313403Y-37357856D01*
X67313400Y-37357850D01*
X67220331Y-37196649D01*
X67171547Y-37142469D01*
X67095784Y-37058324D01*
X67095781Y-37058322D01*
X67095780Y-37058321D01*
X67095779Y-37058320D01*
X66945189Y-36948910D01*
X66945188Y-36948909D01*
X66775147Y-36873201D01*
X66775141Y-36873199D01*
X66631769Y-36842725D01*
X66593070Y-36834500D01*
X66406930Y-36834500D01*
X66375014Y-36841283D01*
X66224858Y-36873199D01*
X66224852Y-36873201D01*
X66054811Y-36948909D01*
X65904218Y-37058322D01*
X65904215Y-37058324D01*
X65779668Y-37196650D01*
X65686599Y-37357850D01*
X65686596Y-37357856D01*
X65629080Y-37534875D01*
X65629079Y-37534877D01*
X65609622Y-37720000D01*
X52150378Y-37720000D01*
X52130921Y-37534880D01*
X52086409Y-37397885D01*
X52073403Y-37357856D01*
X52073400Y-37357850D01*
X51980331Y-37196649D01*
X51931547Y-37142469D01*
X51855784Y-37058324D01*
X51855781Y-37058322D01*
X51855780Y-37058321D01*
X51855779Y-37058320D01*
X51705189Y-36948910D01*
X51705188Y-36948909D01*
X51535147Y-36873201D01*
X51535141Y-36873199D01*
X51391769Y-36842725D01*
X51353070Y-36834500D01*
X51166930Y-36834500D01*
X51135014Y-36841283D01*
X50984858Y-36873199D01*
X50984852Y-36873201D01*
X50814811Y-36948909D01*
X50664218Y-37058322D01*
X50664215Y-37058324D01*
X50539668Y-37196650D01*
X50446599Y-37357850D01*
X50446596Y-37357856D01*
X50389080Y-37534875D01*
X50389079Y-37534877D01*
X50369622Y-37720000D01*
X49000500Y-37720000D01*
X49000500Y-35999999D01*
X68444750Y-35999999D01*
X68444750Y-36000000D01*
X68463670Y-36143708D01*
X68463671Y-36143712D01*
X68519137Y-36277622D01*
X68519138Y-36277624D01*
X68519139Y-36277625D01*
X68607379Y-36392621D01*
X68722375Y-36480861D01*
X68856291Y-36536330D01*
X68983280Y-36553048D01*
X68999999Y-36555250D01*
X69000000Y-36555250D01*
X69000001Y-36555250D01*
X69014977Y-36553278D01*
X69143709Y-36536330D01*
X69277625Y-36480861D01*
X69392621Y-36392621D01*
X69480861Y-36277625D01*
X69536330Y-36143709D01*
X69555250Y-36000000D01*
X69555250Y-35999999D01*
X73444750Y-35999999D01*
X73444750Y-36000000D01*
X73463670Y-36143708D01*
X73463671Y-36143712D01*
X73519137Y-36277622D01*
X73519138Y-36277624D01*
X73519139Y-36277625D01*
X73607379Y-36392621D01*
X73722375Y-36480861D01*
X73856291Y-36536330D01*
X73983280Y-36553048D01*
X73999999Y-36555250D01*
X74000000Y-36555250D01*
X74000001Y-36555250D01*
X74014977Y-36553278D01*
X74143709Y-36536330D01*
X74277625Y-36480861D01*
X74392621Y-36392621D01*
X74480861Y-36277625D01*
X74536330Y-36143709D01*
X74552617Y-36020000D01*
X75474417Y-36020000D01*
X75494699Y-36225932D01*
X75506734Y-36265606D01*
X75554768Y-36423954D01*
X75652315Y-36606450D01*
X75686969Y-36648677D01*
X75783589Y-36766410D01*
X75866558Y-36834500D01*
X75943550Y-36897685D01*
X76126046Y-36995232D01*
X76324066Y-37055300D01*
X76324065Y-37055300D01*
X76342529Y-37057118D01*
X76530000Y-37075583D01*
X76735934Y-37055300D01*
X76933954Y-36995232D01*
X77116450Y-36897685D01*
X77257058Y-36782291D01*
X77321367Y-36754979D01*
X77390235Y-36766770D01*
X77441795Y-36813922D01*
X77459678Y-36881465D01*
X77458661Y-36894330D01*
X77444750Y-36999997D01*
X77444750Y-37000000D01*
X77463670Y-37143708D01*
X77463671Y-37143712D01*
X77519137Y-37277622D01*
X77519138Y-37277624D01*
X77519139Y-37277625D01*
X77607379Y-37392621D01*
X77722375Y-37480861D01*
X77856291Y-37536330D01*
X77983280Y-37553048D01*
X77999999Y-37555250D01*
X78000000Y-37555250D01*
X78000001Y-37555250D01*
X78014977Y-37553278D01*
X78143709Y-37536330D01*
X78277625Y-37480861D01*
X78392621Y-37392621D01*
X78480861Y-37277625D01*
X78536330Y-37143709D01*
X78555250Y-37000000D01*
X78536330Y-36856291D01*
X78494124Y-36754395D01*
X78480862Y-36722377D01*
X78480861Y-36722376D01*
X78480861Y-36722375D01*
X78392621Y-36607379D01*
X78277625Y-36519139D01*
X78277624Y-36519138D01*
X78277622Y-36519137D01*
X78143712Y-36463671D01*
X78143710Y-36463670D01*
X78143709Y-36463670D01*
X78071854Y-36454210D01*
X78000001Y-36444750D01*
X77999999Y-36444750D01*
X77856291Y-36463670D01*
X77856287Y-36463671D01*
X77722376Y-36519138D01*
X77722374Y-36519139D01*
X77707893Y-36530251D01*
X77642723Y-36555444D01*
X77574278Y-36541405D01*
X77524290Y-36492590D01*
X77508628Y-36424498D01*
X77513744Y-36395891D01*
X77565300Y-36225934D01*
X77585583Y-36020000D01*
X77565300Y-35814066D01*
X77505232Y-35616046D01*
X77407685Y-35433550D01*
X77321639Y-35328702D01*
X77276410Y-35273589D01*
X77116452Y-35142317D01*
X77116453Y-35142317D01*
X77116450Y-35142315D01*
X76933954Y-35044768D01*
X76735934Y-34984700D01*
X76735932Y-34984699D01*
X76735934Y-34984699D01*
X76530000Y-34964417D01*
X76324067Y-34984699D01*
X76126043Y-35044769D01*
X76023076Y-35099807D01*
X75943550Y-35142315D01*
X75943548Y-35142316D01*
X75943547Y-35142317D01*
X75783589Y-35273589D01*
X75652317Y-35433547D01*
X75652315Y-35433550D01*
X75636215Y-35463671D01*
X75554769Y-35616043D01*
X75494699Y-35814067D01*
X75474417Y-36020000D01*
X74552617Y-36020000D01*
X74555250Y-36000000D01*
X74536330Y-35856291D01*
X74480861Y-35722375D01*
X74392621Y-35607379D01*
X74277625Y-35519139D01*
X74277624Y-35519138D01*
X74277622Y-35519137D01*
X74143712Y-35463671D01*
X74143710Y-35463670D01*
X74143709Y-35463670D01*
X74067373Y-35453620D01*
X74000001Y-35444750D01*
X73999999Y-35444750D01*
X73856291Y-35463670D01*
X73856287Y-35463671D01*
X73722377Y-35519137D01*
X73607379Y-35607379D01*
X73519137Y-35722377D01*
X73463671Y-35856287D01*
X73463670Y-35856291D01*
X73444750Y-35999999D01*
X69555250Y-35999999D01*
X69536330Y-35856291D01*
X69480861Y-35722375D01*
X69392621Y-35607379D01*
X69277625Y-35519139D01*
X69277624Y-35519138D01*
X69277622Y-35519137D01*
X69143712Y-35463671D01*
X69143710Y-35463670D01*
X69143709Y-35463670D01*
X69067373Y-35453620D01*
X69000001Y-35444750D01*
X68999999Y-35444750D01*
X68856291Y-35463670D01*
X68856287Y-35463671D01*
X68722377Y-35519137D01*
X68607379Y-35607379D01*
X68519137Y-35722377D01*
X68463671Y-35856287D01*
X68463670Y-35856291D01*
X68444750Y-35999999D01*
X49000500Y-35999999D01*
X49000500Y-32624000D01*
X49020185Y-32556961D01*
X49072989Y-32511206D01*
X49124500Y-32500000D01*
X75721663Y-32500000D01*
X75788702Y-32519685D01*
G37*
%TD.AperFunction*%
%TA.AperFunction,Conductor*%
G36*
X116463670Y-32643708D02*
G01*
X116463671Y-32643712D01*
X116519137Y-32777622D01*
X116519138Y-32777624D01*
X116519139Y-32777625D01*
X116607379Y-32892621D01*
X116722375Y-32980861D01*
X116856291Y-33036330D01*
X116983280Y-33053048D01*
X116999999Y-33055250D01*
X117000000Y-33055250D01*
X117000001Y-33055250D01*
X117014977Y-33053278D01*
X117143709Y-33036330D01*
X117277625Y-32980861D01*
X117392621Y-32892621D01*
X117480861Y-32777625D01*
X117536330Y-32643709D01*
X117555250Y-32500000D01*
X118440109Y-32500000D01*
X118454848Y-32611948D01*
X118454849Y-32611952D01*
X118510315Y-32745862D01*
X118510316Y-32745864D01*
X118510317Y-32745865D01*
X118598557Y-32860861D01*
X118713553Y-32949101D01*
X118847469Y-33004570D01*
X118974458Y-33021288D01*
X118991177Y-33023490D01*
X118991178Y-33023490D01*
X118991179Y-33023490D01*
X119006155Y-33021518D01*
X119134887Y-33004570D01*
X119268803Y-32949101D01*
X119383799Y-32860861D01*
X119472039Y-32745865D01*
X119527508Y-32611949D01*
X119542247Y-32500000D01*
X120759694Y-32500000D01*
X120871694Y-32585941D01*
X121005610Y-32641410D01*
X121132599Y-32658128D01*
X121149318Y-32660330D01*
X121149319Y-32660330D01*
X121149320Y-32660330D01*
X121164296Y-32658358D01*
X121293028Y-32641410D01*
X121426944Y-32585941D01*
X121538944Y-32500000D01*
X123904318Y-32500000D01*
X124113181Y-32708863D01*
X124146666Y-32770186D01*
X124149500Y-32796544D01*
X124149500Y-36003455D01*
X124129815Y-36070494D01*
X124113181Y-36091136D01*
X124029558Y-36174759D01*
X123968235Y-36208244D01*
X123898543Y-36203260D01*
X123842610Y-36161388D01*
X123827320Y-36134539D01*
X123780861Y-36022375D01*
X123692621Y-35907379D01*
X123577625Y-35819139D01*
X123577624Y-35819138D01*
X123577622Y-35819137D01*
X123443712Y-35763671D01*
X123443710Y-35763670D01*
X123443709Y-35763670D01*
X123352638Y-35751680D01*
X123300001Y-35744750D01*
X123291873Y-35744750D01*
X123291873Y-35741243D01*
X123238613Y-35732772D01*
X123204122Y-35708440D01*
X122865213Y-35369531D01*
X122865208Y-35369527D01*
X122785290Y-35323387D01*
X122785289Y-35323386D01*
X122785288Y-35323386D01*
X122696144Y-35299500D01*
X122696143Y-35299500D01*
X116103118Y-35299500D01*
X116036079Y-35279815D01*
X115990324Y-35227011D01*
X115980380Y-35157853D01*
X116009405Y-35094297D01*
X116055666Y-35060939D01*
X116137378Y-35027093D01*
X116141422Y-35025418D01*
X116256418Y-34937178D01*
X116344658Y-34822182D01*
X116400127Y-34688266D01*
X116419047Y-34544557D01*
X116400127Y-34400848D01*
X116344658Y-34266932D01*
X116256418Y-34151936D01*
X116141422Y-34063696D01*
X116141421Y-34063695D01*
X116141419Y-34063694D01*
X116007509Y-34008228D01*
X116007507Y-34008227D01*
X116007506Y-34008227D01*
X115916435Y-33996237D01*
X115863798Y-33989307D01*
X115855670Y-33989307D01*
X115855670Y-33985800D01*
X115802410Y-33977329D01*
X115767919Y-33952997D01*
X115586819Y-33771897D01*
X115553334Y-33710574D01*
X115550500Y-33684216D01*
X115550500Y-32500000D01*
X116444750Y-32500000D01*
X116463670Y-32643708D01*
G37*
%TD.AperFunction*%
%TA.AperFunction,Conductor*%
G36*
X114849500Y-33926905D02*
G01*
X114871062Y-34007376D01*
X114873385Y-34016047D01*
X114873387Y-34016051D01*
X114919527Y-34095968D01*
X114919531Y-34095973D01*
X115272237Y-34448679D01*
X115305722Y-34510002D01*
X115306864Y-34536430D01*
X115308547Y-34536430D01*
X115308547Y-34544556D01*
X115308547Y-34544557D01*
X115316504Y-34604999D01*
X115327467Y-34688265D01*
X115327468Y-34688269D01*
X115382934Y-34822179D01*
X115382935Y-34822181D01*
X115382936Y-34822182D01*
X115471176Y-34937178D01*
X115586172Y-35025418D01*
X115586173Y-35025418D01*
X115586174Y-35025419D01*
X115671928Y-35060939D01*
X115726332Y-35104779D01*
X115748397Y-35171073D01*
X115731118Y-35238773D01*
X115679981Y-35286384D01*
X115624476Y-35299500D01*
X114927305Y-35299500D01*
X114860266Y-35279815D01*
X114839624Y-35263181D01*
X112076443Y-32500000D01*
X114849500Y-32500000D01*
X114849500Y-33926905D01*
G37*
%TD.AperFunction*%
%TD*%
%TA.AperFunction,Conductor*%
%TO.N,GND*%
G36*
X108822119Y-29470185D02*
G01*
X108867874Y-29522989D01*
X108877818Y-29592147D01*
X108854034Y-29649227D01*
X108745327Y-29793178D01*
X108654422Y-29975739D01*
X108654417Y-29975752D01*
X108598602Y-30171917D01*
X108579785Y-30374999D01*
X108579785Y-30375000D01*
X108598602Y-30578082D01*
X108654417Y-30774247D01*
X108654422Y-30774260D01*
X108745327Y-30956821D01*
X108868237Y-31119581D01*
X109018958Y-31256980D01*
X109018960Y-31256982D01*
X109118141Y-31318392D01*
X109192363Y-31364348D01*
X109382544Y-31438024D01*
X109583024Y-31475500D01*
X109583026Y-31475500D01*
X109786974Y-31475500D01*
X109786976Y-31475500D01*
X109987456Y-31438024D01*
X110177637Y-31364348D01*
X110351041Y-31256981D01*
X110501764Y-31119579D01*
X110624673Y-30956821D01*
X110715582Y-30774250D01*
X110771397Y-30578083D01*
X110790215Y-30375000D01*
X110777503Y-30237818D01*
X110771397Y-30171917D01*
X110749378Y-30094530D01*
X110715582Y-29975750D01*
X110703761Y-29952011D01*
X110670489Y-29885191D01*
X110624673Y-29793179D01*
X110582332Y-29737110D01*
X110515966Y-29649227D01*
X110491274Y-29583865D01*
X110505839Y-29515531D01*
X110555037Y-29465918D01*
X110614920Y-29450500D01*
X111000500Y-29450500D01*
X111067539Y-29470185D01*
X111113294Y-29522989D01*
X111124500Y-29574500D01*
X111124500Y-31249678D01*
X111139032Y-31322735D01*
X111139033Y-31322739D01*
X111139034Y-31322740D01*
X111194399Y-31405601D01*
X111277260Y-31460966D01*
X111277264Y-31460967D01*
X111350321Y-31475499D01*
X111350324Y-31475500D01*
X111350326Y-31475500D01*
X113099676Y-31475500D01*
X113099677Y-31475499D01*
X113172740Y-31460966D01*
X113255601Y-31405601D01*
X113310966Y-31322740D01*
X113325500Y-31249674D01*
X113325500Y-30849500D01*
X113345185Y-30782461D01*
X113397989Y-30736706D01*
X113449500Y-30725500D01*
X114078456Y-30725500D01*
X114145495Y-30745185D01*
X114166137Y-30761819D01*
X114213296Y-30808978D01*
X114246781Y-30870301D01*
X114249077Y-30898806D01*
X114249500Y-30898806D01*
X114249500Y-31697870D01*
X114249501Y-31697876D01*
X114255908Y-31757483D01*
X114306202Y-31892328D01*
X114306206Y-31892335D01*
X114392452Y-32007544D01*
X114392455Y-32007547D01*
X114507664Y-32093793D01*
X114507671Y-32093797D01*
X114513964Y-32096144D01*
X114642517Y-32144091D01*
X114702127Y-32150500D01*
X114725497Y-32150499D01*
X114792536Y-32170181D01*
X114838292Y-32222983D01*
X114849500Y-32274499D01*
X114849500Y-32500000D01*
X112076443Y-32500000D01*
X111995973Y-32419530D01*
X111995972Y-32419529D01*
X111995969Y-32419527D01*
X111916051Y-32373387D01*
X111916050Y-32373386D01*
X111916049Y-32373386D01*
X111826905Y-32349500D01*
X111826904Y-32349500D01*
X105624000Y-32349500D01*
X105556961Y-32329815D01*
X105511206Y-32277011D01*
X105500000Y-32225500D01*
X105500000Y-30231968D01*
X105519685Y-30164929D01*
X105536319Y-30144287D01*
X105749281Y-29931325D01*
X105983108Y-29697497D01*
X106044429Y-29664014D01*
X106114120Y-29668998D01*
X106170054Y-29710869D01*
X106194471Y-29776334D01*
X106181788Y-29840451D01*
X106114421Y-29975743D01*
X106114417Y-29975752D01*
X106058602Y-30171917D01*
X106039785Y-30374999D01*
X106039785Y-30375000D01*
X106058602Y-30578082D01*
X106114417Y-30774247D01*
X106114422Y-30774260D01*
X106205327Y-30956821D01*
X106328237Y-31119581D01*
X106478958Y-31256980D01*
X106478960Y-31256982D01*
X106578141Y-31318392D01*
X106652363Y-31364348D01*
X106842544Y-31438024D01*
X107043024Y-31475500D01*
X107043026Y-31475500D01*
X107246974Y-31475500D01*
X107246976Y-31475500D01*
X107447456Y-31438024D01*
X107637637Y-31364348D01*
X107811041Y-31256981D01*
X107961764Y-31119579D01*
X108084673Y-30956821D01*
X108175582Y-30774250D01*
X108231397Y-30578083D01*
X108250215Y-30375000D01*
X108237503Y-30237818D01*
X108231397Y-30171917D01*
X108209378Y-30094530D01*
X108175582Y-29975750D01*
X108170257Y-29965057D01*
X108157995Y-29896274D01*
X108184867Y-29831778D01*
X108193556Y-29822123D01*
X108528864Y-29486816D01*
X108590185Y-29453334D01*
X108616543Y-29450500D01*
X108755080Y-29450500D01*
X108822119Y-29470185D01*
G37*
%TD.AperFunction*%
%TA.AperFunction,Conductor*%
G36*
X116265824Y-31898892D02*
G01*
X116277408Y-31912261D01*
X116289257Y-31928089D01*
X116367454Y-32032546D01*
X116428286Y-32078085D01*
X116466144Y-32106426D01*
X116508014Y-32162360D01*
X116512998Y-32232052D01*
X116506394Y-32253143D01*
X116463670Y-32356291D01*
X116444750Y-32499999D01*
X116444750Y-32500000D01*
X115550500Y-32500000D01*
X115550500Y-32274499D01*
X115570185Y-32207460D01*
X115622989Y-32161705D01*
X115674500Y-32150499D01*
X115697871Y-32150499D01*
X115697872Y-32150499D01*
X115757483Y-32144091D01*
X115892331Y-32093796D01*
X116007546Y-32007546D01*
X116078876Y-31912260D01*
X116134809Y-31870391D01*
X116204501Y-31865407D01*
X116265824Y-31898892D01*
G37*
%TD.AperFunction*%
%TA.AperFunction,Conductor*%
G36*
X118287682Y-31928089D02*
G01*
X118299261Y-31941452D01*
X118367454Y-32032546D01*
X118449369Y-32093867D01*
X118491239Y-32149800D01*
X118496223Y-32219492D01*
X118489619Y-32240584D01*
X118454848Y-32324531D01*
X118435928Y-32468239D01*
X118435928Y-32468240D01*
X118440109Y-32500000D01*
X117555250Y-32500000D01*
X117555250Y-32499999D01*
X117543322Y-32409402D01*
X117546487Y-32361121D01*
X117547781Y-32356291D01*
X117550500Y-32346144D01*
X117550500Y-32299499D01*
X117570185Y-32232460D01*
X117622989Y-32186705D01*
X117674500Y-32175499D01*
X117722871Y-32175499D01*
X117722872Y-32175499D01*
X117782483Y-32169091D01*
X117917331Y-32118796D01*
X118032546Y-32032546D01*
X118100734Y-31941457D01*
X118156667Y-31899588D01*
X118226359Y-31894604D01*
X118287682Y-31928089D01*
G37*
%TD.AperFunction*%
%TA.AperFunction,Conductor*%
G36*
X120287682Y-31928089D02*
G01*
X120299261Y-31941452D01*
X120367454Y-32032546D01*
X120413643Y-32067123D01*
X120482664Y-32118793D01*
X120482669Y-32118796D01*
X120531848Y-32137138D01*
X120587781Y-32179008D01*
X120611454Y-32237130D01*
X120612989Y-32248790D01*
X120668456Y-32382702D01*
X120668457Y-32382704D01*
X120668458Y-32382705D01*
X120756698Y-32497701D01*
X120759694Y-32500000D01*
X119542247Y-32500000D01*
X119546428Y-32468240D01*
X119536627Y-32393799D01*
X119539791Y-32345524D01*
X119550500Y-32305562D01*
X119550500Y-32299499D01*
X119570185Y-32232460D01*
X119622989Y-32186705D01*
X119674500Y-32175499D01*
X119722871Y-32175499D01*
X119722872Y-32175499D01*
X119782483Y-32169091D01*
X119917331Y-32118796D01*
X120032546Y-32032546D01*
X120100734Y-31941457D01*
X120156667Y-31899588D01*
X120226359Y-31894604D01*
X120287682Y-31928089D01*
G37*
%TD.AperFunction*%
%TA.AperFunction,Conductor*%
G36*
X122309539Y-31898892D02*
G01*
X122321123Y-31912261D01*
X122392455Y-32007547D01*
X122507664Y-32093793D01*
X122507671Y-32093797D01*
X122642517Y-32144091D01*
X122642516Y-32144091D01*
X122649444Y-32144835D01*
X122702127Y-32150500D01*
X123503455Y-32150499D01*
X123570494Y-32170183D01*
X123591136Y-32186818D01*
X123904318Y-32500000D01*
X121538944Y-32500000D01*
X121541940Y-32497701D01*
X121630180Y-32382705D01*
X121685649Y-32248789D01*
X121685649Y-32248788D01*
X121687531Y-32244245D01*
X121731371Y-32189841D01*
X121775525Y-32173388D01*
X121774932Y-32170876D01*
X121782479Y-32169092D01*
X121782481Y-32169091D01*
X121782483Y-32169091D01*
X121917331Y-32118796D01*
X122032546Y-32032546D01*
X122118796Y-31917331D01*
X122118796Y-31917329D01*
X122122590Y-31912262D01*
X122178524Y-31870391D01*
X122248216Y-31865407D01*
X122309539Y-31898892D01*
G37*
%TD.AperFunction*%
%TA.AperFunction,Conductor*%
G36*
X129505394Y-26250972D02*
G01*
X129522185Y-26252441D01*
X129662755Y-26264739D01*
X129684035Y-26268491D01*
X129731480Y-26281204D01*
X129831369Y-26307969D01*
X129851681Y-26315362D01*
X129989915Y-26379822D01*
X130008633Y-26390629D01*
X130133582Y-26478119D01*
X130150140Y-26492013D01*
X130257986Y-26599859D01*
X130271880Y-26616417D01*
X130359370Y-26741366D01*
X130370177Y-26760084D01*
X130434637Y-26898318D01*
X130442030Y-26918630D01*
X130481507Y-27065961D01*
X130485260Y-27087246D01*
X130499028Y-27244605D01*
X130499500Y-27255413D01*
X130499500Y-32500000D01*
X125550500Y-32500000D01*
X125550500Y-32274499D01*
X125570185Y-32207460D01*
X125622989Y-32161705D01*
X125674500Y-32150499D01*
X125697871Y-32150499D01*
X125697872Y-32150499D01*
X125757483Y-32144091D01*
X125892331Y-32093796D01*
X126007546Y-32007546D01*
X126093796Y-31892331D01*
X126144091Y-31757483D01*
X126150500Y-31697873D01*
X126150499Y-30902128D01*
X126144091Y-30842517D01*
X126116576Y-30768746D01*
X126093797Y-30707671D01*
X126093793Y-30707664D01*
X126007547Y-30592455D01*
X126007544Y-30592452D01*
X125892335Y-30506206D01*
X125892328Y-30506202D01*
X125757482Y-30455908D01*
X125757483Y-30455908D01*
X125697883Y-30449501D01*
X125697881Y-30449500D01*
X125697873Y-30449500D01*
X125697864Y-30449500D01*
X124702129Y-30449500D01*
X124702123Y-30449501D01*
X124642516Y-30455908D01*
X124507671Y-30506202D01*
X124507664Y-30506206D01*
X124392455Y-30592452D01*
X124392452Y-30592455D01*
X124300888Y-30714769D01*
X124298618Y-30713070D01*
X124259420Y-30752264D01*
X124191146Y-30767111D01*
X124125683Y-30742690D01*
X124100554Y-30713689D01*
X124099112Y-30714769D01*
X124007547Y-30592455D01*
X124007544Y-30592452D01*
X123892335Y-30506206D01*
X123892328Y-30506202D01*
X123757482Y-30455908D01*
X123757483Y-30455908D01*
X123697883Y-30449501D01*
X123697881Y-30449500D01*
X123697873Y-30449500D01*
X123697865Y-30449500D01*
X122845542Y-30449500D01*
X122778503Y-30429815D01*
X122732748Y-30377011D01*
X122722804Y-30307853D01*
X122751829Y-30244297D01*
X122757848Y-30237832D01*
X122808864Y-30186817D01*
X122870187Y-30153333D01*
X122896544Y-30150499D01*
X123697871Y-30150499D01*
X123697872Y-30150499D01*
X123757483Y-30144091D01*
X123892331Y-30093796D01*
X124007546Y-30007546D01*
X124087681Y-29900500D01*
X124099112Y-29885231D01*
X124101382Y-29886930D01*
X124140565Y-29847743D01*
X124208837Y-29832886D01*
X124274303Y-29857298D01*
X124299443Y-29886311D01*
X124300888Y-29885231D01*
X124392452Y-30007544D01*
X124392455Y-30007547D01*
X124507664Y-30093793D01*
X124507671Y-30093797D01*
X124642517Y-30144091D01*
X124642516Y-30144091D01*
X124649444Y-30144835D01*
X124702127Y-30150500D01*
X125697872Y-30150499D01*
X125757483Y-30144091D01*
X125892331Y-30093796D01*
X126007546Y-30007546D01*
X126093796Y-29892331D01*
X126144091Y-29757483D01*
X126150500Y-29697873D01*
X126150500Y-29600321D01*
X127099500Y-29600321D01*
X127099500Y-31349678D01*
X127114032Y-31422735D01*
X127114033Y-31422739D01*
X127114034Y-31422740D01*
X127169399Y-31505601D01*
X127252260Y-31560966D01*
X127252264Y-31560967D01*
X127325321Y-31575499D01*
X127325324Y-31575500D01*
X127325326Y-31575500D01*
X129074676Y-31575500D01*
X129074677Y-31575499D01*
X129147740Y-31560966D01*
X129230601Y-31505601D01*
X129285966Y-31422740D01*
X129300500Y-31349674D01*
X129300500Y-29600326D01*
X129300500Y-29600323D01*
X129300499Y-29600321D01*
X129285967Y-29527264D01*
X129285966Y-29527260D01*
X129268616Y-29501294D01*
X129230601Y-29444399D01*
X129147740Y-29389034D01*
X129147739Y-29389033D01*
X129147735Y-29389032D01*
X129074677Y-29374500D01*
X129074674Y-29374500D01*
X127325326Y-29374500D01*
X127325323Y-29374500D01*
X127252264Y-29389032D01*
X127252260Y-29389033D01*
X127169399Y-29444399D01*
X127114033Y-29527260D01*
X127114032Y-29527264D01*
X127099500Y-29600321D01*
X126150500Y-29600321D01*
X126150499Y-29396542D01*
X126170183Y-29329504D01*
X126186813Y-29308867D01*
X126404123Y-29091557D01*
X126465444Y-29058074D01*
X126491871Y-29057144D01*
X126491871Y-29055250D01*
X126500000Y-29055250D01*
X126643709Y-29036330D01*
X126777625Y-28980861D01*
X126892621Y-28892621D01*
X126980861Y-28777625D01*
X127036330Y-28643709D01*
X127044304Y-28583135D01*
X127072570Y-28519241D01*
X127130894Y-28480769D01*
X127200759Y-28479937D01*
X127259983Y-28517009D01*
X127266197Y-28524595D01*
X127351062Y-28636973D01*
X127383236Y-28679579D01*
X127490787Y-28777625D01*
X127533958Y-28816980D01*
X127533960Y-28816982D01*
X127626856Y-28874500D01*
X127707363Y-28924348D01*
X127897544Y-28998024D01*
X128098024Y-29035500D01*
X128098026Y-29035500D01*
X128301974Y-29035500D01*
X128301976Y-29035500D01*
X128502456Y-28998024D01*
X128692637Y-28924348D01*
X128866041Y-28816981D01*
X129016764Y-28679579D01*
X129139673Y-28516821D01*
X129230582Y-28334250D01*
X129286397Y-28138083D01*
X129305215Y-27935000D01*
X129286397Y-27731917D01*
X129230582Y-27535750D01*
X129226719Y-27527993D01*
X129173249Y-27420609D01*
X129139673Y-27353179D01*
X129016764Y-27190421D01*
X129016762Y-27190418D01*
X128866041Y-27053019D01*
X128866039Y-27053017D01*
X128692642Y-26945655D01*
X128692635Y-26945651D01*
X128570453Y-26898318D01*
X128502456Y-26871976D01*
X128301976Y-26834500D01*
X128098024Y-26834500D01*
X127897544Y-26871976D01*
X127897541Y-26871976D01*
X127897541Y-26871977D01*
X127707364Y-26945651D01*
X127707357Y-26945655D01*
X127533960Y-27053017D01*
X127533958Y-27053019D01*
X127383237Y-27190418D01*
X127260327Y-27353178D01*
X127169422Y-27535739D01*
X127169417Y-27535752D01*
X127113602Y-27731917D01*
X127094785Y-27934999D01*
X127094785Y-27935001D01*
X127101348Y-28005832D01*
X127087933Y-28074402D01*
X127039575Y-28124834D01*
X126971629Y-28141116D01*
X126905667Y-28118078D01*
X126897177Y-28110876D01*
X126892622Y-28107381D01*
X126892621Y-28107379D01*
X126777625Y-28019139D01*
X126777624Y-28019138D01*
X126777622Y-28019137D01*
X126643712Y-27963671D01*
X126643710Y-27963670D01*
X126643709Y-27963670D01*
X126571854Y-27954210D01*
X126500001Y-27944750D01*
X126499999Y-27944750D01*
X126356291Y-27963670D01*
X126356287Y-27963671D01*
X126222377Y-28019137D01*
X126107379Y-28107379D01*
X126019137Y-28222377D01*
X125963671Y-28356287D01*
X125963670Y-28356291D01*
X125961849Y-28370123D01*
X125933581Y-28434019D01*
X125875255Y-28472489D01*
X125805391Y-28473319D01*
X125795577Y-28470117D01*
X125757482Y-28455908D01*
X125757483Y-28455908D01*
X125697883Y-28449501D01*
X125697881Y-28449500D01*
X125697873Y-28449500D01*
X125697865Y-28449500D01*
X125122023Y-28449500D01*
X125054984Y-28429815D01*
X125009229Y-28377011D01*
X124999285Y-28307853D01*
X125007461Y-28278049D01*
X125011330Y-28268709D01*
X125030250Y-28125000D01*
X125011330Y-27981291D01*
X124960028Y-27857434D01*
X124955862Y-27847377D01*
X124955861Y-27847376D01*
X124955861Y-27847375D01*
X124867621Y-27732379D01*
X124752625Y-27644139D01*
X124752624Y-27644138D01*
X124752622Y-27644137D01*
X124618712Y-27588671D01*
X124618710Y-27588670D01*
X124618709Y-27588670D01*
X124599487Y-27586139D01*
X124582813Y-27583944D01*
X124518917Y-27555677D01*
X124480447Y-27497352D01*
X124475000Y-27461005D01*
X124475000Y-27450000D01*
X123261500Y-27450000D01*
X123194461Y-27430315D01*
X123148706Y-27377511D01*
X123137500Y-27326000D01*
X123137500Y-27074000D01*
X123157185Y-27006961D01*
X123209989Y-26961206D01*
X123261500Y-26950000D01*
X124474999Y-26950000D01*
X124474999Y-26675028D01*
X124474998Y-26675013D01*
X124464505Y-26572302D01*
X124411885Y-26413504D01*
X124409483Y-26343676D01*
X124445215Y-26283634D01*
X124507735Y-26252441D01*
X124529591Y-26250500D01*
X129434108Y-26250500D01*
X129494587Y-26250500D01*
X129505394Y-26250972D01*
G37*
%TD.AperFunction*%
%TA.AperFunction,Conductor*%
G36*
X121393039Y-29032185D02*
G01*
X121438794Y-29084989D01*
X121450000Y-29136500D01*
X121450000Y-29388500D01*
X121430315Y-29455539D01*
X121377511Y-29501294D01*
X121326000Y-29512500D01*
X116443000Y-29512500D01*
X116441819Y-29513681D01*
X116380496Y-29547166D01*
X116354138Y-29550000D01*
X114000001Y-29550000D01*
X114000001Y-29699986D01*
X114010494Y-29802697D01*
X114029978Y-29861496D01*
X114032380Y-29931325D01*
X113996648Y-29991366D01*
X113934127Y-30022559D01*
X113912272Y-30024500D01*
X113449500Y-30024500D01*
X113382461Y-30004815D01*
X113336706Y-29952011D01*
X113325500Y-29900500D01*
X113325500Y-29574500D01*
X113345185Y-29507461D01*
X113397989Y-29461706D01*
X113449500Y-29450500D01*
X113526903Y-29450500D01*
X113526905Y-29450500D01*
X113616049Y-29426614D01*
X113695973Y-29380470D01*
X113990124Y-29086319D01*
X114051447Y-29052834D01*
X114077805Y-29050000D01*
X115932000Y-29050000D01*
X115933181Y-29048819D01*
X115994504Y-29015334D01*
X116020862Y-29012500D01*
X121326000Y-29012500D01*
X121393039Y-29032185D01*
G37*
%TD.AperFunction*%
%TA.AperFunction,Conductor*%
G36*
X106993378Y-26270185D02*
G01*
X107039133Y-26322989D01*
X107049077Y-26392147D01*
X107020052Y-26455703D01*
X106961274Y-26493477D01*
X106937146Y-26498028D01*
X106909684Y-26500430D01*
X106909673Y-26500432D01*
X106681516Y-26561566D01*
X106681507Y-26561570D01*
X106467422Y-26661399D01*
X106467420Y-26661400D01*
X106273926Y-26796886D01*
X106273920Y-26796891D01*
X106106891Y-26963920D01*
X106106886Y-26963926D01*
X105971400Y-27157420D01*
X105971399Y-27157422D01*
X105871570Y-27371507D01*
X105871567Y-27371513D01*
X105814364Y-27584999D01*
X105814364Y-27585000D01*
X106711988Y-27585000D01*
X106679075Y-27642007D01*
X106645000Y-27769174D01*
X106645000Y-27900826D01*
X106679075Y-28027993D01*
X106711988Y-28085000D01*
X105814364Y-28085000D01*
X105871567Y-28298486D01*
X105871570Y-28298492D01*
X105971399Y-28512578D01*
X106088194Y-28679376D01*
X106110521Y-28745582D01*
X106093511Y-28813350D01*
X106042563Y-28861163D01*
X105986619Y-28874500D01*
X105913781Y-28874500D01*
X105825994Y-28898021D01*
X105825995Y-28898022D01*
X105824636Y-28898386D01*
X105824631Y-28898388D01*
X105744719Y-28944526D01*
X105744709Y-28944534D01*
X105711680Y-28977563D01*
X105650357Y-29011048D01*
X105580665Y-29006062D01*
X105524732Y-28964190D01*
X105500316Y-28898725D01*
X105500000Y-28889881D01*
X105500000Y-26374500D01*
X105519685Y-26307461D01*
X105572489Y-26261706D01*
X105624000Y-26250500D01*
X106926339Y-26250500D01*
X106993378Y-26270185D01*
G37*
%TD.AperFunction*%
%TD*%
M02*
