%TF.GenerationSoftware,KiCad,Pcbnew,8.0.6*%
%TF.CreationDate,2025-03-23T20:06:33-04:00*%
%TF.ProjectId,co2_7seg,636f325f-3773-4656-972e-6b696361645f,rev?*%
%TF.SameCoordinates,Original*%
%TF.FileFunction,Legend,Bot*%
%TF.FilePolarity,Positive*%
%FSLAX46Y46*%
G04 Gerber Fmt 4.6, Leading zero omitted, Abs format (unit mm)*
G04 Created by KiCad (PCBNEW 8.0.6) date 2025-03-23 20:06:33*
%MOMM*%
%LPD*%
G01*
G04 APERTURE LIST*
G04 Aperture macros list*
%AMRoundRect*
0 Rectangle with rounded corners*
0 $1 Rounding radius*
0 $2 $3 $4 $5 $6 $7 $8 $9 X,Y pos of 4 corners*
0 Add a 4 corners polygon primitive as box body*
4,1,4,$2,$3,$4,$5,$6,$7,$8,$9,$2,$3,0*
0 Add four circle primitives for the rounded corners*
1,1,$1+$1,$2,$3*
1,1,$1+$1,$4,$5*
1,1,$1+$1,$6,$7*
1,1,$1+$1,$8,$9*
0 Add four rect primitives between the rounded corners*
20,1,$1+$1,$2,$3,$4,$5,0*
20,1,$1+$1,$4,$5,$6,$7,0*
20,1,$1+$1,$6,$7,$8,$9,0*
20,1,$1+$1,$8,$9,$2,$3,0*%
G04 Aperture macros list end*
%ADD10C,0.200000*%
%ADD11C,0.150000*%
%ADD12C,0.120000*%
%ADD13C,0.127000*%
%ADD14C,1.500000*%
%ADD15R,1.800000X1.100000*%
%ADD16C,1.270000*%
%ADD17O,1.700000X1.700000*%
%ADD18R,1.700000X1.700000*%
%ADD19C,3.200000*%
%ADD20O,1.600000X1.600000*%
%ADD21R,1.600000X1.600000*%
%ADD22RoundRect,0.102000X-0.950000X-1.200000X0.950000X-1.200000X0.950000X1.200000X-0.950000X1.200000X0*%
%ADD23RoundRect,0.100000X-0.225000X-0.100000X0.225000X-0.100000X0.225000X0.100000X-0.225000X0.100000X0*%
%ADD24RoundRect,0.150000X-0.512500X-0.150000X0.512500X-0.150000X0.512500X0.150000X-0.512500X0.150000X0*%
%ADD25R,1.600000X0.550000*%
%ADD26R,0.550000X1.600000*%
%ADD27RoundRect,0.250000X-0.350000X-0.450000X0.350000X-0.450000X0.350000X0.450000X-0.350000X0.450000X0*%
%ADD28RoundRect,0.250000X-0.450000X0.350000X-0.450000X-0.350000X0.450000X-0.350000X0.450000X0.350000X0*%
%ADD29RoundRect,0.250000X0.450000X-0.350000X0.450000X0.350000X-0.450000X0.350000X-0.450000X-0.350000X0*%
%ADD30RoundRect,0.250000X0.350000X0.450000X-0.350000X0.450000X-0.350000X-0.450000X0.350000X-0.450000X0*%
%ADD31O,1.500000X1.050000*%
%ADD32R,1.500000X1.050000*%
%ADD33R,1.000000X1.500000*%
%ADD34O,4.004000X2.104000*%
%ADD35O,2.104000X4.004000*%
%ADD36O,2.404000X4.604000*%
%ADD37RoundRect,0.250000X0.475000X-0.337500X0.475000X0.337500X-0.475000X0.337500X-0.475000X-0.337500X0*%
%ADD38RoundRect,0.250000X-0.475000X0.337500X-0.475000X-0.337500X0.475000X-0.337500X0.475000X0.337500X0*%
%ADD39RoundRect,0.250000X0.337500X0.475000X-0.337500X0.475000X-0.337500X-0.475000X0.337500X-0.475000X0*%
%ADD40RoundRect,0.250000X-0.337500X-0.475000X0.337500X-0.475000X0.337500X0.475000X-0.337500X0.475000X0*%
G04 APERTURE END LIST*
D10*
G36*
X96380614Y-57397024D02*
G01*
X96405283Y-57421692D01*
X96440736Y-57492599D01*
X96482707Y-57660480D01*
X96482707Y-57873956D01*
X96440736Y-58041837D01*
X96405283Y-58112743D01*
X96380614Y-58137413D01*
X96321005Y-58167219D01*
X96272981Y-58167219D01*
X96213371Y-58137414D01*
X96188704Y-58112746D01*
X96153249Y-58041837D01*
X96111279Y-57873956D01*
X96111279Y-57660481D01*
X96153249Y-57492599D01*
X96188703Y-57421692D01*
X96213371Y-57397023D01*
X96272981Y-57367219D01*
X96321005Y-57367219D01*
X96380614Y-57397024D01*
G37*
G36*
X100475852Y-57397024D02*
G01*
X100500521Y-57421692D01*
X100535974Y-57492599D01*
X100577945Y-57660480D01*
X100577945Y-57873956D01*
X100535974Y-58041837D01*
X100500521Y-58112743D01*
X100475852Y-58137413D01*
X100416243Y-58167219D01*
X100368219Y-58167219D01*
X100308609Y-58137414D01*
X100283942Y-58112746D01*
X100248487Y-58041837D01*
X100206517Y-57873956D01*
X100206517Y-57660481D01*
X100248487Y-57492599D01*
X100283941Y-57421692D01*
X100308609Y-57397023D01*
X100368219Y-57367219D01*
X100416243Y-57367219D01*
X100475852Y-57397024D01*
G37*
G36*
X104029992Y-58811663D02*
G01*
X94847787Y-58811663D01*
X94847787Y-57838647D01*
X94958898Y-57838647D01*
X94958898Y-58076742D01*
X94960819Y-58096251D01*
X94962194Y-58099571D01*
X94962449Y-58103155D01*
X94969455Y-58121463D01*
X95017074Y-58216701D01*
X95022357Y-58225093D01*
X95023369Y-58227537D01*
X95025625Y-58230286D01*
X95027517Y-58233291D01*
X95029511Y-58235020D01*
X95035806Y-58242690D01*
X95083424Y-58290310D01*
X95091092Y-58296603D01*
X95092824Y-58298600D01*
X95095832Y-58300493D01*
X95098578Y-58302747D01*
X95101018Y-58303757D01*
X95109415Y-58309043D01*
X95204652Y-58356662D01*
X95222961Y-58363668D01*
X95226544Y-58363922D01*
X95229865Y-58365298D01*
X95249374Y-58367219D01*
X95535088Y-58367219D01*
X95554597Y-58365298D01*
X95557917Y-58363922D01*
X95561501Y-58363668D01*
X95579809Y-58356662D01*
X95675047Y-58309043D01*
X95683442Y-58303758D01*
X95685884Y-58302747D01*
X95688631Y-58300491D01*
X95691637Y-58298600D01*
X95693367Y-58296605D01*
X95701037Y-58290310D01*
X95748656Y-58242690D01*
X95761093Y-58227537D01*
X95776024Y-58191488D01*
X95776023Y-58152470D01*
X95761092Y-58116422D01*
X95733501Y-58088832D01*
X95697453Y-58073901D01*
X95658435Y-58073902D01*
X95622387Y-58088833D01*
X95607233Y-58101270D01*
X95571090Y-58137413D01*
X95511481Y-58167219D01*
X95272981Y-58167219D01*
X95213371Y-58137414D01*
X95188704Y-58112746D01*
X95158898Y-58053134D01*
X95158898Y-57862254D01*
X95188703Y-57802644D01*
X95213371Y-57777975D01*
X95272981Y-57748171D01*
X95392231Y-57748171D01*
X95402548Y-57747155D01*
X95405173Y-57747330D01*
X95406980Y-57746718D01*
X95411740Y-57746250D01*
X95426743Y-57740035D01*
X95442135Y-57734830D01*
X95444674Y-57732607D01*
X95447788Y-57731318D01*
X95459265Y-57719840D01*
X95471499Y-57709136D01*
X95472994Y-57706111D01*
X95475378Y-57703728D01*
X95481592Y-57688726D01*
X95488795Y-57674161D01*
X95489019Y-57670795D01*
X95490310Y-57667680D01*
X95490310Y-57651431D01*
X95490527Y-57648171D01*
X95911279Y-57648171D01*
X95911279Y-57886266D01*
X95911614Y-57889668D01*
X95911397Y-57891127D01*
X95912476Y-57898424D01*
X95913200Y-57905775D01*
X95913764Y-57907138D01*
X95914265Y-57910520D01*
X95961884Y-58100995D01*
X95962397Y-58102432D01*
X95962449Y-58103155D01*
X95965557Y-58111279D01*
X95968479Y-58119456D01*
X95968909Y-58120036D01*
X95969455Y-58121463D01*
X96017074Y-58216701D01*
X96022357Y-58225093D01*
X96023369Y-58227537D01*
X96025625Y-58230286D01*
X96027517Y-58233291D01*
X96029511Y-58235020D01*
X96035806Y-58242690D01*
X96083424Y-58290310D01*
X96091092Y-58296603D01*
X96092824Y-58298600D01*
X96095832Y-58300493D01*
X96098578Y-58302747D01*
X96101018Y-58303757D01*
X96109415Y-58309043D01*
X96204652Y-58356662D01*
X96222961Y-58363668D01*
X96226544Y-58363922D01*
X96229865Y-58365298D01*
X96249374Y-58367219D01*
X96344612Y-58367219D01*
X96364121Y-58365298D01*
X96367441Y-58363922D01*
X96371025Y-58363668D01*
X96389333Y-58356662D01*
X96484571Y-58309043D01*
X96492966Y-58303758D01*
X96495408Y-58302747D01*
X96498155Y-58300491D01*
X96501161Y-58298600D01*
X96502891Y-58296605D01*
X96510561Y-58290310D01*
X96558180Y-58242690D01*
X96564472Y-58235023D01*
X96566469Y-58233292D01*
X96568362Y-58230284D01*
X96570617Y-58227537D01*
X96571628Y-58225095D01*
X96576912Y-58216701D01*
X96624531Y-58121464D01*
X96625077Y-58120035D01*
X96625507Y-58119456D01*
X96628428Y-58111279D01*
X96631537Y-58103155D01*
X96631588Y-58102434D01*
X96632102Y-58100996D01*
X96679721Y-57910520D01*
X96680221Y-57907138D01*
X96680786Y-57905775D01*
X96681509Y-57898424D01*
X96682589Y-57891127D01*
X96682371Y-57889668D01*
X96682707Y-57886266D01*
X96682707Y-57866757D01*
X96913200Y-57866757D01*
X96913200Y-57905775D01*
X96928132Y-57941823D01*
X96955722Y-57969413D01*
X96991770Y-57984345D01*
X97011279Y-57986266D01*
X97773183Y-57986266D01*
X97792692Y-57984345D01*
X97828740Y-57969413D01*
X97856330Y-57941823D01*
X97871262Y-57905775D01*
X97871262Y-57866757D01*
X97859618Y-57838647D01*
X98101755Y-57838647D01*
X98101755Y-58076742D01*
X98103676Y-58096251D01*
X98105051Y-58099571D01*
X98105306Y-58103155D01*
X98112312Y-58121463D01*
X98159931Y-58216701D01*
X98165214Y-58225093D01*
X98166226Y-58227537D01*
X98168482Y-58230286D01*
X98170374Y-58233291D01*
X98172368Y-58235020D01*
X98178663Y-58242690D01*
X98226281Y-58290310D01*
X98233949Y-58296603D01*
X98235681Y-58298600D01*
X98238689Y-58300493D01*
X98241435Y-58302747D01*
X98243875Y-58303757D01*
X98252272Y-58309043D01*
X98347509Y-58356662D01*
X98365818Y-58363668D01*
X98369401Y-58363922D01*
X98372722Y-58365298D01*
X98392231Y-58367219D01*
X98630326Y-58367219D01*
X98649835Y-58365298D01*
X98653155Y-58363922D01*
X98656739Y-58363668D01*
X98675047Y-58356662D01*
X98770285Y-58309043D01*
X98778680Y-58303758D01*
X98781122Y-58302747D01*
X98783869Y-58300491D01*
X98786875Y-58298600D01*
X98788605Y-58296605D01*
X98796275Y-58290310D01*
X98843894Y-58242690D01*
X98856331Y-58227537D01*
X98871262Y-58191488D01*
X98871261Y-58152470D01*
X98856330Y-58116422D01*
X98828739Y-58088832D01*
X98792691Y-58073901D01*
X98753673Y-58073902D01*
X98717625Y-58088833D01*
X98702471Y-58101270D01*
X98666328Y-58137413D01*
X98606719Y-58167219D01*
X98415838Y-58167219D01*
X98356228Y-58137414D01*
X98331561Y-58112746D01*
X98301755Y-58053134D01*
X98301755Y-57862254D01*
X98331560Y-57802644D01*
X98356228Y-57777975D01*
X98415838Y-57748171D01*
X98606719Y-57748171D01*
X98666328Y-57777976D01*
X98702472Y-57814119D01*
X98717625Y-57826556D01*
X98722279Y-57828483D01*
X98726175Y-57831671D01*
X98740168Y-57835893D01*
X98753674Y-57841487D01*
X98758708Y-57841487D01*
X98763530Y-57842942D01*
X98778081Y-57841487D01*
X98792692Y-57841487D01*
X98797341Y-57839561D01*
X98802354Y-57839060D01*
X98815237Y-57832148D01*
X98828740Y-57826556D01*
X98832300Y-57822995D01*
X98836738Y-57820615D01*
X98845993Y-57809302D01*
X98856330Y-57798966D01*
X98858257Y-57794313D01*
X98861445Y-57790417D01*
X98865667Y-57776422D01*
X98871261Y-57762918D01*
X98871261Y-57757884D01*
X98872716Y-57753062D01*
X98872687Y-57733459D01*
X98845111Y-57457695D01*
X99054136Y-57457695D01*
X99054136Y-57552933D01*
X99055108Y-57562806D01*
X99054921Y-57565440D01*
X99055708Y-57568903D01*
X99056057Y-57572442D01*
X99057068Y-57574884D01*
X99059268Y-57584556D01*
X99106887Y-57727412D01*
X99114878Y-57745313D01*
X99117233Y-57748028D01*
X99118608Y-57751347D01*
X99131044Y-57766501D01*
X99531761Y-58167219D01*
X99154136Y-58167219D01*
X99134627Y-58169140D01*
X99098579Y-58184072D01*
X99070989Y-58211662D01*
X99056057Y-58247710D01*
X99056057Y-58286728D01*
X99070989Y-58322776D01*
X99098579Y-58350366D01*
X99134627Y-58365298D01*
X99154136Y-58367219D01*
X99773183Y-58367219D01*
X99792692Y-58365298D01*
X99828740Y-58350366D01*
X99856330Y-58322776D01*
X99871262Y-58286728D01*
X99871262Y-58247710D01*
X99856330Y-58211662D01*
X99843894Y-58196508D01*
X99295558Y-57648171D01*
X100006517Y-57648171D01*
X100006517Y-57886266D01*
X100006852Y-57889668D01*
X100006635Y-57891127D01*
X100007714Y-57898424D01*
X100008438Y-57905775D01*
X100009002Y-57907138D01*
X100009503Y-57910520D01*
X100057122Y-58100995D01*
X100057635Y-58102432D01*
X100057687Y-58103155D01*
X100060795Y-58111279D01*
X100063717Y-58119456D01*
X100064147Y-58120036D01*
X100064693Y-58121463D01*
X100112312Y-58216701D01*
X100117595Y-58225093D01*
X100118607Y-58227537D01*
X100120863Y-58230286D01*
X100122755Y-58233291D01*
X100124749Y-58235020D01*
X100131044Y-58242690D01*
X100178662Y-58290310D01*
X100186330Y-58296603D01*
X100188062Y-58298600D01*
X100191070Y-58300493D01*
X100193816Y-58302747D01*
X100196256Y-58303757D01*
X100204653Y-58309043D01*
X100299890Y-58356662D01*
X100318199Y-58363668D01*
X100321782Y-58363922D01*
X100325103Y-58365298D01*
X100344612Y-58367219D01*
X100439850Y-58367219D01*
X100459359Y-58365298D01*
X100462679Y-58363922D01*
X100466263Y-58363668D01*
X100484571Y-58356662D01*
X100579809Y-58309043D01*
X100588204Y-58303758D01*
X100590646Y-58302747D01*
X100593393Y-58300491D01*
X100596399Y-58298600D01*
X100598129Y-58296605D01*
X100605799Y-58290310D01*
X100653418Y-58242690D01*
X100659710Y-58235023D01*
X100661707Y-58233292D01*
X100663600Y-58230284D01*
X100665855Y-58227537D01*
X100666866Y-58225095D01*
X100672150Y-58216701D01*
X100719769Y-58121464D01*
X100720315Y-58120035D01*
X100720745Y-58119456D01*
X100723666Y-58111279D01*
X100726775Y-58103155D01*
X100726826Y-58102434D01*
X100727340Y-58100996D01*
X100774959Y-57910520D01*
X100775459Y-57907138D01*
X100776024Y-57905775D01*
X100776747Y-57898424D01*
X100777827Y-57891127D01*
X100777609Y-57889668D01*
X100777945Y-57886266D01*
X100777945Y-57648171D01*
X100777609Y-57644768D01*
X100777827Y-57643310D01*
X100776747Y-57636012D01*
X100776024Y-57628662D01*
X100775459Y-57627298D01*
X100774959Y-57623917D01*
X100733403Y-57457695D01*
X100958898Y-57457695D01*
X100958898Y-57552933D01*
X100959870Y-57562806D01*
X100959683Y-57565440D01*
X100960470Y-57568903D01*
X100960819Y-57572442D01*
X100961830Y-57574884D01*
X100964030Y-57584556D01*
X101011649Y-57727412D01*
X101019640Y-57745313D01*
X101021995Y-57748028D01*
X101023370Y-57751347D01*
X101035806Y-57766501D01*
X101436523Y-58167219D01*
X101058898Y-58167219D01*
X101039389Y-58169140D01*
X101003341Y-58184072D01*
X100975751Y-58211662D01*
X100960819Y-58247710D01*
X100960819Y-58286728D01*
X100975751Y-58322776D01*
X101003341Y-58350366D01*
X101039389Y-58365298D01*
X101058898Y-58367219D01*
X101677945Y-58367219D01*
X101697454Y-58365298D01*
X101733502Y-58350366D01*
X101761092Y-58322776D01*
X101776024Y-58286728D01*
X101776024Y-58261777D01*
X102673332Y-58261777D01*
X102678850Y-58300403D01*
X102698729Y-58333977D01*
X102729944Y-58357388D01*
X102767742Y-58367071D01*
X102806368Y-58361553D01*
X102839942Y-58341674D01*
X102853184Y-58327219D01*
X103054136Y-58059282D01*
X103054136Y-58267219D01*
X103056057Y-58286728D01*
X103070989Y-58322776D01*
X103098579Y-58350366D01*
X103134627Y-58365298D01*
X103173645Y-58365298D01*
X103209693Y-58350366D01*
X103237283Y-58322776D01*
X103252215Y-58286728D01*
X103254136Y-58267219D01*
X103254136Y-57600552D01*
X103530326Y-57600552D01*
X103530326Y-58457695D01*
X103532247Y-58477204D01*
X103533622Y-58480524D01*
X103533877Y-58484108D01*
X103540883Y-58502416D01*
X103588502Y-58597654D01*
X103590555Y-58600917D01*
X103591069Y-58602456D01*
X103592731Y-58604372D01*
X103598945Y-58614244D01*
X103608415Y-58622457D01*
X103616633Y-58631933D01*
X103626506Y-58638147D01*
X103628422Y-58639809D01*
X103629960Y-58640321D01*
X103633224Y-58642376D01*
X103728461Y-58689995D01*
X103746770Y-58697001D01*
X103750353Y-58697255D01*
X103753674Y-58698631D01*
X103773183Y-58700552D01*
X103820802Y-58700552D01*
X103840311Y-58698631D01*
X103876359Y-58683699D01*
X103903949Y-58656109D01*
X103918881Y-58620061D01*
X103918881Y-58581043D01*
X103903949Y-58544995D01*
X103876359Y-58517405D01*
X103840311Y-58502473D01*
X103820802Y-58500552D01*
X103796790Y-58500552D01*
X103752481Y-58478397D01*
X103730326Y-58434087D01*
X103730326Y-57600552D01*
X103728405Y-57581043D01*
X103713473Y-57544995D01*
X103685883Y-57517405D01*
X103649835Y-57502473D01*
X103610817Y-57502473D01*
X103574769Y-57517405D01*
X103547179Y-57544995D01*
X103532247Y-57581043D01*
X103530326Y-57600552D01*
X103254136Y-57600552D01*
X103254136Y-57295329D01*
X103484628Y-57295329D01*
X103484628Y-57334347D01*
X103499560Y-57370395D01*
X103511996Y-57385549D01*
X103559615Y-57433167D01*
X103574768Y-57445604D01*
X103585326Y-57449977D01*
X103610817Y-57460536D01*
X103649835Y-57460536D01*
X103685883Y-57445604D01*
X103701037Y-57433168D01*
X103748655Y-57385549D01*
X103761092Y-57370396D01*
X103776023Y-57334347D01*
X103776023Y-57295329D01*
X103774539Y-57291746D01*
X103761092Y-57259280D01*
X103748655Y-57244127D01*
X103701037Y-57196508D01*
X103685883Y-57184072D01*
X103649835Y-57169140D01*
X103610817Y-57169140D01*
X103585326Y-57179698D01*
X103574768Y-57184072D01*
X103559615Y-57196509D01*
X103511996Y-57244127D01*
X103499561Y-57259280D01*
X103499560Y-57259281D01*
X103484628Y-57295329D01*
X103254136Y-57295329D01*
X103254136Y-57267219D01*
X103252215Y-57247710D01*
X103237283Y-57211662D01*
X103209693Y-57184072D01*
X103173645Y-57169140D01*
X103134627Y-57169140D01*
X103098579Y-57184072D01*
X103070989Y-57211662D01*
X103056057Y-57247710D01*
X103054136Y-57267219D01*
X103054136Y-57740082D01*
X102843895Y-57529841D01*
X102828741Y-57517405D01*
X102792693Y-57502473D01*
X102753675Y-57502473D01*
X102717627Y-57517405D01*
X102690037Y-57544995D01*
X102675105Y-57581043D01*
X102675105Y-57620061D01*
X102690037Y-57656109D01*
X102702473Y-57671263D01*
X102926860Y-57895649D01*
X102693184Y-58207219D01*
X102683015Y-58223979D01*
X102673332Y-58261777D01*
X101776024Y-58261777D01*
X101776024Y-58247710D01*
X101761092Y-58211662D01*
X101748656Y-58196508D01*
X101193919Y-57641770D01*
X101158898Y-57536706D01*
X101158898Y-57481302D01*
X101188703Y-57421692D01*
X101213371Y-57397023D01*
X101272981Y-57367219D01*
X101463862Y-57367219D01*
X101523471Y-57397024D01*
X101559615Y-57433167D01*
X101574768Y-57445604D01*
X101610817Y-57460535D01*
X101649835Y-57460535D01*
X101685883Y-57445604D01*
X101713473Y-57418014D01*
X101728404Y-57381966D01*
X101728404Y-57342948D01*
X101713473Y-57306899D01*
X101701036Y-57291746D01*
X101653418Y-57244127D01*
X101645747Y-57237832D01*
X101644018Y-57235838D01*
X101641010Y-57233944D01*
X101638264Y-57231691D01*
X101635824Y-57230680D01*
X101627428Y-57225395D01*
X101532190Y-57177776D01*
X101513882Y-57170770D01*
X101510298Y-57170515D01*
X101506978Y-57169140D01*
X101487469Y-57167219D01*
X101249374Y-57167219D01*
X101229865Y-57169140D01*
X101226544Y-57170515D01*
X101222961Y-57170770D01*
X101204652Y-57177776D01*
X101109415Y-57225395D01*
X101101018Y-57230680D01*
X101098578Y-57231691D01*
X101095832Y-57233944D01*
X101092824Y-57235838D01*
X101091091Y-57237835D01*
X101083425Y-57244128D01*
X101035806Y-57291746D01*
X101029511Y-57299416D01*
X101027517Y-57301146D01*
X101025623Y-57304153D01*
X101023370Y-57306900D01*
X101022359Y-57309339D01*
X101017074Y-57317736D01*
X100969455Y-57412974D01*
X100962449Y-57431282D01*
X100962194Y-57434865D01*
X100960819Y-57438186D01*
X100958898Y-57457695D01*
X100733403Y-57457695D01*
X100727340Y-57433441D01*
X100726826Y-57432002D01*
X100726775Y-57431282D01*
X100723666Y-57423157D01*
X100720745Y-57414981D01*
X100720315Y-57414401D01*
X100719769Y-57412973D01*
X100672150Y-57317736D01*
X100666864Y-57309339D01*
X100665854Y-57306899D01*
X100663600Y-57304153D01*
X100661707Y-57301145D01*
X100659709Y-57299412D01*
X100653417Y-57291746D01*
X100605799Y-57244127D01*
X100598128Y-57237832D01*
X100596399Y-57235838D01*
X100593391Y-57233944D01*
X100590645Y-57231691D01*
X100588205Y-57230680D01*
X100579809Y-57225395D01*
X100484571Y-57177776D01*
X100466263Y-57170770D01*
X100462679Y-57170515D01*
X100459359Y-57169140D01*
X100439850Y-57167219D01*
X100344612Y-57167219D01*
X100325103Y-57169140D01*
X100321782Y-57170515D01*
X100318199Y-57170770D01*
X100299890Y-57177776D01*
X100204653Y-57225395D01*
X100196256Y-57230680D01*
X100193816Y-57231691D01*
X100191070Y-57233944D01*
X100188062Y-57235838D01*
X100186329Y-57237835D01*
X100178663Y-57244128D01*
X100131044Y-57291746D01*
X100124749Y-57299416D01*
X100122755Y-57301146D01*
X100120861Y-57304153D01*
X100118608Y-57306900D01*
X100117597Y-57309339D01*
X100112312Y-57317736D01*
X100064693Y-57412974D01*
X100064147Y-57414400D01*
X100063717Y-57414981D01*
X100060795Y-57423157D01*
X100057687Y-57431282D01*
X100057635Y-57432004D01*
X100057122Y-57433442D01*
X100009503Y-57623917D01*
X100009002Y-57627298D01*
X100008438Y-57628662D01*
X100007714Y-57636012D01*
X100006635Y-57643310D01*
X100006852Y-57644768D01*
X100006517Y-57648171D01*
X99295558Y-57648171D01*
X99289157Y-57641770D01*
X99254136Y-57536706D01*
X99254136Y-57481302D01*
X99283941Y-57421692D01*
X99308609Y-57397023D01*
X99368219Y-57367219D01*
X99559100Y-57367219D01*
X99618709Y-57397024D01*
X99654853Y-57433167D01*
X99670006Y-57445604D01*
X99706055Y-57460535D01*
X99745073Y-57460535D01*
X99781121Y-57445604D01*
X99808711Y-57418014D01*
X99823642Y-57381966D01*
X99823642Y-57342948D01*
X99808711Y-57306899D01*
X99796274Y-57291746D01*
X99748656Y-57244127D01*
X99740985Y-57237832D01*
X99739256Y-57235838D01*
X99736248Y-57233944D01*
X99733502Y-57231691D01*
X99731062Y-57230680D01*
X99722666Y-57225395D01*
X99627428Y-57177776D01*
X99609120Y-57170770D01*
X99605536Y-57170515D01*
X99602216Y-57169140D01*
X99582707Y-57167219D01*
X99344612Y-57167219D01*
X99325103Y-57169140D01*
X99321782Y-57170515D01*
X99318199Y-57170770D01*
X99299890Y-57177776D01*
X99204653Y-57225395D01*
X99196256Y-57230680D01*
X99193816Y-57231691D01*
X99191070Y-57233944D01*
X99188062Y-57235838D01*
X99186329Y-57237835D01*
X99178663Y-57244128D01*
X99131044Y-57291746D01*
X99124749Y-57299416D01*
X99122755Y-57301146D01*
X99120861Y-57304153D01*
X99118608Y-57306900D01*
X99117597Y-57309339D01*
X99112312Y-57317736D01*
X99064693Y-57412974D01*
X99057687Y-57431282D01*
X99057432Y-57434865D01*
X99056057Y-57438186D01*
X99054136Y-57457695D01*
X98845111Y-57457695D01*
X98825068Y-57257269D01*
X98823643Y-57250160D01*
X98823643Y-57247710D01*
X98822691Y-57245412D01*
X98821215Y-57238048D01*
X98814305Y-57225167D01*
X98808711Y-57211662D01*
X98805150Y-57208101D01*
X98802770Y-57203664D01*
X98791457Y-57194408D01*
X98781121Y-57184072D01*
X98776468Y-57182144D01*
X98772572Y-57178957D01*
X98758582Y-57174736D01*
X98745073Y-57169140D01*
X98737595Y-57168403D01*
X98735217Y-57167686D01*
X98732780Y-57167929D01*
X98725564Y-57167219D01*
X98249374Y-57167219D01*
X98229865Y-57169140D01*
X98193817Y-57184072D01*
X98166227Y-57211662D01*
X98151295Y-57247710D01*
X98151295Y-57286728D01*
X98166227Y-57322776D01*
X98193817Y-57350366D01*
X98229865Y-57365298D01*
X98249374Y-57367219D01*
X98635065Y-57367219D01*
X98653492Y-57551491D01*
X98653155Y-57551467D01*
X98649835Y-57550092D01*
X98630326Y-57548171D01*
X98392231Y-57548171D01*
X98372722Y-57550092D01*
X98369401Y-57551467D01*
X98365818Y-57551722D01*
X98347509Y-57558728D01*
X98252272Y-57606347D01*
X98243875Y-57611632D01*
X98241435Y-57612643D01*
X98238689Y-57614896D01*
X98235681Y-57616790D01*
X98233948Y-57618787D01*
X98226282Y-57625080D01*
X98178663Y-57672698D01*
X98172368Y-57680368D01*
X98170374Y-57682098D01*
X98168480Y-57685105D01*
X98166227Y-57687852D01*
X98165216Y-57690291D01*
X98159931Y-57698688D01*
X98112312Y-57793926D01*
X98105306Y-57812234D01*
X98105051Y-57815817D01*
X98103676Y-57819138D01*
X98101755Y-57838647D01*
X97859618Y-57838647D01*
X97856330Y-57830709D01*
X97828740Y-57803119D01*
X97792692Y-57788187D01*
X97773183Y-57786266D01*
X97011279Y-57786266D01*
X96991770Y-57788187D01*
X96955722Y-57803119D01*
X96928132Y-57830709D01*
X96913200Y-57866757D01*
X96682707Y-57866757D01*
X96682707Y-57648171D01*
X96682371Y-57644768D01*
X96682589Y-57643310D01*
X96681509Y-57636012D01*
X96680786Y-57628662D01*
X96680221Y-57627298D01*
X96679721Y-57623917D01*
X96632102Y-57433441D01*
X96631588Y-57432002D01*
X96631537Y-57431282D01*
X96628428Y-57423157D01*
X96625507Y-57414981D01*
X96625077Y-57414401D01*
X96624531Y-57412973D01*
X96576912Y-57317736D01*
X96571626Y-57309339D01*
X96570616Y-57306899D01*
X96568362Y-57304153D01*
X96566469Y-57301145D01*
X96564471Y-57299412D01*
X96558179Y-57291746D01*
X96510561Y-57244127D01*
X96502890Y-57237832D01*
X96501161Y-57235838D01*
X96498153Y-57233944D01*
X96495407Y-57231691D01*
X96492967Y-57230680D01*
X96484571Y-57225395D01*
X96389333Y-57177776D01*
X96371025Y-57170770D01*
X96367441Y-57170515D01*
X96364121Y-57169140D01*
X96344612Y-57167219D01*
X96249374Y-57167219D01*
X96229865Y-57169140D01*
X96226544Y-57170515D01*
X96222961Y-57170770D01*
X96204652Y-57177776D01*
X96109415Y-57225395D01*
X96101018Y-57230680D01*
X96098578Y-57231691D01*
X96095832Y-57233944D01*
X96092824Y-57235838D01*
X96091091Y-57237835D01*
X96083425Y-57244128D01*
X96035806Y-57291746D01*
X96029511Y-57299416D01*
X96027517Y-57301146D01*
X96025623Y-57304153D01*
X96023370Y-57306900D01*
X96022359Y-57309339D01*
X96017074Y-57317736D01*
X95969455Y-57412974D01*
X95968909Y-57414400D01*
X95968479Y-57414981D01*
X95965557Y-57423157D01*
X95962449Y-57431282D01*
X95962397Y-57432004D01*
X95961884Y-57433442D01*
X95914265Y-57623917D01*
X95913764Y-57627298D01*
X95913200Y-57628662D01*
X95912476Y-57636012D01*
X95911397Y-57643310D01*
X95911614Y-57644768D01*
X95911279Y-57648171D01*
X95490527Y-57648171D01*
X95491390Y-57635229D01*
X95490310Y-57632035D01*
X95490310Y-57628662D01*
X95484094Y-57613656D01*
X95478890Y-57598268D01*
X95476108Y-57594377D01*
X95475378Y-57592614D01*
X95473518Y-57590754D01*
X95467489Y-57582321D01*
X95279275Y-57367219D01*
X95677945Y-57367219D01*
X95697454Y-57365298D01*
X95733502Y-57350366D01*
X95761092Y-57322776D01*
X95776024Y-57286728D01*
X95776024Y-57247710D01*
X95761092Y-57211662D01*
X95733502Y-57184072D01*
X95697454Y-57169140D01*
X95677945Y-57167219D01*
X95058898Y-57167219D01*
X95048580Y-57168234D01*
X95045956Y-57168060D01*
X95044148Y-57168671D01*
X95039389Y-57169140D01*
X95024383Y-57175355D01*
X95008995Y-57180560D01*
X95006455Y-57182781D01*
X95003341Y-57184072D01*
X94991856Y-57195556D01*
X94979631Y-57206254D01*
X94978135Y-57209277D01*
X94975751Y-57211662D01*
X94969534Y-57226668D01*
X94962334Y-57241229D01*
X94962109Y-57244594D01*
X94960819Y-57247710D01*
X94960819Y-57263958D01*
X94959739Y-57280161D01*
X94960819Y-57283354D01*
X94960819Y-57286728D01*
X94967034Y-57301733D01*
X94972239Y-57317122D01*
X94975020Y-57321012D01*
X94975751Y-57322776D01*
X94977610Y-57324635D01*
X94983640Y-57333069D01*
X95188261Y-57566923D01*
X95109415Y-57606347D01*
X95101018Y-57611632D01*
X95098578Y-57612643D01*
X95095832Y-57614896D01*
X95092824Y-57616790D01*
X95091091Y-57618787D01*
X95083425Y-57625080D01*
X95035806Y-57672698D01*
X95029511Y-57680368D01*
X95027517Y-57682098D01*
X95025623Y-57685105D01*
X95023370Y-57687852D01*
X95022359Y-57690291D01*
X95017074Y-57698688D01*
X94969455Y-57793926D01*
X94962449Y-57812234D01*
X94962194Y-57815817D01*
X94960819Y-57819138D01*
X94958898Y-57838647D01*
X94847787Y-57838647D01*
X94847787Y-57056108D01*
X104029992Y-57056108D01*
X104029992Y-58811663D01*
G37*
X103730326Y-60167219D02*
X103730326Y-59500552D01*
X103730326Y-59167219D02*
X103777945Y-59214838D01*
X103777945Y-59214838D02*
X103730326Y-59262457D01*
X103730326Y-59262457D02*
X103682707Y-59214838D01*
X103682707Y-59214838D02*
X103730326Y-59167219D01*
X103730326Y-59167219D02*
X103730326Y-59262457D01*
X103206517Y-59167219D02*
X103301755Y-59357695D01*
X102777946Y-60167219D02*
X102777946Y-59500552D01*
X102777946Y-59595790D02*
X102730327Y-59548171D01*
X102730327Y-59548171D02*
X102635089Y-59500552D01*
X102635089Y-59500552D02*
X102492232Y-59500552D01*
X102492232Y-59500552D02*
X102396994Y-59548171D01*
X102396994Y-59548171D02*
X102349375Y-59643409D01*
X102349375Y-59643409D02*
X102349375Y-60167219D01*
X102349375Y-59643409D02*
X102301756Y-59548171D01*
X102301756Y-59548171D02*
X102206518Y-59500552D01*
X102206518Y-59500552D02*
X102063661Y-59500552D01*
X102063661Y-59500552D02*
X101968422Y-59548171D01*
X101968422Y-59548171D02*
X101920803Y-59643409D01*
X101920803Y-59643409D02*
X101920803Y-60167219D01*
X100254137Y-59500552D02*
X100254137Y-60167219D01*
X100682708Y-59500552D02*
X100682708Y-60024361D01*
X100682708Y-60024361D02*
X100635089Y-60119600D01*
X100635089Y-60119600D02*
X100539851Y-60167219D01*
X100539851Y-60167219D02*
X100396994Y-60167219D01*
X100396994Y-60167219D02*
X100301756Y-60119600D01*
X100301756Y-60119600D02*
X100254137Y-60071980D01*
X99777946Y-59500552D02*
X99777946Y-60500552D01*
X99777946Y-59548171D02*
X99682708Y-59500552D01*
X99682708Y-59500552D02*
X99492232Y-59500552D01*
X99492232Y-59500552D02*
X99396994Y-59548171D01*
X99396994Y-59548171D02*
X99349375Y-59595790D01*
X99349375Y-59595790D02*
X99301756Y-59691028D01*
X99301756Y-59691028D02*
X99301756Y-59976742D01*
X99301756Y-59976742D02*
X99349375Y-60071980D01*
X99349375Y-60071980D02*
X99396994Y-60119600D01*
X99396994Y-60119600D02*
X99492232Y-60167219D01*
X99492232Y-60167219D02*
X99682708Y-60167219D01*
X99682708Y-60167219D02*
X99777946Y-60119600D01*
X98920803Y-60119600D02*
X98825565Y-60167219D01*
X98825565Y-60167219D02*
X98635089Y-60167219D01*
X98635089Y-60167219D02*
X98539851Y-60119600D01*
X98539851Y-60119600D02*
X98492232Y-60024361D01*
X98492232Y-60024361D02*
X98492232Y-59976742D01*
X98492232Y-59976742D02*
X98539851Y-59881504D01*
X98539851Y-59881504D02*
X98635089Y-59833885D01*
X98635089Y-59833885D02*
X98777946Y-59833885D01*
X98777946Y-59833885D02*
X98873184Y-59786266D01*
X98873184Y-59786266D02*
X98920803Y-59691028D01*
X98920803Y-59691028D02*
X98920803Y-59643409D01*
X98920803Y-59643409D02*
X98873184Y-59548171D01*
X98873184Y-59548171D02*
X98777946Y-59500552D01*
X98777946Y-59500552D02*
X98635089Y-59500552D01*
X98635089Y-59500552D02*
X98539851Y-59548171D01*
X98063660Y-60167219D02*
X98063660Y-59500552D01*
X98063660Y-59167219D02*
X98111279Y-59214838D01*
X98111279Y-59214838D02*
X98063660Y-59262457D01*
X98063660Y-59262457D02*
X98016041Y-59214838D01*
X98016041Y-59214838D02*
X98063660Y-59167219D01*
X98063660Y-59167219D02*
X98063660Y-59262457D01*
X97158899Y-60167219D02*
X97158899Y-59167219D01*
X97158899Y-60119600D02*
X97254137Y-60167219D01*
X97254137Y-60167219D02*
X97444613Y-60167219D01*
X97444613Y-60167219D02*
X97539851Y-60119600D01*
X97539851Y-60119600D02*
X97587470Y-60071980D01*
X97587470Y-60071980D02*
X97635089Y-59976742D01*
X97635089Y-59976742D02*
X97635089Y-59691028D01*
X97635089Y-59691028D02*
X97587470Y-59595790D01*
X97587470Y-59595790D02*
X97539851Y-59548171D01*
X97539851Y-59548171D02*
X97444613Y-59500552D01*
X97444613Y-59500552D02*
X97254137Y-59500552D01*
X97254137Y-59500552D02*
X97158899Y-59548171D01*
X96301756Y-60119600D02*
X96396994Y-60167219D01*
X96396994Y-60167219D02*
X96587470Y-60167219D01*
X96587470Y-60167219D02*
X96682708Y-60119600D01*
X96682708Y-60119600D02*
X96730327Y-60024361D01*
X96730327Y-60024361D02*
X96730327Y-59643409D01*
X96730327Y-59643409D02*
X96682708Y-59548171D01*
X96682708Y-59548171D02*
X96587470Y-59500552D01*
X96587470Y-59500552D02*
X96396994Y-59500552D01*
X96396994Y-59500552D02*
X96301756Y-59548171D01*
X96301756Y-59548171D02*
X96254137Y-59643409D01*
X96254137Y-59643409D02*
X96254137Y-59738647D01*
X96254137Y-59738647D02*
X96730327Y-59833885D01*
X94635089Y-60167219D02*
X94635089Y-59167219D01*
X94635089Y-60119600D02*
X94730327Y-60167219D01*
X94730327Y-60167219D02*
X94920803Y-60167219D01*
X94920803Y-60167219D02*
X95016041Y-60119600D01*
X95016041Y-60119600D02*
X95063660Y-60071980D01*
X95063660Y-60071980D02*
X95111279Y-59976742D01*
X95111279Y-59976742D02*
X95111279Y-59691028D01*
X95111279Y-59691028D02*
X95063660Y-59595790D01*
X95063660Y-59595790D02*
X95016041Y-59548171D01*
X95016041Y-59548171D02*
X94920803Y-59500552D01*
X94920803Y-59500552D02*
X94730327Y-59500552D01*
X94730327Y-59500552D02*
X94635089Y-59548171D01*
X94016041Y-60167219D02*
X94111279Y-60119600D01*
X94111279Y-60119600D02*
X94158898Y-60071980D01*
X94158898Y-60071980D02*
X94206517Y-59976742D01*
X94206517Y-59976742D02*
X94206517Y-59691028D01*
X94206517Y-59691028D02*
X94158898Y-59595790D01*
X94158898Y-59595790D02*
X94111279Y-59548171D01*
X94111279Y-59548171D02*
X94016041Y-59500552D01*
X94016041Y-59500552D02*
X93873184Y-59500552D01*
X93873184Y-59500552D02*
X93777946Y-59548171D01*
X93777946Y-59548171D02*
X93730327Y-59595790D01*
X93730327Y-59595790D02*
X93682708Y-59691028D01*
X93682708Y-59691028D02*
X93682708Y-59976742D01*
X93682708Y-59976742D02*
X93730327Y-60071980D01*
X93730327Y-60071980D02*
X93777946Y-60119600D01*
X93777946Y-60119600D02*
X93873184Y-60167219D01*
X93873184Y-60167219D02*
X94016041Y-60167219D01*
X93349374Y-59500552D02*
X93158898Y-60167219D01*
X93158898Y-60167219D02*
X92968422Y-59691028D01*
X92968422Y-59691028D02*
X92777946Y-60167219D01*
X92777946Y-60167219D02*
X92587470Y-59500552D01*
X92206517Y-59500552D02*
X92206517Y-60167219D01*
X92206517Y-59595790D02*
X92158898Y-59548171D01*
X92158898Y-59548171D02*
X92063660Y-59500552D01*
X92063660Y-59500552D02*
X91920803Y-59500552D01*
X91920803Y-59500552D02*
X91825565Y-59548171D01*
X91825565Y-59548171D02*
X91777946Y-59643409D01*
X91777946Y-59643409D02*
X91777946Y-60167219D01*
X91301755Y-60071980D02*
X91254136Y-60119600D01*
X91254136Y-60119600D02*
X91301755Y-60167219D01*
X91301755Y-60167219D02*
X91349374Y-60119600D01*
X91349374Y-60119600D02*
X91301755Y-60071980D01*
X91301755Y-60071980D02*
X91301755Y-60167219D01*
X91301755Y-59786266D02*
X91349374Y-59214838D01*
X91349374Y-59214838D02*
X91301755Y-59167219D01*
X91301755Y-59167219D02*
X91254136Y-59214838D01*
X91254136Y-59214838D02*
X91301755Y-59786266D01*
X91301755Y-59786266D02*
X91301755Y-59167219D01*
D11*
X121761904Y-57804819D02*
X121761904Y-58614342D01*
X121761904Y-58614342D02*
X121714285Y-58709580D01*
X121714285Y-58709580D02*
X121666666Y-58757200D01*
X121666666Y-58757200D02*
X121571428Y-58804819D01*
X121571428Y-58804819D02*
X121380952Y-58804819D01*
X121380952Y-58804819D02*
X121285714Y-58757200D01*
X121285714Y-58757200D02*
X121238095Y-58709580D01*
X121238095Y-58709580D02*
X121190476Y-58614342D01*
X121190476Y-58614342D02*
X121190476Y-57804819D01*
X120238095Y-57804819D02*
X120714285Y-57804819D01*
X120714285Y-57804819D02*
X120761904Y-58281009D01*
X120761904Y-58281009D02*
X120714285Y-58233390D01*
X120714285Y-58233390D02*
X120619047Y-58185771D01*
X120619047Y-58185771D02*
X120380952Y-58185771D01*
X120380952Y-58185771D02*
X120285714Y-58233390D01*
X120285714Y-58233390D02*
X120238095Y-58281009D01*
X120238095Y-58281009D02*
X120190476Y-58376247D01*
X120190476Y-58376247D02*
X120190476Y-58614342D01*
X120190476Y-58614342D02*
X120238095Y-58709580D01*
X120238095Y-58709580D02*
X120285714Y-58757200D01*
X120285714Y-58757200D02*
X120380952Y-58804819D01*
X120380952Y-58804819D02*
X120619047Y-58804819D01*
X120619047Y-58804819D02*
X120714285Y-58757200D01*
X120714285Y-58757200D02*
X120761904Y-58709580D01*
X115691904Y-55984819D02*
X115691904Y-56794342D01*
X115691904Y-56794342D02*
X115644285Y-56889580D01*
X115644285Y-56889580D02*
X115596666Y-56937200D01*
X115596666Y-56937200D02*
X115501428Y-56984819D01*
X115501428Y-56984819D02*
X115310952Y-56984819D01*
X115310952Y-56984819D02*
X115215714Y-56937200D01*
X115215714Y-56937200D02*
X115168095Y-56889580D01*
X115168095Y-56889580D02*
X115120476Y-56794342D01*
X115120476Y-56794342D02*
X115120476Y-55984819D01*
X114215714Y-56318152D02*
X114215714Y-56984819D01*
X114453809Y-55937200D02*
X114691904Y-56651485D01*
X114691904Y-56651485D02*
X114072857Y-56651485D01*
X126104819Y-37238095D02*
X126914342Y-37238095D01*
X126914342Y-37238095D02*
X127009580Y-37285714D01*
X127009580Y-37285714D02*
X127057200Y-37333333D01*
X127057200Y-37333333D02*
X127104819Y-37428571D01*
X127104819Y-37428571D02*
X127104819Y-37619047D01*
X127104819Y-37619047D02*
X127057200Y-37714285D01*
X127057200Y-37714285D02*
X127009580Y-37761904D01*
X127009580Y-37761904D02*
X126914342Y-37809523D01*
X126914342Y-37809523D02*
X126104819Y-37809523D01*
X127104819Y-38809523D02*
X127104819Y-38238095D01*
X127104819Y-38523809D02*
X126104819Y-38523809D01*
X126104819Y-38523809D02*
X126247676Y-38428571D01*
X126247676Y-38428571D02*
X126342914Y-38333333D01*
X126342914Y-38333333D02*
X126390533Y-38238095D01*
X97404819Y-28957142D02*
X96928628Y-28623809D01*
X97404819Y-28385714D02*
X96404819Y-28385714D01*
X96404819Y-28385714D02*
X96404819Y-28766666D01*
X96404819Y-28766666D02*
X96452438Y-28861904D01*
X96452438Y-28861904D02*
X96500057Y-28909523D01*
X96500057Y-28909523D02*
X96595295Y-28957142D01*
X96595295Y-28957142D02*
X96738152Y-28957142D01*
X96738152Y-28957142D02*
X96833390Y-28909523D01*
X96833390Y-28909523D02*
X96881009Y-28861904D01*
X96881009Y-28861904D02*
X96928628Y-28766666D01*
X96928628Y-28766666D02*
X96928628Y-28385714D01*
X97404819Y-29909523D02*
X97404819Y-29338095D01*
X97404819Y-29623809D02*
X96404819Y-29623809D01*
X96404819Y-29623809D02*
X96547676Y-29528571D01*
X96547676Y-29528571D02*
X96642914Y-29433333D01*
X96642914Y-29433333D02*
X96690533Y-29338095D01*
X97404819Y-30861904D02*
X97404819Y-30290476D01*
X97404819Y-30576190D02*
X96404819Y-30576190D01*
X96404819Y-30576190D02*
X96547676Y-30480952D01*
X96547676Y-30480952D02*
X96642914Y-30385714D01*
X96642914Y-30385714D02*
X96690533Y-30290476D01*
X97404819Y-33433333D02*
X96928628Y-33100000D01*
X97404819Y-32861905D02*
X96404819Y-32861905D01*
X96404819Y-32861905D02*
X96404819Y-33242857D01*
X96404819Y-33242857D02*
X96452438Y-33338095D01*
X96452438Y-33338095D02*
X96500057Y-33385714D01*
X96500057Y-33385714D02*
X96595295Y-33433333D01*
X96595295Y-33433333D02*
X96738152Y-33433333D01*
X96738152Y-33433333D02*
X96833390Y-33385714D01*
X96833390Y-33385714D02*
X96881009Y-33338095D01*
X96881009Y-33338095D02*
X96928628Y-33242857D01*
X96928628Y-33242857D02*
X96928628Y-32861905D01*
X97404819Y-33909524D02*
X97404819Y-34100000D01*
X97404819Y-34100000D02*
X97357200Y-34195238D01*
X97357200Y-34195238D02*
X97309580Y-34242857D01*
X97309580Y-34242857D02*
X97166723Y-34338095D01*
X97166723Y-34338095D02*
X96976247Y-34385714D01*
X96976247Y-34385714D02*
X96595295Y-34385714D01*
X96595295Y-34385714D02*
X96500057Y-34338095D01*
X96500057Y-34338095D02*
X96452438Y-34290476D01*
X96452438Y-34290476D02*
X96404819Y-34195238D01*
X96404819Y-34195238D02*
X96404819Y-34004762D01*
X96404819Y-34004762D02*
X96452438Y-33909524D01*
X96452438Y-33909524D02*
X96500057Y-33861905D01*
X96500057Y-33861905D02*
X96595295Y-33814286D01*
X96595295Y-33814286D02*
X96833390Y-33814286D01*
X96833390Y-33814286D02*
X96928628Y-33861905D01*
X96928628Y-33861905D02*
X96976247Y-33909524D01*
X96976247Y-33909524D02*
X97023866Y-34004762D01*
X97023866Y-34004762D02*
X97023866Y-34195238D01*
X97023866Y-34195238D02*
X96976247Y-34290476D01*
X96976247Y-34290476D02*
X96928628Y-34338095D01*
X96928628Y-34338095D02*
X96833390Y-34385714D01*
X97404819Y-41433333D02*
X96928628Y-41100000D01*
X97404819Y-40861905D02*
X96404819Y-40861905D01*
X96404819Y-40861905D02*
X96404819Y-41242857D01*
X96404819Y-41242857D02*
X96452438Y-41338095D01*
X96452438Y-41338095D02*
X96500057Y-41385714D01*
X96500057Y-41385714D02*
X96595295Y-41433333D01*
X96595295Y-41433333D02*
X96738152Y-41433333D01*
X96738152Y-41433333D02*
X96833390Y-41385714D01*
X96833390Y-41385714D02*
X96881009Y-41338095D01*
X96881009Y-41338095D02*
X96928628Y-41242857D01*
X96928628Y-41242857D02*
X96928628Y-40861905D01*
X96404819Y-42290476D02*
X96404819Y-42100000D01*
X96404819Y-42100000D02*
X96452438Y-42004762D01*
X96452438Y-42004762D02*
X96500057Y-41957143D01*
X96500057Y-41957143D02*
X96642914Y-41861905D01*
X96642914Y-41861905D02*
X96833390Y-41814286D01*
X96833390Y-41814286D02*
X97214342Y-41814286D01*
X97214342Y-41814286D02*
X97309580Y-41861905D01*
X97309580Y-41861905D02*
X97357200Y-41909524D01*
X97357200Y-41909524D02*
X97404819Y-42004762D01*
X97404819Y-42004762D02*
X97404819Y-42195238D01*
X97404819Y-42195238D02*
X97357200Y-42290476D01*
X97357200Y-42290476D02*
X97309580Y-42338095D01*
X97309580Y-42338095D02*
X97214342Y-42385714D01*
X97214342Y-42385714D02*
X96976247Y-42385714D01*
X96976247Y-42385714D02*
X96881009Y-42338095D01*
X96881009Y-42338095D02*
X96833390Y-42290476D01*
X96833390Y-42290476D02*
X96785771Y-42195238D01*
X96785771Y-42195238D02*
X96785771Y-42004762D01*
X96785771Y-42004762D02*
X96833390Y-41909524D01*
X96833390Y-41909524D02*
X96881009Y-41861905D01*
X96881009Y-41861905D02*
X96976247Y-41814286D01*
X125839580Y-53857142D02*
X125887200Y-53809523D01*
X125887200Y-53809523D02*
X125934819Y-53666666D01*
X125934819Y-53666666D02*
X125934819Y-53571428D01*
X125934819Y-53571428D02*
X125887200Y-53428571D01*
X125887200Y-53428571D02*
X125791961Y-53333333D01*
X125791961Y-53333333D02*
X125696723Y-53285714D01*
X125696723Y-53285714D02*
X125506247Y-53238095D01*
X125506247Y-53238095D02*
X125363390Y-53238095D01*
X125363390Y-53238095D02*
X125172914Y-53285714D01*
X125172914Y-53285714D02*
X125077676Y-53333333D01*
X125077676Y-53333333D02*
X124982438Y-53428571D01*
X124982438Y-53428571D02*
X124934819Y-53571428D01*
X124934819Y-53571428D02*
X124934819Y-53666666D01*
X124934819Y-53666666D02*
X124982438Y-53809523D01*
X124982438Y-53809523D02*
X125030057Y-53857142D01*
X125934819Y-54809523D02*
X125934819Y-54238095D01*
X125934819Y-54523809D02*
X124934819Y-54523809D01*
X124934819Y-54523809D02*
X125077676Y-54428571D01*
X125077676Y-54428571D02*
X125172914Y-54333333D01*
X125172914Y-54333333D02*
X125220533Y-54238095D01*
X124934819Y-55714285D02*
X124934819Y-55238095D01*
X124934819Y-55238095D02*
X125411009Y-55190476D01*
X125411009Y-55190476D02*
X125363390Y-55238095D01*
X125363390Y-55238095D02*
X125315771Y-55333333D01*
X125315771Y-55333333D02*
X125315771Y-55571428D01*
X125315771Y-55571428D02*
X125363390Y-55666666D01*
X125363390Y-55666666D02*
X125411009Y-55714285D01*
X125411009Y-55714285D02*
X125506247Y-55761904D01*
X125506247Y-55761904D02*
X125744342Y-55761904D01*
X125744342Y-55761904D02*
X125839580Y-55714285D01*
X125839580Y-55714285D02*
X125887200Y-55666666D01*
X125887200Y-55666666D02*
X125934819Y-55571428D01*
X125934819Y-55571428D02*
X125934819Y-55333333D01*
X125934819Y-55333333D02*
X125887200Y-55238095D01*
X125887200Y-55238095D02*
X125839580Y-55190476D01*
X67039580Y-57357142D02*
X67087200Y-57309523D01*
X67087200Y-57309523D02*
X67134819Y-57166666D01*
X67134819Y-57166666D02*
X67134819Y-57071428D01*
X67134819Y-57071428D02*
X67087200Y-56928571D01*
X67087200Y-56928571D02*
X66991961Y-56833333D01*
X66991961Y-56833333D02*
X66896723Y-56785714D01*
X66896723Y-56785714D02*
X66706247Y-56738095D01*
X66706247Y-56738095D02*
X66563390Y-56738095D01*
X66563390Y-56738095D02*
X66372914Y-56785714D01*
X66372914Y-56785714D02*
X66277676Y-56833333D01*
X66277676Y-56833333D02*
X66182438Y-56928571D01*
X66182438Y-56928571D02*
X66134819Y-57071428D01*
X66134819Y-57071428D02*
X66134819Y-57166666D01*
X66134819Y-57166666D02*
X66182438Y-57309523D01*
X66182438Y-57309523D02*
X66230057Y-57357142D01*
X67134819Y-58309523D02*
X67134819Y-57738095D01*
X67134819Y-58023809D02*
X66134819Y-58023809D01*
X66134819Y-58023809D02*
X66277676Y-57928571D01*
X66277676Y-57928571D02*
X66372914Y-57833333D01*
X66372914Y-57833333D02*
X66420533Y-57738095D01*
X67134819Y-59261904D02*
X67134819Y-58690476D01*
X67134819Y-58976190D02*
X66134819Y-58976190D01*
X66134819Y-58976190D02*
X66277676Y-58880952D01*
X66277676Y-58880952D02*
X66372914Y-58785714D01*
X66372914Y-58785714D02*
X66420533Y-58690476D01*
D12*
%TO.C,U2*%
X67810000Y-30810000D02*
X57590000Y-30810000D01*
X67810000Y-30810000D02*
X67810000Y-28150000D01*
X57590000Y-30810000D02*
X57590000Y-28150000D01*
X67810000Y-28150000D02*
X57590000Y-28150000D01*
X54990000Y-28150000D02*
X56320000Y-28150000D01*
X54990000Y-29480000D02*
X54990000Y-28150000D01*
%TO.C,U3*%
X81340000Y-27070000D02*
G75*
G02*
X79340000Y-27070000I-1000000J0D01*
G01*
X75200000Y-27010000D02*
X75200000Y-57730000D01*
X85480000Y-27010000D02*
X75200000Y-27010000D01*
X77690000Y-27070000D02*
X77690000Y-57670000D01*
X79340000Y-27070000D02*
X77690000Y-27070000D01*
X82990000Y-27070000D02*
X81340000Y-27070000D01*
X77690000Y-57670000D02*
X82990000Y-57670000D01*
X82990000Y-57670000D02*
X82990000Y-27070000D01*
X75200000Y-57730000D02*
X85480000Y-57730000D01*
X85480000Y-57730000D02*
X85480000Y-27010000D01*
D10*
%TO.C,Y1*%
X115090000Y-45800000D02*
G75*
G02*
X114890000Y-45800000I-100000J0D01*
G01*
X114890000Y-45800000D02*
G75*
G02*
X115090000Y-45800000I100000J0D01*
G01*
D13*
X121800000Y-44050000D02*
X115800000Y-44050000D01*
X121800000Y-47550000D02*
X115800000Y-47550000D01*
D12*
%TO.C,U5*%
X121700000Y-57260000D02*
X120290000Y-57260000D01*
X121700000Y-54940000D02*
X120300000Y-54940000D01*
X120160000Y-57540000D02*
X119680000Y-57540000D01*
X119920000Y-57210000D01*
X120160000Y-57540000D01*
G36*
X120160000Y-57540000D02*
G01*
X119680000Y-57540000D01*
X119920000Y-57210000D01*
X120160000Y-57540000D01*
G37*
%TO.C,U4*%
X114130000Y-55690000D02*
X114930000Y-55690000D01*
X115730000Y-55690000D02*
X114930000Y-55690000D01*
X114130000Y-52570000D02*
X114930000Y-52570000D01*
X115730000Y-52570000D02*
X114930000Y-52570000D01*
X113870000Y-55970000D02*
X113390000Y-55970000D01*
X113630000Y-55640000D01*
X113870000Y-55970000D01*
G36*
X113870000Y-55970000D02*
G01*
X113390000Y-55970000D01*
X113630000Y-55640000D01*
X113870000Y-55970000D01*
G37*
%TO.C,U1*%
X124410000Y-42730000D02*
X123940000Y-42390000D01*
X124410000Y-42050000D01*
X124410000Y-42730000D01*
G36*
X124410000Y-42730000D02*
G01*
X123940000Y-42390000D01*
X124410000Y-42050000D01*
X124410000Y-42730000D01*
G37*
D11*
X117300000Y-34375000D02*
X116975000Y-34375000D01*
X116975000Y-34700000D02*
X116975000Y-34375000D01*
X123900000Y-34375000D02*
X124225000Y-34375000D01*
X124225000Y-34700000D02*
X124225000Y-34375000D01*
X116975000Y-41300000D02*
X116975000Y-41625000D01*
X117300000Y-41625000D02*
X116975000Y-41625000D01*
X124225000Y-41300000D02*
X124225000Y-41625000D01*
X124000000Y-41625000D02*
X124225000Y-41625000D01*
D12*
%TO.C,R12*%
X121427064Y-51835000D02*
X120972936Y-51835000D01*
X121427064Y-50365000D02*
X120972936Y-50365000D01*
%TO.C,R11*%
X99335000Y-29827064D02*
X99335000Y-29372936D01*
X97865000Y-29827064D02*
X97865000Y-29372936D01*
%TO.C,R10*%
X99335000Y-45372936D02*
X99335000Y-45827064D01*
X97865000Y-45372936D02*
X97865000Y-45827064D01*
%TO.C,R9*%
X99335000Y-33827064D02*
X99335000Y-33372936D01*
X97865000Y-33827064D02*
X97865000Y-33372936D01*
%TO.C,R8*%
X87372936Y-58135000D02*
X87827064Y-58135000D01*
X87372936Y-56665000D02*
X87827064Y-56665000D01*
%TO.C,R6*%
X97865000Y-41827064D02*
X97865000Y-41372936D01*
X99335000Y-41827064D02*
X99335000Y-41372936D01*
%TO.C,R5*%
X97865000Y-37372936D02*
X97865000Y-37827064D01*
X99335000Y-37372936D02*
X99335000Y-37827064D01*
%TO.C,Q3*%
X104288478Y-37368478D02*
G75*
G02*
X99849999Y-35530000I-1838478J1838478D01*
G01*
X99850000Y-35530000D02*
G75*
G02*
X104288478Y-33691522I2600000J0D01*
G01*
X104300000Y-37330000D02*
X104300000Y-33730000D01*
%TO.C,Q2*%
X104288478Y-49868478D02*
G75*
G02*
X99849999Y-48030000I-1838478J1838478D01*
G01*
X99850000Y-48030000D02*
G75*
G02*
X104288478Y-46191522I2600000J0D01*
G01*
X104300000Y-49830000D02*
X104300000Y-46230000D01*
%TO.C,Q1*%
X104300000Y-43560000D02*
X104300000Y-39960000D01*
X99850000Y-41760000D02*
G75*
G02*
X104288478Y-39921522I2600000J0D01*
G01*
X104288478Y-43598478D02*
G75*
G02*
X99849999Y-41760000I-1838478J1838478D01*
G01*
%TO.C,JP1*%
X122400000Y-54300000D02*
X119600000Y-54300000D01*
X119600000Y-54300000D02*
X119600000Y-52300000D01*
X122400000Y-52300000D02*
X122400000Y-54300000D01*
X119600000Y-52300000D02*
X122400000Y-52300000D01*
D10*
%TO.C,J3*%
X64432500Y-55720000D02*
G75*
G02*
X64232500Y-55720000I-100000J0D01*
G01*
X64232500Y-55720000D02*
G75*
G02*
X64432500Y-55720000I100000J0D01*
G01*
D13*
X57662500Y-51320000D02*
X49142500Y-51320000D01*
X62102500Y-51320000D02*
X63357500Y-51320000D01*
X63357500Y-51320000D02*
X63357500Y-53200000D01*
X63357500Y-60120000D02*
X63357500Y-58240000D01*
X49142500Y-51320000D02*
X49142500Y-60120000D01*
X49142500Y-60120000D02*
X63357500Y-60120000D01*
D12*
%TO.C,J2*%
X113555000Y-30375000D02*
X113555000Y-31705000D01*
X113555000Y-31705000D02*
X112225000Y-31705000D01*
X105815000Y-31705000D02*
X110955000Y-31705000D01*
X110955000Y-29105000D02*
X110955000Y-31705000D01*
X105815000Y-26505000D02*
X105815000Y-31705000D01*
X113555000Y-26505000D02*
X113555000Y-29105000D01*
X113555000Y-29105000D02*
X110955000Y-29105000D01*
X105815000Y-26505000D02*
X113555000Y-26505000D01*
%TO.C,J1*%
X129530000Y-26605000D02*
X129530000Y-29205000D01*
X129530000Y-26605000D02*
X126870000Y-26605000D01*
X129530000Y-29205000D02*
X126870000Y-29205000D01*
X126870000Y-26605000D02*
X126870000Y-29205000D01*
X126870000Y-31805000D02*
X126870000Y-30475000D01*
X128200000Y-31805000D02*
X126870000Y-31805000D01*
%TO.C,C15*%
X124535000Y-54238748D02*
X124535000Y-54761252D01*
X123065000Y-54238748D02*
X123065000Y-54761252D01*
%TO.C,C14*%
X118935000Y-55838748D02*
X118935000Y-56361252D01*
X117465000Y-55838748D02*
X117465000Y-56361252D01*
%TO.C,C13*%
X118935000Y-51838748D02*
X118935000Y-52361252D01*
X117465000Y-51838748D02*
X117465000Y-52361252D01*
%TO.C,C12*%
X112335000Y-54561252D02*
X112335000Y-54038748D01*
X110865000Y-54561252D02*
X110865000Y-54038748D01*
%TO.C,C11*%
X64265000Y-57738748D02*
X64265000Y-58261252D01*
X65735000Y-57738748D02*
X65735000Y-58261252D01*
%TO.C,C10*%
X74735000Y-39438748D02*
X74735000Y-39961252D01*
X73265000Y-39438748D02*
X73265000Y-39961252D01*
%TO.C,C9*%
X73265000Y-43786252D02*
X73265000Y-43263748D01*
X74735000Y-43786252D02*
X74735000Y-43263748D01*
%TO.C,C8*%
X124135000Y-46061252D02*
X124135000Y-45538748D01*
X122665000Y-46061252D02*
X122665000Y-45538748D01*
%TO.C,C4*%
X126135000Y-46061252D02*
X126135000Y-45538748D01*
X124665000Y-46061252D02*
X124665000Y-45538748D01*
%TO.C,C2*%
X120938748Y-48265000D02*
X121461252Y-48265000D01*
X120938748Y-49735000D02*
X121461252Y-49735000D01*
%TO.C,C1*%
X117461252Y-49735000D02*
X116938748Y-49735000D01*
X117461252Y-48265000D02*
X116938748Y-48265000D01*
%TD*%
%LPC*%
D14*
%TO.C,R7*%
X102700000Y-31000000D03*
X102700000Y-27600000D03*
%TD*%
D15*
%TO.C,SW1*%
X123700000Y-31050000D03*
X117500000Y-27350000D03*
X123700000Y-27350000D03*
X117500000Y-31050000D03*
%TD*%
D16*
%TO.C,LED4*%
X113010000Y-37720000D03*
X113010000Y-40260000D03*
X113010000Y-42800000D03*
X113010000Y-45340000D03*
X113010000Y-47880000D03*
X113010000Y-50420000D03*
X128250000Y-55500000D03*
X128250000Y-52960000D03*
X128250000Y-50420000D03*
X128250000Y-47880000D03*
X128250000Y-45340000D03*
X128250000Y-42800000D03*
X128250000Y-37720000D03*
%TD*%
%TO.C,LED3*%
X92360400Y-37720000D03*
X92360400Y-40260000D03*
X92360400Y-42800000D03*
X92360400Y-45340000D03*
X92360400Y-47880000D03*
X92360400Y-50420000D03*
X107600400Y-55500000D03*
X107600400Y-52960000D03*
X107600400Y-50420000D03*
X107600400Y-47880000D03*
X107600400Y-45340000D03*
X107600400Y-42800000D03*
X107600400Y-37720000D03*
%TD*%
%TO.C,LED2*%
X71770000Y-37720000D03*
X71770000Y-40260000D03*
X71770000Y-42800000D03*
X71770000Y-45340000D03*
X71770000Y-47880000D03*
X71770000Y-50420000D03*
X87010000Y-55500000D03*
X87010000Y-52960000D03*
X87010000Y-50420000D03*
X87010000Y-47880000D03*
X87010000Y-45340000D03*
X87010000Y-42800000D03*
X87010000Y-37720000D03*
%TD*%
%TO.C,LED1*%
X51260000Y-37720000D03*
X51260000Y-40260000D03*
X51260000Y-42800000D03*
X51260000Y-45340000D03*
X51260000Y-47880000D03*
X51260000Y-50420000D03*
X66500000Y-55500000D03*
X66500000Y-52960000D03*
X66500000Y-50420000D03*
X66500000Y-47880000D03*
X66500000Y-45340000D03*
X66500000Y-42800000D03*
X66500000Y-37720000D03*
%TD*%
D17*
%TO.C,U2*%
X66480000Y-29480000D03*
X63940000Y-29480000D03*
X61400000Y-29480000D03*
X58860000Y-29480000D03*
D18*
X56320000Y-29480000D03*
D19*
X51300000Y-29525000D03*
X71475000Y-29375000D03*
%TD*%
D20*
%TO.C,U3*%
X76530000Y-28400000D03*
X76530000Y-30940000D03*
X76530000Y-33480000D03*
X76530000Y-36020000D03*
X76530000Y-38560000D03*
X76530000Y-41100000D03*
X76530000Y-43640000D03*
X76530000Y-46180000D03*
X76530000Y-48720000D03*
X76530000Y-51260000D03*
X76530000Y-53800000D03*
X76530000Y-56340000D03*
X84150000Y-56340000D03*
X84150000Y-53800000D03*
X84150000Y-51260000D03*
X84150000Y-48720000D03*
X84150000Y-46180000D03*
X84150000Y-43640000D03*
X84150000Y-41100000D03*
X84150000Y-38560000D03*
X84150000Y-36020000D03*
X84150000Y-33480000D03*
X84150000Y-30940000D03*
D21*
X84150000Y-28400000D03*
%TD*%
D22*
%TO.C,Y1*%
X121050000Y-45800000D03*
X116550000Y-45800000D03*
%TD*%
D23*
%TO.C,U5*%
X120050000Y-56750000D03*
X120050000Y-56100000D03*
X120050000Y-55450000D03*
X121950000Y-55450000D03*
X121950000Y-56750000D03*
%TD*%
D24*
%TO.C,U4*%
X113792500Y-55080000D03*
X113792500Y-54130000D03*
X113792500Y-53180000D03*
X116067500Y-53180000D03*
X116067500Y-55080000D03*
%TD*%
D25*
%TO.C,U1*%
X124850000Y-40800000D03*
X124850000Y-40000000D03*
X124850000Y-39200000D03*
X124850000Y-38400000D03*
X124850000Y-37600000D03*
X124850000Y-36800000D03*
X124850000Y-36000000D03*
X124850000Y-35200000D03*
D26*
X123400000Y-33750000D03*
X122600000Y-33750000D03*
X121800000Y-33750000D03*
X121000000Y-33750000D03*
X120200000Y-33750000D03*
X119400000Y-33750000D03*
X118600000Y-33750000D03*
X117800000Y-33750000D03*
D25*
X116350000Y-35200000D03*
X116350000Y-36000000D03*
X116350000Y-36800000D03*
X116350000Y-37600000D03*
X116350000Y-38400000D03*
X116350000Y-39200000D03*
X116350000Y-40000000D03*
X116350000Y-40800000D03*
D26*
X117800000Y-42250000D03*
X118600000Y-42250000D03*
X119400000Y-42250000D03*
X120200000Y-42250000D03*
X121000000Y-42250000D03*
X121800000Y-42250000D03*
X122600000Y-42250000D03*
X123400000Y-42250000D03*
%TD*%
D27*
%TO.C,R12*%
X120200000Y-51100000D03*
X122200000Y-51100000D03*
%TD*%
D28*
%TO.C,R11*%
X98600000Y-30600000D03*
X98600000Y-28600000D03*
%TD*%
D29*
%TO.C,R10*%
X98600000Y-46600000D03*
X98600000Y-44600000D03*
%TD*%
D28*
%TO.C,R9*%
X98600000Y-34600000D03*
X98600000Y-32600000D03*
%TD*%
D30*
%TO.C,R8*%
X86600000Y-57400000D03*
X88600000Y-57400000D03*
%TD*%
D28*
%TO.C,R6*%
X98600000Y-40600000D03*
X98600000Y-42600000D03*
%TD*%
D29*
%TO.C,R5*%
X98600000Y-36600000D03*
X98600000Y-38600000D03*
%TD*%
D31*
%TO.C,Q3*%
X102450000Y-36800000D03*
X102450000Y-35530000D03*
D32*
X102450000Y-34260000D03*
%TD*%
D31*
%TO.C,Q2*%
X102450000Y-49300000D03*
X102450000Y-48030000D03*
D32*
X102450000Y-46760000D03*
%TD*%
%TO.C,Q1*%
X102450000Y-40490000D03*
D31*
X102450000Y-41760000D03*
X102450000Y-43030000D03*
%TD*%
D33*
%TO.C,JP1*%
X120350000Y-53300000D03*
X121650000Y-53300000D03*
%TD*%
D34*
%TO.C,J3*%
X59882500Y-51030000D03*
D35*
X56632500Y-55720000D03*
D36*
X62587500Y-55720000D03*
%TD*%
D18*
%TO.C,J2*%
X112225000Y-30375000D03*
D17*
X112225000Y-27835000D03*
X109685000Y-30375000D03*
X109685000Y-27835000D03*
X107145000Y-30375000D03*
X107145000Y-27835000D03*
%TD*%
%TO.C,J1*%
X128200000Y-27935000D03*
D18*
X128200000Y-30475000D03*
%TD*%
D37*
%TO.C,C15*%
X123800000Y-55537500D03*
X123800000Y-53462500D03*
%TD*%
%TO.C,C14*%
X118200000Y-57137500D03*
X118200000Y-55062500D03*
%TD*%
%TO.C,C13*%
X118200000Y-53137500D03*
X118200000Y-51062500D03*
%TD*%
D38*
%TO.C,C12*%
X111600000Y-55337500D03*
X111600000Y-53262500D03*
%TD*%
D37*
%TO.C,C11*%
X65000000Y-56962500D03*
X65000000Y-59037500D03*
%TD*%
%TO.C,C10*%
X74000000Y-40737500D03*
X74000000Y-38662500D03*
%TD*%
D38*
%TO.C,C9*%
X74000000Y-42487500D03*
X74000000Y-44562500D03*
%TD*%
%TO.C,C8*%
X123400000Y-46837500D03*
X123400000Y-44762500D03*
%TD*%
%TO.C,C4*%
X125400000Y-46837500D03*
X125400000Y-44762500D03*
%TD*%
D39*
%TO.C,C2*%
X122237500Y-49000000D03*
X120162500Y-49000000D03*
%TD*%
D40*
%TO.C,C1*%
X116162500Y-49000000D03*
X118237500Y-49000000D03*
%TD*%
%LPD*%
M02*
